Lato-HairlineItalic.ufo
<glyph name="exclam" format="2">
  <advance width="448"/>
  <unicode hex="0021"/>
  <outline>
    <contour>
      <point x="305" y="1400" type="line"/>
      <point x="235" y="828" type="line" smooth="yes"/>
      <point x="221" y="710"/>
      <point x="213" y="634"/>
      <point x="197" y="476" type="curve"/>
      <point x="213" y="476" type="line"/>
      <point x="237" y="634"/>
      <point x="247" y="710"/>
      <point x="263" y="828" type="curve"/>
      <point x="333" y="1400" type="line"/>
    </contour>
    <contour>
      <point x="101" y="48" type="curve" smooth="yes"/>
      <point x="101" y="12"/>
      <point x="129" y="-16"/>
      <point x="165" y="-16" type="curve" smooth="yes"/>
      <point x="201" y="-16"/>
      <point x="231" y="12"/>
      <point x="231" y="48" type="curve" smooth="yes"/>
      <point x="231" y="84"/>
      <point x="201" y="114"/>
      <point x="165" y="114" type="curve" smooth="yes"/>
      <point x="129" y="114"/>
      <point x="101" y="84"/>
    </contour>
  </outline>
  <guideline angle="90" x="281" y="0"/>
  <guideline angle="82.9991" x="100" y="0"/>
</glyph>
<glyph name="numbersign" format="2">
  <advance width="1160"/>
  <unicode hex="0023"/>
  <guideline x="580" y="0" angle="82.9991"/>
  <outline>
    <contour>
      <point x="319" y="474" type="line"/>
      <point x="317" y="464" type="line"/>
      <point x="157" y="0" type="line"/>
      <point x="167" y="0" type="line" smooth="yes"/>
      <point x="175" y="0"/>
      <point x="181" y="4"/>
      <point x="185" y="16" type="curve" smooth="yes"/>
      <point x="339" y="464" type="line"/>
      <point x="341" y="474" type="line"/>
      <point x="497" y="926" type="line"/>
      <point x="497" y="934" type="line"/>
      <point x="659" y="1400" type="line"/>
      <point x="651" y="1400" type="line" smooth="yes"/>
      <point x="641" y="1400"/>
      <point x="635" y="1396"/>
      <point x="631" y="1384" type="curve" smooth="yes"/>
      <point x="475" y="934" type="line"/>
      <point x="475" y="926" type="line"/>
    </contour>
    <contour>
      <point x="683" y="474" type="line"/>
      <point x="681" y="464" type="line"/>
      <point x="527" y="16" type="line"/>
      <point x="521" y="2"/>
      <point x="527" y="0"/>
      <point x="537" y="0" type="curve" smooth="yes"/>
      <point x="543" y="0" type="line"/>
      <point x="703" y="464" type="line"/>
      <point x="705" y="474" type="line"/>
      <point x="861" y="926" type="line"/>
      <point x="861" y="934" type="line"/>
      <point x="1017" y="1380" type="line"/>
      <point x="1023" y="1394"/>
      <point x="1019" y="1400"/>
      <point x="1011" y="1400" type="curve"/>
      <point x="1001" y="1400" type="line"/>
      <point x="839" y="934" type="line"/>
      <point x="839" y="926" type="line"/>
    </contour>
    <contour>
      <point x="983" y="460" type="line"/>
      <point x="985" y="466" type="line"/>
      <point x="985" y="474"/>
      <point x="979" y="478"/>
      <point x="971" y="478" type="curve" smooth="yes"/>
      <point x="89" y="478" type="line"/>
      <point x="89" y="472" type="line"/>
      <point x="87" y="464"/>
      <point x="93" y="460"/>
      <point x="101" y="460" type="curve" smooth="yes"/>
    </contour>
    <contour>
      <point x="201" y="922" type="line"/>
      <point x="1083" y="922" type="line" smooth="yes"/>
      <point x="1091" y="922"/>
      <point x="1097" y="926"/>
      <point x="1097" y="934" type="curve"/>
      <point x="1099" y="940" type="line"/>
      <point x="217" y="940" type="line"/>
      <point x="209" y="940"/>
      <point x="201" y="936"/>
      <point x="201" y="928" type="curve" smooth="yes"/>
    </contour>
  </outline>
</glyph>
<glyph name="dollar" format="2">
  <advance width="1160"/>
  <unicode hex="0024"/>
  <guideline x="580" y="0" angle="82.9991"/>
  <outline>
    <contour>
      <point x="1019" y="1278" type="line"/>
      <point x="939" y="1374"/>
      <point x="845" y="1416"/>
      <point x="709" y="1416" type="curve" smooth="yes"/>
      <point x="447" y="1416"/>
      <point x="287" y="1236"/>
      <point x="287" y="1036" type="curve" smooth="yes"/>
      <point x="287" y="640"/>
      <point x="937" y="806"/>
      <point x="937" y="428" type="curve" smooth="yes"/>
      <point x="937" y="202"/>
      <point x="759" y="4"/>
      <point x="479" y="4" type="curve" smooth="yes"/>
      <point x="215" y="4"/>
      <point x="151" y="176"/>
      <point x="127" y="176" type="curve" smooth="yes"/>
      <point x="121" y="176"/>
      <point x="119" y="174"/>
      <point x="113" y="170" type="curve"/>
      <point x="109" y="166" type="line"/>
      <point x="191" y="52"/>
      <point x="289" y="-16"/>
      <point x="477" y="-16" type="curve" smooth="yes"/>
      <point x="773" y="-16"/>
      <point x="961" y="190"/>
      <point x="961" y="432" type="curve" smooth="yes"/>
      <point x="961" y="822"/>
      <point x="309" y="666"/>
      <point x="309" y="1040" type="curve" smooth="yes"/>
      <point x="309" y="1226"/>
      <point x="457" y="1396"/>
      <point x="707" y="1396" type="curve" smooth="yes"/>
      <point x="931" y="1396"/>
      <point x="979" y="1266"/>
      <point x="1005" y="1266" type="curve" smooth="yes"/>
      <point x="1009" y="1266"/>
      <point x="1013" y="1268"/>
      <point x="1015" y="1272" type="curve"/>
    </contour>
    <contour>
      <point x="433" y="-274" type="line"/>
      <point x="443" y="-274" type="line" smooth="yes"/>
      <point x="451" y="-274"/>
      <point x="457" y="-268"/>
      <point x="457" y="-258" type="curve"/>
      <point x="753" y="1618" type="line"/>
      <point x="743" y="1618" type="line" smooth="yes"/>
      <point x="735" y="1618"/>
      <point x="731" y="1612"/>
      <point x="729" y="1602" type="curve"/>
    </contour>
  </outline>
</glyph>
<glyph name="ampersand" format="2">
  <advance width="1264"/>
  <unicode hex="0026"/>
  <outline>
    <contour>
      <point x="493" y="782" type="line"/>
      <point x="273" y="714"/>
      <point x="85" y="530"/>
      <point x="85" y="300" type="curve" smooth="yes"/>
      <point x="85" y="98"/>
      <point x="241" y="-16"/>
      <point x="401" y="-16" type="curve" smooth="yes"/>
      <point x="775" y="-16"/>
      <point x="1041" y="386"/>
      <point x="1077" y="622" type="curve"/>
      <point x="1067" y="622" type="line"/>
      <point x="1058" y="622"/>
      <point x="1054" y="618"/>
      <point x="1052" y="610" type="curve"/>
      <point x="1007" y="378"/>
      <point x="755" y="4"/>
      <point x="405" y="4" type="curve" smooth="yes"/>
      <point x="271" y="4"/>
      <point x="109" y="102"/>
      <point x="109" y="302" type="curve" smooth="yes"/>
      <point x="109" y="518"/>
      <point x="285" y="698"/>
      <point x="503" y="766" type="curve"/>
    </contour>
    <contour>
      <point x="705" y="1416" type="curve"/>
      <point x="507" y="1416"/>
      <point x="361" y="1272"/>
      <point x="361" y="1066" type="curve" smooth="yes"/>
      <point x="361" y="950"/>
      <point x="413" y="854"/>
      <point x="511" y="736" type="curve" smooth="yes"/>
      <point x="1113" y="10" type="line"/>
      <point x="1123" y="0"/>
      <point x="1129" y="0"/>
      <point x="1141" y="0" type="curve" smooth="yes"/>
      <point x="1157" y="0" type="line"/>
      <point x="527" y="752" type="line" smooth="yes"/>
      <point x="437" y="860"/>
      <point x="385" y="968"/>
      <point x="385" y="1074" type="curve"/>
      <point x="385" y="1261"/>
      <point x="517" y="1396"/>
      <point x="705" y="1396" type="curve"/>
      <point x="877" y="1396"/>
      <point x="939" y="1250"/>
      <point x="939" y="1168" type="curve" smooth="yes"/>
      <point x="939" y="1156"/>
      <point x="945" y="1152"/>
      <point x="951" y="1152" type="curve" smooth="yes"/>
      <point x="960" y="1152" type="line"/>
      <point x="960" y="1316"/>
      <point x="847" y="1416"/>
    </contour>
  </outline>
  <guideline angle="82.9991" x="627" y="0"/>
</glyph>
<glyph name="quotesingle" format="2">
  <advance width="353"/>
  <unicode hex="0027"/>
  <outline>
    <contour>
      <point x="266" y="1400" type="line"/>
      <point x="228" y="1106" type="line"/>
      <point x="212" y="954" type="line"/>
      <point x="212" y="950"/>
      <point x="214" y="946"/>
      <point x="220" y="946" type="curve"/>
      <point x="226" y="946"/>
      <point x="228" y="950"/>
      <point x="228" y="954" type="curve"/>
      <point x="248" y="1106" type="line"/>
      <point x="284" y="1400" type="line"/>
    </contour>
  </outline>
  <guideline angle="90" x="197" y="0"/>
  <guideline angle="82.9991" x="100" y="0"/>
</glyph>
<glyph name="parenleft" format="2">
  <advance width="480"/>
  <unicode hex="0028"/>
  <outline>
    <contour>
      <point x="148" y="458" type="curve"/>
      <point x="148" y="892"/>
      <point x="266" y="1152"/>
      <point x="508" y="1482" type="curve" smooth="yes"/>
      <point x="514" y="1490"/>
      <point x="512" y="1496"/>
      <point x="510" y="1498" type="curve"/>
      <point x="500" y="1504" type="line"/>
      <point x="156" y="1030"/>
      <point x="124" y="768"/>
      <point x="124" y="450" type="curve"/>
      <point x="124" y="242"/>
      <point x="170" y="0"/>
      <point x="286" y="-240" type="curve"/>
      <point x="296" y="-234" type="line"/>
      <point x="300" y="-232"/>
      <point x="304" y="-226"/>
      <point x="298" y="-218" type="curve"/>
      <point x="198" y="-14"/>
      <point x="148" y="236"/>
    </contour>
  </outline>
  <guideline angle="82.9991" x="276" y="0"/>
</glyph>
<glyph name="parenright" format="2">
  <advance width="480"/>
  <unicode hex="0029"/>
  <guideline x="276" y="0" angle="82.9991"/>
  <outline>
    <contour>
      <point x="343" y="806" type="curve"/>
      <point x="343" y="418"/>
      <point x="225" y="112"/>
      <point x="-17" y="-218" type="curve" smooth="yes"/>
      <point x="-23" y="-226"/>
      <point x="-23" y="-232"/>
      <point x="-19" y="-234" type="curve"/>
      <point x="-9" y="-240" type="line"/>
      <point x="335" y="234"/>
      <point x="365" y="496"/>
      <point x="365" y="814" type="curve" smooth="yes"/>
      <point x="365" y="1022"/>
      <point x="319" y="1264"/>
      <point x="205" y="1504" type="curve"/>
      <point x="193" y="1498" type="line" smooth="yes"/>
      <point x="189" y="1496"/>
      <point x="187" y="1490"/>
      <point x="191" y="1482" type="curve" smooth="yes"/>
      <point x="291" y="1278"/>
      <point x="343" y="1028"/>
    </contour>
  </outline>
</glyph>
<glyph name="asterisk" format="2">
  <advance width="785"/>
  <unicode hex="002A"/>
  <outline>
    <contour>
      <point x="221" y="1052" type="line"/>
      <point x="421" y="1170" type="line" smooth="yes"/>
      <point x="435" y="1178"/>
      <point x="439" y="1180"/>
      <point x="459" y="1198" type="curve"/>
      <point x="457" y="1204" type="line"/>
      <point x="433" y="1196"/>
      <point x="427" y="1196"/>
      <point x="413" y="1188" type="curve" smooth="yes"/>
      <point x="213" y="1070" type="line"/>
    </contour>
    <contour>
      <point x="437" y="926" type="line"/>
      <point x="465" y="1154" type="line" smooth="yes"/>
      <point x="467" y="1170"/>
      <point x="465" y="1174"/>
      <point x="465" y="1200" type="curve"/>
      <point x="459" y="1200" type="line"/>
      <point x="449" y="1176"/>
      <point x="447" y="1170"/>
      <point x="445" y="1154" type="curve" smooth="yes"/>
      <point x="417" y="926" type="line"/>
    </contour>
    <contour>
      <point x="679" y="1070" type="line"/>
      <point x="505" y="1188" type="line" smooth="yes"/>
      <point x="493" y="1196"/>
      <point x="489" y="1196"/>
      <point x="467" y="1204" type="curve"/>
      <point x="463" y="1198" type="line"/>
      <point x="479" y="1178"/>
      <point x="481" y="1178"/>
      <point x="495" y="1170" type="curve"/>
      <point x="667" y="1052" type="line"/>
    </contour>
    <contour>
      <point x="485" y="1482" type="line"/>
      <point x="457" y="1254" type="line" smooth="yes"/>
      <point x="455" y="1238"/>
      <point x="457" y="1232"/>
      <point x="459" y="1206" type="curve"/>
      <point x="465" y="1206" type="line"/>
      <point x="473" y="1232"/>
      <point x="475" y="1238"/>
      <point x="477" y="1254" type="curve" smooth="yes"/>
      <point x="505" y="1482" type="line"/>
    </contour>
    <contour>
      <point x="245" y="1338" type="line"/>
      <point x="417" y="1220" type="line" smooth="yes"/>
      <point x="429" y="1212"/>
      <point x="433" y="1212"/>
      <point x="457" y="1202" type="curve"/>
      <point x="459" y="1208" type="line"/>
      <point x="441" y="1226"/>
      <point x="441" y="1230"/>
      <point x="429" y="1238" type="curve" smooth="yes"/>
      <point x="257" y="1356" type="line"/>
    </contour>
    <contour>
      <point x="703" y="1356" type="line"/>
      <point x="503" y="1238" type="line" smooth="yes"/>
      <point x="489" y="1230"/>
      <point x="483" y="1226"/>
      <point x="465" y="1208" type="curve"/>
      <point x="467" y="1202" type="line"/>
      <point x="489" y="1208"/>
      <point x="495" y="1212"/>
      <point x="509" y="1220" type="curve" smooth="yes"/>
      <point x="709" y="1338" type="line"/>
    </contour>
    <contour>
      <point x="453" y="1206" type="line"/>
      <point x="455" y="1200" type="line"/>
      <point x="459" y="1196" type="line"/>
      <point x="467" y="1200" type="line"/>
      <point x="469" y="1208" type="line"/>
      <point x="461" y="1208" type="line"/>
    </contour>
  </outline>
  <guideline angle="82.9991" x="368" y="0"/>
</glyph>
<glyph name="plus" format="2">
  <advance width="1160"/>
  <unicode hex="002B"/>
  <guideline x="580" y="0" angle="82.9991"/>
  <outline>
    <contour>
      <point x="128" y="660" type="line"/>
      <point x="1050" y="660" type="line"/>
      <point x="1052" y="680" type="line"/>
      <point x="130" y="680" type="line"/>
    </contour>
    <contour>
      <point x="638" y="1150" type="line"/>
      <point x="520" y="188" type="line"/>
      <point x="540" y="188" type="line"/>
      <point x="658" y="1150" type="line"/>
    </contour>
  </outline>
</glyph>
<glyph name="comma" format="2">
  <advance width="403"/>
  <unicode hex="002C"/>
  <guideline x="185" y="0" angle="82.9991"/>
  <outline>
    <contour>
      <point x="72" y="52" type="curve" smooth="yes"/>
      <point x="72" y="16"/>
      <point x="96" y="-8"/>
      <point x="128" y="-8" type="curve" smooth="yes"/>
      <point x="152" y="-8"/>
      <point x="166" y="0"/>
      <point x="178" y="16" type="curve"/>
      <point x="174" y="16" type="line"/>
      <point x="174" y="-114"/>
      <point x="70" y="-214"/>
      <point x="70" y="-226" type="curve"/>
      <point x="70" y="-228"/>
      <point x="70" y="-232"/>
      <point x="72" y="-234" type="curve" smooth="yes"/>
      <point x="76" y="-238" type="line"/>
      <point x="144" y="-166"/>
      <point x="194" y="-66"/>
      <point x="194" y="36" type="curve" smooth="yes"/>
      <point x="194" y="86"/>
      <point x="168" y="114"/>
      <point x="132" y="114" type="curve"/>
      <point x="96" y="114"/>
      <point x="72" y="84"/>
    </contour>
  </outline>
</glyph>
<glyph name="hyphen" format="2">
  <advance width="720"/>
  <unicode hex="002D"/>
  <unicode hex="00AD"/>
  <unicode hex="2010"/>
  <outline>
    <contour>
      <point x="154" y="578" type="line"/>
      <point x="560" y="578" type="line"/>
      <point x="562" y="598" type="line"/>
      <point x="158" y="598" type="line"/>
    </contour>
  </outline>
  <guideline angle="82.9991" x="294" y="0"/>
</glyph>
<glyph name="period" format="2">
  <advance width="451"/>
  <unicode hex="002E"/>
  <guideline x="185" y="0" angle="82.9991"/>
  <outline>
    <contour>
      <point x="97" y="48" type="curve" smooth="yes"/>
      <point x="97" y="12"/>
      <point x="125" y="-16"/>
      <point x="161" y="-16" type="curve" smooth="yes"/>
      <point x="197" y="-16"/>
      <point x="227" y="12"/>
      <point x="227" y="48" type="curve" smooth="yes"/>
      <point x="227" y="84"/>
      <point x="197" y="114"/>
      <point x="161" y="114" type="curve" smooth="yes"/>
      <point x="125" y="114"/>
      <point x="97" y="84"/>
    </contour>
  </outline>
</glyph>
<glyph name="slash" format="2">
  <advance width="785"/>
  <unicode hex="002F"/>
  <guideline x="315" y="0" angle="82.9991"/>
  <outline>
    <contour>
      <point x="805" y="1440" type="line"/>
      <point x="795" y="1440" type="line" smooth="yes"/>
      <point x="785" y="1440"/>
      <point x="779" y="1436"/>
      <point x="775" y="1428" type="curve" smooth="yes"/>
      <point x="1" y="-78" type="line"/>
      <point x="9" y="-78" type="line" smooth="yes"/>
      <point x="17" y="-78"/>
      <point x="27" y="-76"/>
      <point x="31" y="-66" type="curve"/>
    </contour>
  </outline>
</glyph>
<glyph name="zero" format="2">
  <advance width="1160"/>
  <unicode hex="0030"/>
  <outline>
    <contour>
      <point x="1061" y="853" type="curve" smooth="yes"/>
      <point x="1061" y="1229"/>
      <point x="896" y="1416"/>
      <point x="680" y="1416" type="curve" smooth="yes"/>
      <point x="392" y="1416"/>
      <point x="124" y="1135"/>
      <point x="124" y="548" type="curve" smooth="yes"/>
      <point x="124" y="172"/>
      <point x="289" y="-14"/>
      <point x="505" y="-14" type="curve" smooth="yes"/>
      <point x="793" y="-14"/>
      <point x="1061" y="264"/>
    </contour>
    <contour>
      <point x="1035" y="854" type="curve" smooth="yes"/>
      <point x="1035" y="274"/>
      <point x="781" y="6"/>
      <point x="507" y="6" type="curve" smooth="yes"/>
      <point x="304" y="6"/>
      <point x="148" y="182"/>
      <point x="148" y="548" type="curve" smooth="yes"/>
      <point x="148" y="1126"/>
      <point x="405" y="1396"/>
      <point x="678" y="1396" type="curve" smooth="yes"/>
      <point x="881" y="1396"/>
      <point x="1035" y="1218"/>
    </contour>
  </outline>
  <guideline angle="82.9991" x="656" y="0"/>
</glyph>
<glyph name="one" format="2">
  <advance width="1160"/>
  <unicode hex="0031"/>
  <guideline x="458" y="0" angle="82.9991"/>
  <outline>
    <contour>
      <point x="735" y="1408" type="line"/>
      <point x="726" y="1378"/>
      <point x="718" y="1346"/>
      <point x="714" y="1316" type="curve" smooth="yes"/>
      <point x="553" y="0" type="line"/>
      <point x="577" y="0" type="line"/>
      <point x="750" y="1408" type="line"/>
    </contour>
    <contour>
      <point x="240" y="0" type="line"/>
      <point x="881" y="0" type="line"/>
      <point x="884" y="20" type="line"/>
      <point x="243" y="20" type="line"/>
    </contour>
    <contour>
      <point x="329" y="1054" type="line"/>
      <point x="334" y="1046" type="line"/>
      <point x="339" y="1040"/>
      <point x="346" y="1040"/>
      <point x="353" y="1046" type="curve" smooth="yes"/>
      <point x="738" y="1384" type="line"/>
      <point x="735" y="1408" type="line"/>
    </contour>
  </outline>
</glyph>
<glyph name="two" format="2">
  <advance width="1160"/>
  <unicode hex="0032"/>
  <outline>
    <contour>
      <point x="692" y="1416" type="curve" smooth="yes"/>
      <point x="487" y="1416"/>
      <point x="322" y="1276"/>
      <point x="267" y="1052" type="curve"/>
      <point x="278" y="1052" type="line" smooth="yes"/>
      <point x="285" y="1052"/>
      <point x="292" y="1056"/>
      <point x="295" y="1068" type="curve" smooth="yes"/>
      <point x="348" y="1262"/>
      <point x="499" y="1396"/>
      <point x="689" y="1396" type="curve" smooth="yes"/>
      <point x="842" y="1396"/>
      <point x="982" y="1304"/>
      <point x="982" y="1100" type="curve" smooth="yes"/>
      <point x="982" y="870"/>
      <point x="826" y="721"/>
      <point x="638" y="536" type="curve"/>
      <point x="112" y="24" type="line"/>
      <point x="110" y="22"/>
      <point x="103" y="16"/>
      <point x="103" y="10" type="curve"/>
      <point x="101" y="0" type="line"/>
      <point x="908" y="0" type="line"/>
      <point x="910" y="12" type="line" smooth="yes"/>
      <point x="911" y="18"/>
      <point x="907" y="22"/>
      <point x="901" y="22" type="curve" smooth="yes"/>
      <point x="238" y="22" type="line" smooth="yes"/>
      <point x="186" y="22"/>
      <point x="145" y="20"/>
      <point x="116" y="16" type="curve"/>
      <point x="128" y="12" type="line"/>
      <point x="651" y="522" type="line" smooth="yes"/>
      <point x="841" y="707"/>
      <point x="1006" y="856"/>
      <point x="1006" y="1102" type="curve" smooth="yes"/>
      <point x="1006" y="1320"/>
      <point x="854" y="1416"/>
    </contour>
  </outline>
  <guideline angle="82.9991" x="488" y="0"/>
</glyph>
<glyph name="three" format="2">
  <advance width="1160"/>
  <unicode hex="0033"/>
  <guideline x="488" y="0" angle="82.9991"/>
  <outline>
    <contour>
      <point x="690" y="1416" type="curve" smooth="yes"/>
      <point x="486" y="1416"/>
      <point x="321" y="1276"/>
      <point x="266" y="1052" type="curve"/>
      <point x="276" y="1052" type="line" smooth="yes"/>
      <point x="284" y="1052"/>
      <point x="288" y="1056"/>
      <point x="292" y="1068" type="curve"/>
      <point x="345" y="1262"/>
      <point x="497" y="1396"/>
      <point x="688" y="1396" type="curve" smooth="yes"/>
      <point x="841" y="1396"/>
      <point x="975" y="1309"/>
      <point x="975" y="1114" type="curve" smooth="yes"/>
      <point x="975" y="887"/>
      <point x="806" y="737"/>
      <point x="559" y="728" type="curve"/>
      <point x="557" y="712" type="line"/>
      <point x="819" y="710"/>
      <point x="926" y="580"/>
      <point x="926" y="414" type="curve" smooth="yes"/>
      <point x="926" y="230"/>
      <point x="770" y="4"/>
      <point x="500" y="4" type="curve" smooth="yes"/>
      <point x="169" y="4"/>
      <point x="165" y="298"/>
      <point x="160" y="324" type="curve"/>
      <point x="157" y="344"/>
      <point x="143" y="340"/>
      <point x="139" y="338" type="curve"/>
      <point x="134" y="336" type="line"/>
      <point x="147" y="202"/>
      <point x="187" y="-16"/>
      <point x="498" y="-16" type="curve" smooth="yes"/>
      <point x="749" y="-16"/>
      <point x="950" y="184"/>
      <point x="950" y="416" type="curve" smooth="yes"/>
      <point x="950" y="590"/>
      <point x="839" y="719"/>
      <point x="625" y="724" type="curve"/>
      <point x="625" y="718" type="line"/>
      <point x="801" y="729"/>
      <point x="999" y="877"/>
      <point x="999" y="1116" type="curve" smooth="yes"/>
      <point x="999" y="1325"/>
      <point x="853" y="1416"/>
    </contour>
  </outline>
</glyph>
<glyph name="four" format="2">
  <advance width="1160"/>
  <unicode hex="0034"/>
  <guideline x="512" y="0" angle="82.9991"/>
  <outline>
    <contour>
      <point x="880" y="1402" type="line"/>
      <point x="865" y="1402" type="line"/>
      <point x="82" y="450" type="line"/>
      <point x="83" y="442" type="line"/>
      <point x="84" y="436"/>
      <point x="86" y="432"/>
      <point x="99" y="432" type="curve" smooth="yes"/>
      <point x="1017" y="432" type="line" smooth="yes"/>
      <point x="1028" y="432"/>
      <point x="1032" y="436"/>
      <point x="1033" y="444" type="curve" smooth="yes"/>
      <point x="1034" y="452" type="line"/>
      <point x="96" y="452" type="line"/>
      <point x="105" y="446" type="line"/>
      <point x="871" y="1378" type="line"/>
      <point x="861" y="1382" type="line"/>
      <point x="855" y="1362"/>
      <point x="850" y="1342"/>
      <point x="848" y="1322" type="curve" smooth="yes"/>
      <point x="686" y="0" type="line"/>
      <point x="707" y="0" type="line"/>
    </contour>
  </outline>
</glyph>
<glyph name="five" format="2">
  <advance width="1160"/>
  <unicode hex="0035"/>
  <guideline x="461" y="0" angle="82.9991"/>
  <outline>
    <contour>
      <point x="1012" y="1400" type="line"/>
      <point x="459" y="1400" type="line"/>
      <point x="289" y="810" type="line"/>
      <point x="305" y="802" type="line"/>
      <point x="406" y="829"/>
      <point x="493" y="841"/>
      <point x="566" y="841" type="curve" smooth="yes"/>
      <point x="800" y="841"/>
      <point x="903" y="699"/>
      <point x="903" y="509" type="curve" smooth="yes"/>
      <point x="903" y="185"/>
      <point x="681" y="8"/>
      <point x="441" y="8" type="curve" smooth="yes"/>
      <point x="263" y="8"/>
      <point x="175" y="102"/>
      <point x="157" y="102" type="curve" smooth="yes"/>
      <point x="151" y="102"/>
      <point x="147" y="100"/>
      <point x="144" y="96" type="curve"/>
      <point x="137" y="88" type="line"/>
      <point x="197" y="36"/>
      <point x="305" y="-16"/>
      <point x="438" y="-16" type="curve" smooth="yes"/>
      <point x="688" y="-16"/>
      <point x="929" y="175"/>
      <point x="929" y="507" type="curve" smooth="yes"/>
      <point x="929" y="714"/>
      <point x="809" y="861"/>
      <point x="569" y="861" type="curve" smooth="yes"/>
      <point x="495" y="861"/>
      <point x="409" y="849"/>
      <point x="311" y="822" type="curve"/>
      <point x="310" y="806" type="line"/>
      <point x="482" y="1396" type="line"/>
      <point x="460" y="1378" type="line"/>
      <point x="995" y="1378" type="line" smooth="yes"/>
      <point x="1003" y="1378"/>
      <point x="1010" y="1384"/>
      <point x="1010" y="1390" type="curve"/>
    </contour>
  </outline>
</glyph>
<glyph name="six" format="2">
  <advance width="1067"/>
  <unicode hex="0036"/>
  <outline>
    <contour>
      <point x="187" y="357" type="curve"/>
      <point x="187" y="568"/>
      <point x="361" y="798"/>
      <point x="629" y="798" type="curve" smooth="yes"/>
      <point x="820" y="798"/>
      <point x="943" y="666"/>
      <point x="943" y="461" type="curve" smooth="yes"/>
      <point x="943" y="199"/>
      <point x="769" y="4"/>
      <point x="502" y="4" type="curve" smooth="yes"/>
      <point x="305" y="4"/>
      <point x="187" y="155"/>
    </contour>
    <contour>
      <point x="189" y="426" type="line"/>
      <point x="209" y="560"/>
      <point x="274" y="666"/>
      <point x="409" y="836" type="curve"/>
      <point x="863" y="1400" type="line"/>
      <point x="843" y="1400" type="line" smooth="yes"/>
      <point x="839" y="1400"/>
      <point x="834" y="1400"/>
      <point x="830" y="1394" type="curve"/>
      <point x="390" y="846" type="line" smooth="yes"/>
      <point x="229" y="645"/>
      <point x="164" y="506"/>
      <point x="164" y="359" type="curve" smooth="yes"/>
      <point x="164" y="122"/>
      <point x="298" y="-16"/>
      <point x="500" y="-16" type="curve" smooth="yes"/>
      <point x="762" y="-16"/>
      <point x="966" y="177"/>
      <point x="966" y="461" type="curve" smooth="yes"/>
      <point x="966" y="666"/>
      <point x="842" y="818"/>
      <point x="630" y="818" type="curve" smooth="yes"/>
      <point x="422" y="818"/>
      <point x="213" y="658"/>
      <point x="184" y="420" type="curve"/>
    </contour>
  </outline>
</glyph>
<glyph name="seven" format="2">
  <advance width="1160"/>
  <unicode hex="0037"/>
  <guideline x="475" y="0" angle="82.9991"/>
  <outline>
    <contour>
      <point x="266" y="1400" type="line"/>
      <point x="265" y="1390" type="line" smooth="yes"/>
      <point x="264" y="1382"/>
      <point x="267" y="1378"/>
      <point x="275" y="1378" type="curve" smooth="yes"/>
      <point x="1088" y="1378" type="line"/>
      <point x="1083" y="1384" type="line"/>
      <point x="1077" y="1378"/>
      <point x="1072" y="1372"/>
      <point x="1067" y="1364" type="curve" smooth="yes"/>
      <point x="259" y="0" type="line"/>
      <point x="271" y="0" type="line" smooth="yes"/>
      <point x="281" y="0"/>
      <point x="289" y="4"/>
      <point x="294" y="12" type="curve" smooth="yes"/>
      <point x="1100" y="1374" type="line"/>
      <point x="1103" y="1378"/>
      <point x="1105" y="1384"/>
      <point x="1106" y="1388" type="curve"/>
      <point x="1107" y="1400" type="line"/>
    </contour>
  </outline>
</glyph>
<glyph name="eight" format="2">
  <advance width="1160"/>
  <unicode hex="0038"/>
  <guideline x="488" y="0" angle="82.9991"/>
  <outline>
    <contour>
      <point x="505" y="-16" type="curve"/>
      <point x="763" y="-16"/>
      <point x="960" y="144"/>
      <point x="960" y="410" type="curve" smooth="yes"/>
      <point x="960" y="639"/>
      <point x="790" y="732"/>
      <point x="612" y="738" type="curve"/>
      <point x="610" y="722" type="line"/>
      <point x="847" y="733"/>
      <point x="998" y="898"/>
      <point x="998" y="1110" type="curve" smooth="yes"/>
      <point x="998" y="1278"/>
      <point x="886" y="1416"/>
      <point x="680" y="1416" type="curve"/>
      <point x="436" y="1416"/>
      <point x="277" y="1239"/>
      <point x="277" y="1026" type="curve" smooth="yes"/>
      <point x="277" y="861"/>
      <point x="385" y="731"/>
      <point x="581" y="722" type="curve"/>
      <point x="582" y="738" type="line"/>
      <point x="370" y="731"/>
      <point x="142" y="614"/>
      <point x="142" y="311" type="curve" smooth="yes"/>
      <point x="142" y="110"/>
      <point x="286" y="-16"/>
    </contour>
    <contour>
      <point x="597" y="740" type="curve"/>
      <point x="394" y="740"/>
      <point x="301" y="878"/>
      <point x="301" y="1028" type="curve" smooth="yes"/>
      <point x="301" y="1237"/>
      <point x="451" y="1396"/>
      <point x="678" y="1396" type="curve"/>
      <point x="867" y="1396"/>
      <point x="974" y="1273"/>
      <point x="974" y="1109" type="curve" smooth="yes"/>
      <point x="974" y="920"/>
      <point x="843" y="740"/>
    </contour>
    <contour>
      <point x="507" y="4" type="curve"/>
      <point x="303" y="4"/>
      <point x="166" y="127"/>
      <point x="166" y="315" type="curve" smooth="yes"/>
      <point x="166" y="642"/>
      <point x="434" y="720"/>
      <point x="595" y="720" type="curve"/>
      <point x="733" y="720"/>
      <point x="936" y="657"/>
      <point x="936" y="409" type="curve" smooth="yes"/>
      <point x="936" y="159"/>
      <point x="748" y="4"/>
    </contour>
  </outline>
</glyph>
<glyph name="nine" format="2">
  <advance width="1160"/>
  <unicode hex="0039"/>
  <guideline x="478" y="0" angle="82.9991"/>
  <outline>
    <contour>
      <point x="983" y="1055" type="curve"/>
      <point x="983" y="855"/>
      <point x="815" y="634"/>
      <point x="560" y="634" type="curve" smooth="yes"/>
      <point x="376" y="634"/>
      <point x="257" y="761"/>
      <point x="257" y="957" type="curve" smooth="yes"/>
      <point x="257" y="1219"/>
      <point x="442" y="1396"/>
      <point x="681" y="1396" type="curve" smooth="yes"/>
      <point x="862" y="1396"/>
      <point x="983" y="1251"/>
    </contour>
    <contour>
      <point x="988" y="1000" type="line"/>
      <point x="963" y="844"/>
      <point x="888" y="754"/>
      <point x="771" y="596" type="curve" smooth="yes"/>
      <point x="326" y="0" type="line"/>
      <point x="346" y="0" type="line" smooth="yes"/>
      <point x="350" y="0"/>
      <point x="354" y="0"/>
      <point x="359" y="6" type="curve"/>
      <point x="788" y="586" type="line" smooth="yes"/>
      <point x="931" y="778"/>
      <point x="1006" y="878"/>
      <point x="1006" y="1049" type="curve" smooth="yes"/>
      <point x="1006" y="1268"/>
      <point x="875" y="1416"/>
      <point x="683" y="1416" type="curve" smooth="yes"/>
      <point x="439" y="1416"/>
      <point x="233" y="1225"/>
      <point x="233" y="958" type="curve" smooth="yes"/>
      <point x="233" y="761"/>
      <point x="354" y="614"/>
      <point x="558" y="614" type="curve" smooth="yes"/>
      <point x="757" y="614"/>
      <point x="962" y="772"/>
      <point x="990" y="1000" type="curve"/>
    </contour>
  </outline>
</glyph>
<glyph name="less" format="2">
  <advance width="1160"/>
  <unicode hex="003C"/>
  <guideline x="533" y="0" angle="82.9991"/>
  <outline>
    <contour>
      <point x="195" y="676" type="line"/>
      <point x="193" y="666" type="line"/>
      <point x="218" y="668"/>
      <point x="241" y="679"/>
      <point x="264" y="690" type="curve" smooth="yes"/>
      <point x="947" y="1016" type="line" smooth="yes"/>
      <point x="962" y="1023"/>
      <point x="968" y="1028"/>
      <point x="969" y="1037" type="curve" smooth="yes"/>
      <point x="970" y="1048" type="line"/>
    </contour>
    <contour>
      <point x="193" y="664" type="line"/>
      <point x="877" y="292" type="line"/>
      <point x="879" y="303" type="line"/>
      <point x="880" y="312"/>
      <point x="875" y="317"/>
      <point x="862" y="324" type="curve"/>
      <point x="259" y="650" type="line"/>
      <point x="239" y="662"/>
      <point x="218" y="672"/>
      <point x="194" y="674" type="curve"/>
    </contour>
  </outline>
</glyph>
<glyph name="equal" format="2">
  <advance width="1160"/>
  <unicode hex="003D"/>
  <guideline x="580" y="0" angle="82.9991"/>
  <outline>
    <contour>
      <point x="166" y="520" type="line"/>
      <point x="966" y="520" type="line"/>
      <point x="968" y="540" type="line"/>
      <point x="168" y="540" type="line"/>
    </contour>
    <contour>
      <point x="202" y="814" type="line"/>
      <point x="1002" y="814" type="line"/>
      <point x="1004" y="834" type="line"/>
      <point x="204" y="834" type="line"/>
    </contour>
  </outline>
</glyph>
<glyph name="greater" format="2">
  <advance width="1160"/>
  <unicode hex="003E"/>
  <outline>
    <contour>
      <point x="980" y="664" type="line"/>
      <point x="981" y="674" type="line"/>
      <point x="957" y="672"/>
      <point x="934" y="661"/>
      <point x="910" y="650" type="curve" smooth="yes"/>
      <point x="227" y="324" type="line" smooth="yes"/>
      <point x="212" y="317"/>
      <point x="207" y="312"/>
      <point x="206" y="303" type="curve"/>
      <point x="204" y="292" type="line"/>
    </contour>
    <contour>
      <point x="982" y="676" type="line"/>
      <point x="297" y="1048" type="line"/>
      <point x="296" y="1037" type="line" smooth="yes"/>
      <point x="295" y="1028"/>
      <point x="299" y="1023"/>
      <point x="312" y="1016" type="curve" smooth="yes"/>
      <point x="915" y="690" type="line"/>
      <point x="936" y="678"/>
      <point x="957" y="668"/>
      <point x="980" y="666" type="curve"/>
    </contour>
  </outline>
  <guideline angle="82.9991" x="533" y="0"/>
</glyph>
<glyph name="question" format="2">
  <advance width="783"/>
  <unicode hex="003F"/>
  <guideline x="320" y="0" angle="82.9991"/>
  <outline>
    <contour>
      <point x="176" y="1279" type="curve"/>
      <point x="181" y="1273" type="line"/>
      <point x="184" y="1269"/>
      <point x="187" y="1269"/>
      <point x="188" y="1269" type="curve"/>
      <point x="207" y="1269"/>
      <point x="293" y="1396"/>
      <point x="472" y="1396" type="curve" smooth="yes"/>
      <point x="600" y="1396"/>
      <point x="712" y="1308"/>
      <point x="712" y="1162" type="curve"/>
      <point x="712" y="840"/>
      <point x="364" y="816"/>
      <point x="344" y="650" type="curve" smooth="yes"/>
      <point x="322" y="476" type="line"/>
      <point x="338" y="476" type="line"/>
      <point x="366" y="648" type="line" smooth="yes"/>
      <point x="391" y="802"/>
      <point x="736" y="834"/>
      <point x="736" y="1164" type="curve" smooth="yes"/>
      <point x="736" y="1320"/>
      <point x="614" y="1416"/>
      <point x="474" y="1416" type="curve" smooth="yes"/>
      <point x="344" y="1416"/>
      <point x="244" y="1347"/>
    </contour>
    <contour>
      <point x="242" y="48" type="curve" smooth="yes"/>
      <point x="242" y="12"/>
      <point x="270" y="-16"/>
      <point x="306" y="-16" type="curve" smooth="yes"/>
      <point x="342" y="-16"/>
      <point x="372" y="12"/>
      <point x="372" y="48" type="curve" smooth="yes"/>
      <point x="372" y="84"/>
      <point x="342" y="114"/>
      <point x="306" y="114" type="curve" smooth="yes"/>
      <point x="270" y="114"/>
      <point x="242" y="84"/>
    </contour>
  </outline>
</glyph>
<glyph name="at" format="2">
  <advance width="1521"/>
  <unicode hex="0040"/>
  <guideline y="700"/>
  <guideline x="755"/>
  <guideline x="100" y="0" angle="82.9991"/>
  <outline>
    <contour>
      <point x="1038" y="190" type="curve" smooth="yes"/>
      <point x="1234" y="190"/>
      <point x="1426" y="414"/>
      <point x="1426" y="760" type="curve" smooth="yes"/>
      <point x="1426" y="1124"/>
      <point x="1178" y="1306"/>
      <point x="888" y="1306" type="curve" smooth="yes"/>
      <point x="490" y="1306"/>
      <point x="114" y="942"/>
      <point x="114" y="420" type="curve" smooth="yes"/>
      <point x="114" y="0"/>
      <point x="376" y="-236"/>
      <point x="726" y="-236" type="curve" smooth="yes"/>
      <point x="918" y="-236"/>
      <point x="1088" y="-184"/>
      <point x="1240" y="-82" type="curve"/>
      <point x="1238" y="-70" type="line"/>
      <point x="1236" y="-64"/>
      <point x="1230" y="-60"/>
      <point x="1222" y="-66" type="curve"/>
      <point x="1072" y="-166"/>
      <point x="906" y="-214"/>
      <point x="728" y="-214" type="curve" smooth="yes"/>
      <point x="396" y="-214"/>
      <point x="136" y="14"/>
      <point x="136" y="424" type="curve" smooth="yes"/>
      <point x="136" y="940"/>
      <point x="512" y="1286"/>
      <point x="886" y="1286" type="curve" smooth="yes"/>
      <point x="1168" y="1286"/>
      <point x="1404" y="1114"/>
      <point x="1404" y="760" type="curve" smooth="yes"/>
      <point x="1404" y="416"/>
      <point x="1218" y="210"/>
      <point x="1042" y="210" type="curve" smooth="yes"/>
      <point x="950" y="210"/>
      <point x="866" y="256"/>
      <point x="968" y="538" type="curve"/>
      <point x="1092" y="874" type="line"/>
      <point x="1056" y="894"/>
      <point x="1000" y="904"/>
      <point x="950" y="904" type="curve" smooth="yes"/>
      <point x="662" y="904"/>
      <point x="456" y="626"/>
      <point x="456" y="390" type="curve" smooth="yes"/>
      <point x="456" y="282"/>
      <point x="506" y="196"/>
      <point x="618" y="196" type="curve" smooth="yes"/>
      <point x="740" y="196"/>
      <point x="856" y="280"/>
      <point x="940" y="470" type="curve"/>
      <point x="922" y="446" type="line"/>
      <point x="878" y="294"/>
      <point x="902" y="190"/>
    </contour>
    <contour>
      <point x="1068" y="874" type="line"/>
      <point x="948" y="542" type="line" smooth="yes"/>
      <point x="854" y="280"/>
      <point x="726" y="216"/>
      <point x="626" y="216" type="curve" smooth="yes"/>
      <point x="526" y="216"/>
      <point x="480" y="296"/>
      <point x="480" y="394" type="curve" smooth="yes"/>
      <point x="480" y="614"/>
      <point x="674" y="884"/>
      <point x="948" y="884" type="curve" smooth="yes"/>
      <point x="1006" y="884"/>
      <point x="1036" y="876"/>
      <point x="1078" y="862" type="curve"/>
    </contour>
  </outline>
</glyph>
<glyph name="A" format="2">
  <advance width="1178"/>
  <unicode hex="0041"/>
  <guideline x="566" y="0" angle="82.9991"/>
  <anchor x="698" y="1496" name="Top"/>
  <anchor x="275" y="1120" name="onRight"/>
  <anchor x="506" y="-70" name="bottom"/>
  <anchor x="698" y="1496" name="top"/>
  <outline>
    <contour>
      <point x="-32" y="0" type="line"/>
      <point x="-16" y="0" type="line" smooth="yes"/>
      <point x="-10" y="0"/>
      <point x="-4" y="4"/>
      <point x="0" y="10" type="curve"/>
      <point x="664" y="1326" type="line" smooth="yes"/>
      <point x="676" y="1350"/>
      <point x="686" y="1368"/>
      <point x="696" y="1400" type="curve"/>
      <point x="678" y="1400" type="line"/>
    </contour>
    <contour>
      <point x="224" y="478" type="line"/>
      <point x="924" y="478" type="line"/>
      <point x="928" y="498" type="line"/>
      <point x="226" y="498" type="line"/>
    </contour>
    <contour>
      <point x="698" y="1400" type="line"/>
      <point x="680" y="1400" type="line"/>
      <point x="682" y="1368"/>
      <point x="688" y="1350"/>
      <point x="694" y="1326" type="curve" smooth="yes"/>
      <point x="1034" y="10" type="line"/>
      <point x="1036" y="4"/>
      <point x="1040" y="0"/>
      <point x="1046" y="0" type="curve" smooth="yes"/>
      <point x="1064" y="0" type="line"/>
    </contour>
  </outline>
</glyph>
<glyph name="B" format="2">
  <advance width="1151"/>
  <unicode hex="0042"/>
  <anchor x="483" y="-70" name="bottom"/>
  <anchor x="652" y="1496" name="Top"/>
  <anchor x="203" y="355" name="Bar"/>
  <anchor x="652" y="1496" name="top"/>
  <outline>
    <contour>
      <point x="532" y="0" type="line" smooth="yes"/>
      <point x="822" y="0"/>
      <point x="998" y="150"/>
      <point x="998" y="410" type="curve" smooth="yes"/>
      <point x="998" y="600"/>
      <point x="858" y="716"/>
      <point x="626" y="716" type="curve"/>
      <point x="644" y="712" type="line"/>
      <point x="848" y="712"/>
      <point x="1022" y="894"/>
      <point x="1022" y="1104" type="curve" smooth="yes"/>
      <point x="1022" y="1292"/>
      <point x="902" y="1400"/>
      <point x="654" y="1400" type="curve" smooth="yes"/>
      <point x="318" y="1400" type="line"/>
      <point x="146" y="0" type="line"/>
      <point x="170" y="0" type="line"/>
      <point x="340" y="1380" type="line"/>
      <point x="652" y="1380" type="line" smooth="yes"/>
      <point x="888" y="1380"/>
      <point x="1000" y="1276"/>
      <point x="1000" y="1100" type="curve" smooth="yes"/>
      <point x="1000" y="928"/>
      <point x="876" y="720"/>
      <point x="580" y="720" type="curve"/>
      <point x="250" y="720" type="line"/>
      <point x="248" y="700" type="line"/>
      <point x="620" y="700" type="line" smooth="yes"/>
      <point x="840" y="700"/>
      <point x="974" y="586"/>
      <point x="974" y="408" type="curve" smooth="yes"/>
      <point x="974" y="156"/>
      <point x="808" y="20"/>
      <point x="534" y="20" type="curve" smooth="yes"/>
      <point x="162" y="20" type="line"/>
      <point x="156" y="0" type="line"/>
    </contour>
  </outline>
  <guideline angle="82.9991" x="492" y="0"/>
</glyph>
<glyph name="C" format="2">
  <advance width="1266"/>
  <unicode hex="0043"/>
  <anchor x="863" y="1496" name="Top"/>
  <anchor x="692" y="700" name="Slash"/>
  <anchor x="863" y="1496" name="top"/>
  <anchor x="571" y="-70" name="bottom"/>
  <outline>
    <contour>
      <point x="658" y="4" type="curve" smooth="yes"/>
      <point x="364" y="4"/>
      <point x="160" y="230"/>
      <point x="160" y="590" type="curve" smooth="yes"/>
      <point x="160" y="1084"/>
      <point x="462" y="1396"/>
      <point x="848" y="1396" type="curve" smooth="yes"/>
      <point x="1128" y="1396"/>
      <point x="1204" y="1242"/>
      <point x="1226" y="1242" type="curve" smooth="yes"/>
      <point x="1230" y="1242"/>
      <point x="1234" y="1242"/>
      <point x="1238" y="1246" type="curve"/>
      <point x="1242" y="1252" type="line"/>
      <point x="1136" y="1362"/>
      <point x="1036" y="1416"/>
      <point x="850" y="1416" type="curve" smooth="yes"/>
      <point x="444" y="1416"/>
      <point x="136" y="1082"/>
      <point x="136" y="590" type="curve" smooth="yes"/>
      <point x="136" y="220"/>
      <point x="344" y="-16"/>
      <point x="656" y="-16" type="curve" smooth="yes"/>
      <point x="868" y="-16"/>
      <point x="1014" y="64"/>
      <point x="1136" y="178" type="curve"/>
      <point x="1127" y="187" type="line"/>
      <point x="1126" y="188"/>
      <point x="1124" y="189"/>
      <point x="1123" y="189" type="curve"/>
      <point x="1102" y="189"/>
      <point x="976" y="4"/>
    </contour>
  </outline>
  <guideline angle="82.9991" x="647" y="0"/>
</glyph>
<glyph name="D" format="2">
  <advance width="1411"/>
  <unicode hex="0044"/>
  <guideline x="705" y="0" angle="82.9991"/>
  <anchor x="756" y="1496" name="Top"/>
  <anchor x="561" y="-70" name="bottom"/>
  <anchor x="756" y="1496" name="top"/>
  <outline>
    <contour>
      <point x="1298" y="812" type="curve" smooth="yes"/>
      <point x="1298" y="1178"/>
      <point x="1096" y="1400"/>
      <point x="778" y="1400" type="curve" smooth="yes"/>
      <point x="318" y="1400" type="line"/>
      <point x="146" y="0" type="line"/>
      <point x="606" y="0" type="line" smooth="yes"/>
      <point x="1002" y="0"/>
      <point x="1298" y="304"/>
    </contour>
    <contour>
      <point x="1272" y="812" type="curve" smooth="yes"/>
      <point x="1272" y="310"/>
      <point x="988" y="20"/>
      <point x="608" y="20" type="curve" smooth="yes"/>
      <point x="172" y="20" type="line"/>
      <point x="340" y="1380" type="line"/>
      <point x="776" y="1380" type="line" smooth="yes"/>
      <point x="1078" y="1380"/>
      <point x="1272" y="1168"/>
    </contour>
  </outline>
</glyph>
<glyph name="E" format="2">
  <advance width="1081"/>
  <unicode hex="0045"/>
  <anchor x="712" y="1496" name="Top"/>
  <anchor x="544" y="-70" name="bottom"/>
  <anchor x="17" y="1120" name="onRight"/>
  <anchor x="572" y="700" name="Slash"/>
  <anchor x="712" y="1496" name="top"/>
  <outline>
    <contour>
      <point x="342" y="1400" type="line"/>
      <point x="318" y="1400" type="line"/>
      <point x="146" y="0" type="line"/>
      <point x="170" y="0" type="line"/>
    </contour>
    <contour>
      <point x="252" y="722" type="line"/>
      <point x="248" y="700" type="line"/>
      <point x="874" y="700" type="line"/>
      <point x="878" y="722" type="line"/>
    </contour>
    <contour>
      <point x="334" y="1400" type="line"/>
      <point x="332" y="1378" type="line"/>
      <point x="1068" y="1378" type="line"/>
      <point x="1072" y="1400" type="line"/>
    </contour>
    <contour>
      <point x="166" y="22" type="line"/>
      <point x="162" y="0" type="line"/>
      <point x="900" y="0" type="line"/>
      <point x="904" y="22" type="line"/>
    </contour>
  </outline>
  <guideline angle="82.9991" x="552" y="0"/>
</glyph>
<glyph name="F" format="2">
  <advance width="1056"/>
  <unicode hex="0046"/>
  <guideline x="531" y="0" angle="82.9991"/>
  <anchor x="702" y="1496" name="Top"/>
  <anchor x="702" y="1496" name="top"/>
  <anchor x="364" y="-70" name="bottom"/>
  <outline>
    <contour>
      <point x="342" y="1400" type="line"/>
      <point x="318" y="1400" type="line"/>
      <point x="146" y="0" type="line"/>
      <point x="170" y="0" type="line"/>
    </contour>
    <contour>
      <point x="248" y="702" type="line"/>
      <point x="246" y="680" type="line"/>
      <point x="890" y="680" type="line"/>
      <point x="894" y="702" type="line"/>
    </contour>
    <contour>
      <point x="334" y="1400" type="line"/>
      <point x="332" y="1378" type="line"/>
      <point x="1068" y="1378" type="line"/>
      <point x="1072" y="1400" type="line"/>
    </contour>
  </outline>
</glyph>
<glyph name="G" format="2">
  <advance width="1373"/>
  <unicode hex="0047"/>
  <anchor x="886" y="1496" name="Top"/>
  <anchor x="886" y="1496" name="top"/>
  <anchor x="688" y="-70" name="bottom"/>
  <outline>
    <contour>
      <point x="1165" y="152" type="line"/>
      <point x="1019" y="58"/>
      <point x="891" y="4"/>
      <point x="675" y="4" type="curve" smooth="yes"/>
      <point x="361" y="4"/>
      <point x="161" y="230"/>
      <point x="161" y="588" type="curve" smooth="yes"/>
      <point x="161" y="1088"/>
      <point x="449" y="1396"/>
      <point x="867" y="1396" type="curve" smooth="yes"/>
      <point x="1163" y="1396"/>
      <point x="1245" y="1244"/>
      <point x="1263" y="1244" type="curve" smooth="yes"/>
      <point x="1269" y="1244"/>
      <point x="1271" y="1246"/>
      <point x="1273" y="1250" type="curve"/>
      <point x="1279" y="1256" type="line"/>
      <point x="1177" y="1366"/>
      <point x="1061" y="1416"/>
      <point x="869" y="1416" type="curve" smooth="yes"/>
      <point x="433" y="1416"/>
      <point x="137" y="1092"/>
      <point x="137" y="588" type="curve" smooth="yes"/>
      <point x="137" y="220"/>
      <point x="341" y="-16"/>
      <point x="673" y="-16" type="curve" smooth="yes"/>
      <point x="891" y="-16"/>
      <point x="1039" y="44"/>
      <point x="1177" y="138" type="curve"/>
      <point x="1235" y="602" type="line"/>
      <point x="913" y="602" type="line"/>
      <point x="913" y="592" type="line"/>
      <point x="911" y="588"/>
      <point x="917" y="582"/>
      <point x="923" y="582" type="curve" smooth="yes"/>
      <point x="1211" y="582" type="line"/>
      <point x="1155" y="132" type="line"/>
    </contour>
  </outline>
  <guideline angle="82.9991" x="700" y="0"/>
</glyph>
<glyph name="J" format="2">
  <advance width="764"/>
  <unicode hex="004A"/>
  <guideline x="425" y="0" angle="82.9991"/>
  <anchor x="657" y="1496" name="Top"/>
  <anchor x="528" y="700" name="Bar"/>
  <anchor x="657" y="1496" name="top"/>
  <anchor x="192" y="-70" name="bottom"/>
  <outline>
    <contour>
      <point x="658" y="1400" type="line"/>
      <point x="634" y="1400" type="line"/>
      <point x="512" y="412" type="line" smooth="yes"/>
      <point x="474" y="100"/>
      <point x="316" y="4"/>
      <point x="142" y="4" type="curve" smooth="yes"/>
      <point x="34" y="4"/>
      <point x="2" y="30"/>
      <point x="-22" y="30" type="curve" smooth="yes"/>
      <point x="-32" y="30"/>
      <point x="-34" y="24"/>
      <point x="-36" y="20" type="curve"/>
      <point x="-38" y="14" type="line"/>
      <point x="14" y="-6"/>
      <point x="68" y="-16"/>
      <point x="140" y="-16" type="curve"/>
      <point x="344" y="-18"/>
      <point x="498" y="104"/>
      <point x="536" y="412" type="curve" smooth="yes"/>
    </contour>
  </outline>
</glyph>
<glyph name="K" format="2">
  <advance width="1131"/>
  <unicode hex="004B"/>
  <guideline x="591" y="0" angle="82.9991"/>
  <anchor x="690" y="1496" name="Top"/>
  <anchor x="442" y="-70" name="bottom"/>
  <anchor x="690" y="1496" name="top"/>
  <outline>
    <contour>
      <point x="342" y="1402" type="line"/>
      <point x="318" y="1402" type="line"/>
      <point x="146" y="0" type="line"/>
      <point x="170" y="0" type="line"/>
    </contour>
    <contour>
      <point x="250" y="704" type="line"/>
      <point x="344" y="704" type="line" smooth="yes"/>
      <point x="402" y="704"/>
      <point x="410" y="692"/>
      <point x="434" y="664" type="curve" smooth="yes"/>
      <point x="986" y="14" type="line"/>
      <point x="994" y="4"/>
      <point x="998" y="0"/>
      <point x="1018" y="0" type="curve" smooth="yes"/>
      <point x="1028" y="0" type="line"/>
      <point x="450" y="682" type="line"/>
      <point x="426" y="712"/>
      <point x="408" y="718"/>
      <point x="352" y="718" type="curve"/>
      <point x="328" y="710" type="line"/>
      <point x="414" y="712"/>
      <point x="420" y="712"/>
      <point x="460" y="748" type="curve"/>
      <point x="1164" y="1400" type="line"/>
      <point x="1150" y="1400" type="line" smooth="yes"/>
      <point x="1138" y="1400"/>
      <point x="1129" y="1398"/>
      <point x="1114" y="1384" type="curve" smooth="yes"/>
      <point x="440" y="758" type="line" smooth="yes"/>
      <point x="408" y="728"/>
      <point x="392" y="724"/>
      <point x="346" y="724" type="curve" smooth="yes"/>
      <point x="252" y="724" type="line"/>
    </contour>
  </outline>
</glyph>
<glyph name="L" format="2">
  <advance width="918"/>
  <unicode hex="004C"/>
  <anchor x="341" y="1496" name="Top"/>
  <anchor x="458" y="-70" name="bottom"/>
  <anchor x="245" y="700" name="Bar"/>
  <anchor x="341" y="1496" name="top"/>
  <outline>
    <contour>
      <point x="342" y="1400" type="line"/>
      <point x="318" y="1400" type="line"/>
      <point x="146" y="0" type="line"/>
      <point x="170" y="0" type="line"/>
    </contour>
    <contour>
      <point x="166" y="22" type="line"/>
      <point x="162" y="0" type="line"/>
      <point x="826" y="0" type="line"/>
      <point x="830" y="22" type="line"/>
    </contour>
  </outline>
  <guideline angle="82.9991" x="468" y="0"/>
</glyph>
<glyph name="N" format="2">
  <advance width="1388"/>
  <unicode hex="004E"/>
  <anchor x="831" y="1494" name="Top"/>
  <anchor x="831" y="1494" name="top"/>
  <anchor x="617" y="-70" name="bottom"/>
  <outline>
    <contour>
      <point x="1096" y="20" type="line"/>
      <point x="338" y="1392" type="line"/>
      <point x="334" y="1398"/>
      <point x="332" y="1400"/>
      <point x="326" y="1400" type="curve"/>
      <point x="318" y="1400" type="line"/>
      <point x="146" y="0" type="line"/>
      <point x="166" y="0" type="line"/>
      <point x="330" y="1338" type="line" smooth="yes"/>
      <point x="332" y="1354"/>
      <point x="332" y="1372"/>
      <point x="332" y="1388" type="curve"/>
      <point x="322" y="1380" type="line"/>
      <point x="1078" y="10" type="line"/>
      <point x="1082" y="4"/>
      <point x="1086" y="0"/>
      <point x="1092" y="0" type="curve" smooth="yes"/>
      <point x="1096" y="0" type="line"/>
      <point x="1268" y="1400" type="line"/>
      <point x="1248" y="1400" type="line"/>
      <point x="1084" y="64" type="line" smooth="yes"/>
      <point x="1082" y="50"/>
      <point x="1084" y="34"/>
      <point x="1084" y="20" type="curve"/>
    </contour>
  </outline>
  <guideline angle="82.9991" x="695" y="0"/>
</glyph>
<glyph name="O" format="2">
  <advance width="1458"/>
  <unicode hex="004F"/>
  <anchor x="836" y="1496" name="Top"/>
  <anchor x="18" y="1120" name="onRight"/>
  <anchor x="644" y="-70" name="bottom"/>
  <anchor x="741" y="700" name="Slash"/>
  <anchor x="836" y="1496" name="top"/>
  <outline>
    <contour>
      <point x="1347" y="814" type="curve" smooth="yes"/>
      <point x="1347" y="1180"/>
      <point x="1145" y="1416"/>
      <point x="829" y="1416" type="curve" smooth="yes"/>
      <point x="439" y="1416"/>
      <point x="137" y="1092"/>
      <point x="137" y="586" type="curve" smooth="yes"/>
      <point x="137" y="220"/>
      <point x="339" y="-14"/>
      <point x="653" y="-14" type="curve" smooth="yes"/>
      <point x="1049" y="-14"/>
      <point x="1347" y="306"/>
    </contour>
    <contour>
      <point x="1321" y="814" type="curve" smooth="yes"/>
      <point x="1321" y="312"/>
      <point x="1035" y="6"/>
      <point x="655" y="6" type="curve" smooth="yes"/>
      <point x="359" y="6"/>
      <point x="161" y="230"/>
      <point x="161" y="588" type="curve"/>
      <point x="161" y="1088"/>
      <point x="455" y="1396"/>
      <point x="827" y="1396" type="curve" smooth="yes"/>
      <point x="1127" y="1396"/>
      <point x="1321" y="1172"/>
    </contour>
  </outline>
  <guideline angle="82.9991" x="733" y="0"/>
</glyph>
<glyph name="Q" format="2">
  <advance width="1458"/>
  <unicode hex="0051"/>
  <anchor x="836" y="1496" name="Top"/>
  <anchor x="836" y="1496" name="top"/>
  <anchor x="644" y="-70" name="bottom"/>
  <anchor x="18" y="1120" name="onRight"/>
  <anchor x="741" y="700" name="Slash"/>
  <outline>
    <component base="O"/>
    <contour>
      <point x="959" y="70" type="line"/>
      <point x="941" y="60" type="line"/>
      <point x="1223" y="-318" type="line"/>
      <point x="1227" y="-322"/>
      <point x="1233" y="-326"/>
      <point x="1243" y="-326" type="curve" smooth="yes"/>
      <point x="1257" y="-326" type="line"/>
    </contour>
  </outline>
  <guideline angle="82.9991" x="732" y="0"/>
</glyph>
<glyph name="R" format="2">
  <advance width="1095"/>
  <unicode hex="0052"/>
  <guideline x="570" y="0" angle="82.9991"/>
  <anchor x="586" y="1496" name="Top"/>
  <anchor x="586" y="1496" name="top"/>
  <anchor x="538" y="-70" name="bottom"/>
  <outline>
    <contour>
      <point x="454" y="676" type="line" smooth="yes"/>
      <point x="504" y="676"/>
      <point x="520" y="668"/>
      <point x="538" y="640" type="curve" smooth="yes"/>
      <point x="940" y="12" type="line" smooth="yes"/>
      <point x="948" y="0"/>
      <point x="954" y="0"/>
      <point x="964" y="0" type="curve" smooth="yes"/>
      <point x="980" y="0" type="line"/>
      <point x="558" y="650" type="line" smooth="yes"/>
      <point x="536" y="684"/>
      <point x="510" y="688"/>
      <point x="436" y="688" type="curve"/>
      <point x="488" y="676" type="line"/>
      <point x="512" y="676" type="line" smooth="yes"/>
      <point x="792" y="676"/>
      <point x="996" y="836"/>
      <point x="996" y="1102" type="curve" smooth="yes"/>
      <point x="996" y="1304"/>
      <point x="862" y="1400"/>
      <point x="618" y="1400" type="curve" smooth="yes"/>
      <point x="318" y="1400" type="line"/>
      <point x="146" y="0" type="line"/>
      <point x="170" y="0" type="line"/>
      <point x="334" y="1328" type="line"/>
      <point x="340" y="1380" type="line"/>
      <point x="616" y="1380" type="line" smooth="yes"/>
      <point x="846" y="1380"/>
      <point x="972" y="1290"/>
      <point x="972" y="1100" type="curve" smooth="yes"/>
      <point x="972" y="848"/>
      <point x="788" y="696"/>
      <point x="514" y="696" type="curve" smooth="yes"/>
      <point x="248" y="696" type="line"/>
      <point x="244" y="676" type="line"/>
    </contour>
  </outline>
</glyph>
<glyph name="S" format="2">
  <advance width="980"/>
  <unicode hex="0053"/>
  <anchor x="635" y="1496" name="Top"/>
  <anchor x="372" y="-70" name="bottom"/>
  <anchor x="635" y="1496" name="top"/>
  <outline>
    <contour>
      <point x="900" y="1278" type="line"/>
      <point x="828" y="1374"/>
      <point x="740" y="1416"/>
      <point x="616" y="1416" type="curve" smooth="yes"/>
      <point x="366" y="1416"/>
      <point x="222" y="1234"/>
      <point x="222" y="1032" type="curve" smooth="yes"/>
      <point x="222" y="646"/>
      <point x="816" y="800"/>
      <point x="816" y="436" type="curve" smooth="yes"/>
      <point x="816" y="200"/>
      <point x="650" y="4"/>
      <point x="390" y="4" type="curve" smooth="yes"/>
      <point x="148" y="4"/>
      <point x="90" y="176"/>
      <point x="68" y="176" type="curve" smooth="yes"/>
      <point x="62" y="176"/>
      <point x="60" y="174"/>
      <point x="56" y="170" type="curve"/>
      <point x="50" y="166" type="line"/>
      <point x="126" y="52"/>
      <point x="216" y="-16"/>
      <point x="388" y="-16" type="curve" smooth="yes"/>
      <point x="664" y="-16"/>
      <point x="838" y="192"/>
      <point x="838" y="436" type="curve" smooth="yes"/>
      <point x="838" y="814"/>
      <point x="244" y="668"/>
      <point x="244" y="1034" type="curve" smooth="yes"/>
      <point x="244" y="1230"/>
      <point x="384" y="1396"/>
      <point x="612" y="1396" type="curve" smooth="yes"/>
      <point x="818" y="1396"/>
      <point x="862" y="1266"/>
      <point x="886" y="1266" type="curve" smooth="yes"/>
      <point x="890" y="1266"/>
      <point x="894" y="1268"/>
      <point x="896" y="1272" type="curve"/>
    </contour>
  </outline>
  <guideline angle="82.9991" x="475" y="0"/>
</glyph>
<glyph name="U" format="2">
  <advance width="1339"/>
  <unicode hex="0055"/>
  <anchor x="780" y="1496" name="Top"/>
  <anchor x="780" y="1496" name="top"/>
  <anchor x="593" y="-70" name="bottom"/>
  <outline>
    <contour>
      <point x="598" y="4" type="curve" smooth="yes"/>
      <point x="320" y="4"/>
      <point x="184" y="236"/>
      <point x="218" y="522" type="curve"/>
      <point x="326" y="1400" type="line"/>
      <point x="302" y="1400" type="line"/>
      <point x="194" y="520" type="line" smooth="yes"/>
      <point x="158" y="224"/>
      <point x="308" y="-18"/>
      <point x="594" y="-18" type="curve" smooth="yes"/>
      <point x="882" y="-18"/>
      <point x="1090" y="224"/>
      <point x="1128" y="520" type="curve"/>
      <point x="1236" y="1400" type="line"/>
      <point x="1212" y="1400" type="line"/>
      <point x="1104" y="520" type="line"/>
      <point x="1068" y="234"/>
      <point x="874" y="4"/>
    </contour>
  </outline>
  <guideline angle="82.9991" x="677" y="0"/>
</glyph>
<glyph name="V" format="2">
  <advance width="1171"/>
  <unicode hex="0056"/>
  <anchor x="696" y="1496" name="Top"/>
  <anchor x="696" y="1496" name="top"/>
  <anchor x="509" y="-70" name="bottom"/>
  <outline>
    <contour>
      <point x="1231" y="1400" type="line"/>
      <point x="1215" y="1400" type="line" smooth="yes"/>
      <point x="1209" y="1400"/>
      <point x="1203" y="1396"/>
      <point x="1201" y="1390" type="curve"/>
      <point x="537" y="74" type="line" smooth="yes"/>
      <point x="525" y="50"/>
      <point x="515" y="32"/>
      <point x="505" y="0" type="curve"/>
      <point x="523" y="0" type="line"/>
    </contour>
    <contour>
      <point x="503" y="0" type="line"/>
      <point x="521" y="0" type="line"/>
      <point x="519" y="32"/>
      <point x="513" y="50"/>
      <point x="507" y="74" type="curve" smooth="yes"/>
      <point x="165" y="1390" type="line"/>
      <point x="165" y="1396"/>
      <point x="161" y="1400"/>
      <point x="155" y="1400" type="curve" smooth="yes"/>
      <point x="137" y="1400" type="line"/>
    </contour>
  </outline>
  <guideline angle="82.9991" x="566" y="0"/>
</glyph>
<glyph name="W" format="2">
  <advance width="1848"/>
  <unicode hex="0057"/>
  <guideline y="83"/>
  <guideline x="883" y="0" angle="82.9991"/>
  <anchor x="1030" y="1496" name="Top"/>
  <anchor x="1030" y="1496" name="top"/>
  <anchor x="845" y="-70" name="bottom"/>
  <outline>
    <contour>
      <point x="1020" y="1400" type="line" smooth="yes"/>
      <point x="1014" y="1400"/>
      <point x="1009" y="1397"/>
      <point x="1006" y="1390" type="curve" smooth="yes"/>
      <point x="424" y="74" type="line" smooth="yes"/>
      <point x="414" y="50"/>
      <point x="406" y="32"/>
      <point x="398" y="0" type="curve"/>
      <point x="412" y="0" type="line"/>
      <point x="1006" y="1344" type="line" smooth="yes"/>
      <point x="1012" y="1358"/>
      <point x="1018" y="1374"/>
      <point x="1020" y="1388" type="curve"/>
      <point x="1018" y="1388" type="line"/>
      <point x="1018" y="1374"/>
      <point x="1020" y="1358"/>
      <point x="1022" y="1344" type="curve"/>
      <point x="1286" y="0" type="line"/>
      <point x="1300" y="0" type="line"/>
      <point x="1300" y="32"/>
      <point x="1296" y="50"/>
      <point x="1292" y="74" type="curve"/>
      <point x="1034" y="1390" type="line"/>
      <point x="1033" y="1397"/>
      <point x="1030" y="1400"/>
      <point x="1024" y="1400" type="curve" smooth="yes"/>
    </contour>
    <contour>
      <point x="392" y="0" type="line"/>
      <point x="408" y="0" type="line"/>
      <point x="408" y="32"/>
      <point x="404" y="50"/>
      <point x="400" y="74" type="curve" smooth="yes"/>
      <point x="184" y="1390" type="line"/>
      <point x="184" y="1396"/>
      <point x="180" y="1400"/>
      <point x="174" y="1400" type="curve" smooth="yes"/>
      <point x="156" y="1400" type="line"/>
    </contour>
    <contour>
      <point x="1886" y="1400" type="line"/>
      <point x="1870" y="1400" type="line" smooth="yes"/>
      <point x="1864" y="1400"/>
      <point x="1856" y="1396"/>
      <point x="1854" y="1390" type="curve"/>
      <point x="1316" y="74" type="line" smooth="yes"/>
      <point x="1306" y="50"/>
      <point x="1298" y="32"/>
      <point x="1290" y="0" type="curve"/>
      <point x="1306" y="0" type="line"/>
    </contour>
  </outline>
</glyph>
<glyph name="X" format="2">
  <advance width="1121"/>
  <unicode hex="0058"/>
  <guideline x="518" y="0" angle="82.9991"/>
  <anchor x="669" y="1496" name="Top"/>
  <anchor x="669" y="1496" name="top"/>
  <anchor x="485" y="-70" name="bottom"/>
  <outline>
    <contour>
      <point x="568" y="742" type="line"/>
      <point x="594" y="742" type="line"/>
      <point x="242" y="1384" type="line"/>
      <point x="236" y="1394"/>
      <point x="232" y="1400"/>
      <point x="222" y="1400" type="curve" smooth="yes"/>
      <point x="202" y="1400" type="line"/>
    </contour>
    <contour>
      <point x="1120" y="1400" type="line"/>
      <point x="1102" y="1400" type="line" smooth="yes"/>
      <point x="1094" y="1400"/>
      <point x="1088" y="1398"/>
      <point x="1082" y="1390" type="curve"/>
      <point x="592" y="774" type="line" smooth="yes"/>
      <point x="582" y="762"/>
      <point x="580" y="754"/>
      <point x="578" y="742" type="curve"/>
      <point x="592" y="742" type="line"/>
    </contour>
    <contour>
      <point x="594" y="754" type="line"/>
      <point x="568" y="754" type="line"/>
      <point x="972" y="14" type="line"/>
      <point x="976" y="10"/>
      <point x="978" y="0"/>
      <point x="988" y="0" type="curve" smooth="yes"/>
      <point x="1010" y="0" type="line"/>
    </contour>
    <contour>
      <point x="-32" y="0" type="line"/>
      <point x="-10" y="0" type="line" smooth="yes"/>
      <point x="-2" y="0"/>
      <point x="4" y="6"/>
      <point x="10" y="14" type="curve" smooth="yes"/>
      <point x="570" y="722" type="line" smooth="yes"/>
      <point x="580" y="734"/>
      <point x="582" y="740"/>
      <point x="584" y="754" type="curve"/>
      <point x="570" y="754" type="line"/>
    </contour>
  </outline>
</glyph>
<glyph name="Z" format="2">
  <advance width="1086"/>
  <unicode hex="005A"/>
  <anchor x="663" y="1496" name="Top"/>
  <anchor x="478" y="-70" name="bottom"/>
  <anchor x="663" y="1496" name="top"/>
  <outline>
    <contour>
      <point x="1095" y="1374" type="line" smooth="yes"/>
      <point x="1101" y="1382"/>
      <point x="1103" y="1384"/>
      <point x="1105" y="1390" type="curve"/>
      <point x="1107" y="1400" type="line"/>
      <point x="1089" y="1400" type="line"/>
      <point x="9" y="24" type="line"/>
      <point x="5" y="18"/>
      <point x="3" y="16"/>
      <point x="1" y="10" type="curve"/>
      <point x="-1" y="0" type="line"/>
      <point x="17" y="0" type="line"/>
    </contour>
    <contour>
      <point x="187" y="1400" type="line"/>
      <point x="183" y="1378" type="line"/>
      <point x="1089" y="1378" type="line"/>
      <point x="1107" y="1400" type="line"/>
    </contour>
    <contour>
      <point x="17" y="22" type="line"/>
      <point x="-1" y="0" type="line"/>
      <point x="931" y="0" type="line"/>
      <point x="935" y="22" type="line"/>
    </contour>
  </outline>
  <guideline angle="82.9991" x="590" y="0"/>
</glyph>
<glyph name="bracketleft" format="2">
  <advance width="542"/>
  <unicode hex="005B"/>
  <guideline x="276" y="0" angle="82.9991"/>
  <outline>
    <contour>
      <point x="576" y="1502" type="line"/>
      <point x="324" y="1502" type="line"/>
      <point x="332" y="1484" type="line"/>
      <point x="562" y="1484" type="line" smooth="yes"/>
      <point x="570" y="1484"/>
      <point x="574" y="1488"/>
      <point x="576" y="1496" type="curve"/>
    </contour>
    <contour>
      <point x="362" y="-242" type="line"/>
      <point x="364" y="-236" type="line"/>
      <point x="364" y="-228"/>
      <point x="360" y="-224"/>
      <point x="352" y="-224" type="curve" smooth="yes"/>
      <point x="122" y="-224" type="line"/>
      <point x="110" y="-242" type="line"/>
    </contour>
    <contour>
      <point x="346" y="1502" type="line"/>
      <point x="324" y="1502" type="line"/>
      <point x="110" y="-242" type="line"/>
      <point x="130" y="-242" type="line"/>
    </contour>
  </outline>
</glyph>
<glyph name="backslash" format="2">
  <advance width="776"/>
  <unicode hex="005C"/>
  <outline>
    <contour>
      <point x="587" y="-66" type="line"/>
      <point x="589" y="-76"/>
      <point x="599" y="-78"/>
      <point x="607" y="-78" type="curve" smooth="yes"/>
      <point x="615" y="-78" type="line"/>
      <point x="211" y="1428" type="line" smooth="yes"/>
      <point x="209" y="1436"/>
      <point x="203" y="1440"/>
      <point x="193" y="1440" type="curve" smooth="yes"/>
      <point x="183" y="1440" type="line"/>
    </contour>
  </outline>
  <guideline angle="82.9991" x="315" y="0"/>
</glyph>
<glyph name="bracketright" format="2">
  <advance width="545"/>
  <unicode hex="005D"/>
  <outline>
    <contour>
      <point x="190" y="1496" type="line"/>
      <point x="188" y="1488"/>
      <point x="192" y="1484"/>
      <point x="202" y="1484" type="curve" smooth="yes"/>
      <point x="432" y="1484" type="line"/>
      <point x="444" y="1502" type="line"/>
      <point x="190" y="1502" type="line"/>
    </contour>
    <contour>
      <point x="230" y="-242" type="line"/>
      <point x="222" y="-224" type="line"/>
      <point x="-8" y="-224" type="line" smooth="yes"/>
      <point x="-18" y="-224"/>
      <point x="-22" y="-228"/>
      <point x="-24" y="-236" type="curve"/>
      <point x="-24" y="-242" type="line"/>
    </contour>
    <contour>
      <point x="208" y="-242" type="line"/>
      <point x="230" y="-242" type="line"/>
      <point x="444" y="1502" type="line"/>
      <point x="422" y="1502" type="line"/>
    </contour>
  </outline>
  <guideline angle="82.9991" x="276" y="0"/>
</glyph>
<glyph name="asciicircum" format="2">
  <advance width="1160"/>
  <unicode hex="005E"/>
  <outline>
    <contour>
      <point x="304" y="812" type="line"/>
      <point x="318" y="812" type="line" smooth="yes"/>
      <point x="328" y="812"/>
      <point x="334" y="820"/>
      <point x="338" y="826" type="curve"/>
      <point x="618" y="1332" type="line" smooth="yes"/>
      <point x="630" y="1354"/>
      <point x="640" y="1376"/>
      <point x="642" y="1400" type="curve"/>
      <point x="630" y="1400" type="line"/>
    </contour>
    <contour>
      <point x="642" y="1400" type="line"/>
      <point x="630" y="1400" type="line"/>
      <point x="632" y="1376"/>
      <point x="642" y="1354"/>
      <point x="654" y="1332" type="curve" smooth="yes"/>
      <point x="934" y="826" type="line"/>
      <point x="938" y="818"/>
      <point x="946" y="812"/>
      <point x="954" y="812" type="curve" smooth="yes"/>
      <point x="968" y="812" type="line"/>
    </contour>
  </outline>
  <guideline angle="82.9991" x="580" y="0"/>
</glyph>
<glyph name="underscore" format="2">
  <advance width="886"/>
  <unicode hex="005F"/>
  <outline>
    <contour>
      <point x="-23" y="-240" type="line"/>
      <point x="-25" y="-262" type="line"/>
      <point x="699" y="-262" type="line"/>
      <point x="703" y="-240" type="line"/>
    </contour>
  </outline>
  <guideline angle="82.9991" x="363" y="0"/>
</glyph>
<glyph name="b" format="2">
  <advance width="1009"/>
  <unicode hex="0062"/>
  <anchor x="404" y="-70" name="bottom"/>
  <anchor x="572" y="1120" name="top"/>
  <anchor x="530" y="20" name="hook"/>
  <anchor x="256" y="1238" name="bar"/>
  <anchor x="279" y="1496" name="Top"/>
  <outline>
    <contour>
      <point x="107" y="0" type="line" smooth="yes"/>
      <point x="117" y="0"/>
      <point x="115" y="6"/>
      <point x="117" y="14" type="curve"/>
      <point x="142" y="175" type="line"/>
      <point x="144" y="185" type="line"/>
      <point x="297" y="1440" type="line"/>
      <point x="275" y="1440" type="line"/>
      <point x="101" y="0" type="line"/>
    </contour>
    <contour>
      <point x="133" y="180" type="line"/>
      <point x="185" y="50"/>
      <point x="299" y="-12"/>
      <point x="419" y="-12" type="curve" smooth="yes"/>
      <point x="717" y="-12"/>
      <point x="897" y="372"/>
      <point x="897" y="658" type="curve" smooth="yes"/>
      <point x="897" y="850"/>
      <point x="817" y="994"/>
      <point x="643" y="994" type="curve" smooth="yes"/>
      <point x="451" y="994"/>
      <point x="263" y="780"/>
      <point x="163" y="484" type="curve"/>
      <point x="169" y="460" type="line"/>
      <point x="281" y="776"/>
      <point x="463" y="974"/>
      <point x="643" y="974" type="curve" smooth="yes"/>
      <point x="795" y="974"/>
      <point x="875" y="852"/>
      <point x="875" y="658" type="curve" smooth="yes"/>
      <point x="875" y="382"/>
      <point x="709" y="8"/>
      <point x="421" y="8" type="curve" smooth="yes"/>
      <point x="307" y="8"/>
      <point x="199" y="62"/>
      <point x="137" y="212" type="curve"/>
    </contour>
  </outline>
  <guideline angle="82.9991" x="496" y="0"/>
</glyph>
<glyph name="d" format="2">
  <advance width="1010"/>
  <unicode hex="0064"/>
  <anchor x="559" y="1120" name="top"/>
  <anchor x="765" y="20" name="hook"/>
  <anchor x="903" y="1238" name="bar"/>
  <anchor x="922" y="1496" name="Top"/>
  <anchor x="479" y="-70" name="bottom"/>
  <outline>
    <contour>
      <point x="765" y="0" type="line"/>
      <point x="941" y="1440" type="line"/>
      <point x="919" y="1440" type="line"/>
      <point x="797" y="458" type="line"/>
      <point x="797" y="442" type="line"/>
      <point x="747" y="14" type="line"/>
      <point x="747" y="8"/>
      <point x="749" y="0"/>
      <point x="759" y="0" type="curve"/>
    </contour>
    <contour>
      <point x="851" y="804" type="line"/>
      <point x="799" y="934"/>
      <point x="685" y="994"/>
      <point x="565" y="994" type="curve" smooth="yes"/>
      <point x="267" y="994"/>
      <point x="87" y="612"/>
      <point x="87" y="326" type="curve" smooth="yes"/>
      <point x="87" y="134"/>
      <point x="167" y="-12"/>
      <point x="341" y="-12" type="curve" smooth="yes"/>
      <point x="533" y="-12"/>
      <point x="721" y="204"/>
      <point x="821" y="500" type="curve"/>
      <point x="815" y="524" type="line"/>
      <point x="703" y="208"/>
      <point x="521" y="8"/>
      <point x="341" y="8" type="curve" smooth="yes"/>
      <point x="189" y="8"/>
      <point x="109" y="132"/>
      <point x="109" y="326" type="curve" smooth="yes"/>
      <point x="109" y="602"/>
      <point x="275" y="974"/>
      <point x="563" y="974" type="curve" smooth="yes"/>
      <point x="677" y="974"/>
      <point x="785" y="922"/>
      <point x="847" y="772" type="curve"/>
    </contour>
  </outline>
  <guideline angle="82.9991" x="497" y="0"/>
</glyph>
<glyph name="e" format="2">
  <advance width="920"/>
  <unicode hex="0065"/>
  <guideline x="435" y="0" angle="82.9991"/>
  <anchor x="592" y="1120" name="top"/>
  <anchor x="431" y="-70" name="bottom"/>
  <anchor x="756" y="20" name="hook"/>
  <outline>
    <contour>
      <point x="105" y="476" type="line"/>
      <point x="705" y="540"/>
      <point x="811" y="658"/>
      <point x="811" y="814" type="curve" smooth="yes"/>
      <point x="811" y="878"/>
      <point x="759" y="994"/>
      <point x="573" y="994" type="curve" smooth="yes"/>
      <point x="263" y="994"/>
      <point x="91" y="652"/>
      <point x="91" y="362" type="curve" smooth="yes"/>
      <point x="91" y="130"/>
      <point x="199" y="-12"/>
      <point x="413" y="-12" type="curve" smooth="yes"/>
      <point x="553" y="-12"/>
      <point x="659" y="46"/>
      <point x="785" y="182" type="curve"/>
      <point x="783" y="184" type="line" smooth="yes"/>
      <point x="779" y="188"/>
      <point x="777" y="188"/>
      <point x="773" y="188" type="curve" smooth="yes"/>
      <point x="741" y="188"/>
      <point x="643" y="8"/>
      <point x="415" y="8" type="curve" smooth="yes"/>
      <point x="213" y="8"/>
      <point x="113" y="144"/>
      <point x="113" y="362" type="curve" smooth="yes"/>
      <point x="113" y="636"/>
      <point x="273" y="974"/>
      <point x="573" y="974" type="curve" smooth="yes"/>
      <point x="737" y="974"/>
      <point x="793" y="878"/>
      <point x="793" y="814" type="curve" smooth="yes"/>
      <point x="793" y="682"/>
      <point x="715" y="560"/>
      <point x="109" y="496" type="curve"/>
    </contour>
  </outline>
</glyph>
<glyph name="f" format="2">
  <advance width="594"/>
  <unicode hex="0066"/>
  <guideline x="268" y="0" angle="82.9991"/>
  <anchor x="189" y="20" name="hook"/>
  <anchor x="567" y="1476" name="top"/>
  <anchor x="240" y="532" name="bar"/>
  <anchor x="478" y="1496" name="Top"/>
  <anchor x="107" y="-421" name="bottom"/>
  <outline>
    <contour>
      <point x="298" y="1088" type="line"/>
      <point x="326" y="1310"/>
      <point x="434" y="1394"/>
      <point x="562" y="1394" type="curve" smooth="yes"/>
      <point x="626" y="1394"/>
      <point x="656" y="1366"/>
      <point x="660" y="1384" type="curve"/>
      <point x="664" y="1392" type="line"/>
      <point x="638" y="1406"/>
      <point x="598" y="1414"/>
      <point x="564" y="1414" type="curve" smooth="yes"/>
      <point x="420" y="1414"/>
      <point x="304" y="1312"/>
      <point x="276" y="1088" type="curve" smooth="yes"/>
      <point x="112" y="-252" type="line"/>
      <point x="116" y="-252" type="line" smooth="yes"/>
      <point x="120" y="-252"/>
      <point x="126" y="-250"/>
      <point x="128" y="-240" type="curve"/>
      <point x="166" y="10" type="line"/>
      <point x="278" y="926" type="line"/>
      <point x="278" y="934" type="line"/>
    </contour>
    <contour>
      <point x="580" y="920" type="line"/>
      <point x="584" y="938" type="line"/>
      <point x="98" y="938" type="line"/>
      <point x="98" y="932" type="line" smooth="yes"/>
      <point x="98" y="926"/>
      <point x="100" y="924"/>
      <point x="108" y="924" type="curve"/>
      <point x="260" y="920" type="line"/>
      <point x="274" y="920" type="line"/>
    </contour>
  </outline>
</glyph>
<glyph name="g" format="2">
  <advance width="886"/>
  <unicode hex="0067"/>
  <guideline x="419"/>
  <guideline x="100" y="0" angle="82.9991"/>
  <anchor x="574" y="1120" name="top"/>
  <anchor x="339" y="-421" name="bottom"/>
  <outline>
    <contour>
      <point x="399" y="398" type="curve" smooth="yes"/>
      <point x="259" y="398"/>
      <point x="167" y="480"/>
      <point x="167" y="640" type="curve" smooth="yes"/>
      <point x="167" y="810"/>
      <point x="281" y="974"/>
      <point x="477" y="974" type="curve" smooth="yes"/>
      <point x="617" y="974"/>
      <point x="711" y="898"/>
      <point x="711" y="740" type="curve" smooth="yes"/>
      <point x="711" y="572"/>
      <point x="595" y="398"/>
    </contour>
    <contour>
      <point x="731" y="740" type="curve"/>
      <point x="731" y="902"/>
      <point x="629" y="994"/>
      <point x="477" y="994" type="curve" smooth="yes"/>
      <point x="269" y="994"/>
      <point x="145" y="818"/>
      <point x="145" y="640" type="curve" smooth="yes"/>
      <point x="145" y="474"/>
      <point x="247" y="378"/>
      <point x="399" y="378" type="curve" smooth="yes"/>
      <point x="477" y="378"/>
      <point x="561" y="414"/>
      <point x="625" y="476" type="curve"/>
      <point x="629" y="492" type="line"/>
      <point x="527" y="376"/>
      <point x="507" y="324"/>
      <point x="507" y="266" type="curve"/>
      <point x="505" y="130"/>
      <point x="691" y="100"/>
      <point x="689" y="-76" type="curve" smooth="yes"/>
      <point x="687" y="-214"/>
      <point x="533" y="-356"/>
      <point x="295" y="-356" type="curve" smooth="yes"/>
      <point x="113" y="-356"/>
      <point x="-17" y="-282"/>
      <point x="-17" y="-150" type="curve"/>
      <point x="-15" y="24"/>
      <point x="193" y="172"/>
      <point x="601" y="116" type="curve"/>
      <point x="593" y="134" type="line"/>
      <point x="217" y="192"/>
      <point x="-37" y="52"/>
      <point x="-39" y="-150" type="curve"/>
      <point x="-39" y="-298"/>
      <point x="101" y="-376"/>
      <point x="293" y="-376" type="curve" smooth="yes"/>
      <point x="539" y="-376"/>
      <point x="709" y="-228"/>
      <point x="711" y="-76" type="curve" smooth="yes"/>
      <point x="713" y="96"/>
      <point x="525" y="154"/>
      <point x="527" y="266" type="curve"/>
      <point x="527" y="408"/>
      <point x="727" y="498"/>
    </contour>
    <contour>
      <point x="651" y="926" type="line"/>
      <point x="869" y="928" type="line"/>
      <point x="883" y="928"/>
      <point x="887" y="934"/>
      <point x="887" y="938" type="curve" smooth="yes"/>
      <point x="887" y="946" type="line"/>
      <point x="631" y="946" type="line"/>
    </contour>
  </outline>
</glyph>
<glyph name="h" format="2">
  <advance width="1007"/>
  <unicode hex="0068"/>
  <anchor x="538" y="700" name="Slash"/>
  <anchor x="279" y="1496" name="Top"/>
  <anchor x="279" y="1496" name="top"/>
  <anchor x="433" y="-70" name="bottom"/>
  <outline>
    <contour>
      <point x="123" y="0" type="line"/>
      <point x="297" y="1440" type="line"/>
      <point x="275" y="1440" type="line"/>
      <point x="101" y="0" type="line"/>
    </contour>
    <contour>
      <point x="773" y="0" type="line"/>
      <point x="847" y="628" type="line"/>
      <point x="825" y="628" type="line"/>
      <point x="751" y="0" type="line"/>
    </contour>
    <contour>
      <point x="847" y="628" type="line"/>
      <point x="875" y="860"/>
      <point x="817" y="994"/>
      <point x="645" y="994" type="curve" smooth="yes"/>
      <point x="463" y="994"/>
      <point x="271" y="812"/>
      <point x="169" y="534" type="curve"/>
      <point x="173" y="510" type="line"/>
      <point x="289" y="794"/>
      <point x="473" y="974"/>
      <point x="643" y="974" type="curve" smooth="yes"/>
      <point x="799" y="974"/>
      <point x="851" y="846"/>
      <point x="825" y="628" type="curve"/>
    </contour>
  </outline>
  <guideline angle="82.9991" x="502" y="0"/>
</glyph>
<glyph name="i" format="2">
  <advance width="392"/>
  <unicode hex="0069"/>
  <anchor x="137" y="20" name="hook"/>
  <anchor x="265" y="1496" name="Top"/>
  <anchor x="265" y="1496" name="top"/>
  <anchor x="119" y="-70" name="bottom"/>
  <outline>
    <contour>
      <point x="232" y="980" type="line"/>
      <point x="112" y="0" type="line"/>
      <point x="134" y="0" type="line"/>
      <point x="254" y="980" type="line"/>
    </contour>
    <contour>
      <point x="332" y="1344" type="curve"/>
      <point x="332" y="1374"/>
      <point x="306" y="1400"/>
      <point x="280" y="1400" type="curve" smooth="yes"/>
      <point x="252" y="1400"/>
      <point x="228" y="1374"/>
      <point x="228" y="1344" type="curve" smooth="yes"/>
      <point x="228" y="1316"/>
      <point x="252" y="1290"/>
      <point x="280" y="1290" type="curve" smooth="yes"/>
      <point x="306" y="1290"/>
      <point x="332" y="1316"/>
    </contour>
  </outline>
  <guideline angle="90" x="213" y="0"/>
  <guideline angle="82.9991" x="100" y="0"/>
</glyph>
<glyph name="j" format="2">
  <advance width="391"/>
  <unicode hex="006A"/>
  <anchor x="194" y="532" name="bar"/>
  <anchor x="268" y="1496" name="Top"/>
  <anchor x="268" y="1496" name="top"/>
  <anchor x="75" y="-421" name="bottom"/>
  <outline>
    <contour>
      <point x="232" y="980" type="line"/>
      <point x="90" y="-172" type="line"/>
      <point x="76" y="-280"/>
      <point x="12" y="-354"/>
      <point x="-90" y="-354" type="curve" smooth="yes"/>
      <point x="-138" y="-354"/>
      <point x="-150" y="-322"/>
      <point x="-162" y="-344" type="curve"/>
      <point x="-166" y="-352" type="line"/>
      <point x="-146" y="-366"/>
      <point x="-124" y="-374"/>
      <point x="-92" y="-374" type="curve" smooth="yes"/>
      <point x="18" y="-374"/>
      <point x="98" y="-290"/>
      <point x="112" y="-172" type="curve" smooth="yes"/>
      <point x="254" y="980" type="line"/>
    </contour>
    <contour>
      <point x="338" y="1344" type="curve" smooth="yes"/>
      <point x="338" y="1374"/>
      <point x="312" y="1400"/>
      <point x="286" y="1400" type="curve" smooth="yes"/>
      <point x="258" y="1400"/>
      <point x="234" y="1374"/>
      <point x="234" y="1344" type="curve" smooth="yes"/>
      <point x="234" y="1316"/>
      <point x="258" y="1290"/>
      <point x="286" y="1290" type="curve" smooth="yes"/>
      <point x="312" y="1290"/>
      <point x="338" y="1316"/>
    </contour>
  </outline>
  <guideline angle="90" x="204" y="0"/>
  <guideline angle="82.9991" x="100" y="0"/>
</glyph>
<glyph name="k" format="2">
  <advance width="830"/>
  <unicode hex="006B"/>
  <anchor x="706" y="20" name="hook"/>
  <anchor x="279" y="1496" name="Top"/>
  <anchor x="279" y="1496" name="top"/>
  <anchor x="382" y="-70" name="bottom"/>
  <outline>
    <contour>
      <point x="276" y="1440" type="line"/>
      <point x="100" y="0" type="line"/>
      <point x="122" y="0" type="line"/>
      <point x="298" y="1440" type="line"/>
    </contour>
    <contour>
      <point x="178" y="536" type="line"/>
      <point x="176" y="518" type="line"/>
      <point x="222" y="518" type="line" smooth="yes"/>
      <point x="258" y="518"/>
      <point x="272" y="512"/>
      <point x="290" y="490" type="curve" smooth="yes"/>
      <point x="682" y="12" type="line" smooth="yes"/>
      <point x="690" y="2"/>
      <point x="698" y="0"/>
      <point x="708" y="0" type="curve" smooth="yes"/>
      <point x="724" y="0" type="line"/>
      <point x="308" y="504" type="line"/>
      <point x="294" y="520"/>
      <point x="278" y="534"/>
      <point x="242" y="534" type="curve"/>
      <point x="238" y="524" type="line"/>
      <point x="266" y="524"/>
      <point x="278" y="530"/>
      <point x="298" y="546" type="curve"/>
      <point x="808" y="980" type="line"/>
      <point x="792" y="980" type="line" smooth="yes"/>
      <point x="776" y="980"/>
      <point x="766" y="974"/>
      <point x="756" y="964" type="curve"/>
      <point x="278" y="554" type="line" smooth="yes"/>
      <point x="260" y="538"/>
      <point x="250" y="536"/>
      <point x="230" y="536" type="curve" smooth="yes"/>
    </contour>
  </outline>
  <guideline angle="82.9991" x="413" y="0"/>
</glyph>
<glyph name="l" format="2">
  <advance width="390"/>
  <unicode hex="006C"/>
  <anchor x="306" y="1496" name="Top"/>
  <anchor x="138" y="20" name="hook"/>
  <anchor x="117" y="-70" name="bottom"/>
  <anchor x="211" y="700" name="bar"/>
  <anchor x="306" y="1496" name="top"/>
  <outline>
    <contour>
      <point x="133" y="0" type="line"/>
      <point x="309" y="1440" type="line"/>
      <point x="287" y="1440" type="line"/>
      <point x="113" y="0" type="line"/>
    </contour>
  </outline>
  <guideline angle="82.9991" x="212" y="0"/>
</glyph>
<glyph name="n" format="2">
  <advance width="1009"/>
  <unicode hex="006E"/>
  <guideline x="503"/>
  <guideline x="100" y="0" angle="82.9991"/>
  <anchor x="559" y="1120" name="top"/>
  <anchor x="767" y="20" name="hook"/>
  <anchor x="434" y="-70" name="bottom"/>
  <outline>
    <contour>
      <point x="123" y="0" type="line"/>
      <point x="191" y="572" type="line"/>
      <point x="191" y="576" type="line"/>
      <point x="235" y="970" type="line"/>
      <point x="235" y="976"/>
      <point x="233" y="984"/>
      <point x="223" y="984" type="curve" smooth="yes"/>
      <point x="219" y="984" type="line"/>
      <point x="101" y="0" type="line"/>
    </contour>
    <contour>
      <point x="775" y="0" type="line"/>
      <point x="849" y="628" type="line"/>
      <point x="827" y="628" type="line"/>
      <point x="753" y="0" type="line"/>
    </contour>
    <contour>
      <point x="849" y="628" type="line"/>
      <point x="877" y="860"/>
      <point x="817" y="994"/>
      <point x="647" y="994" type="curve" smooth="yes"/>
      <point x="465" y="994"/>
      <point x="273" y="812"/>
      <point x="171" y="534" type="curve"/>
      <point x="175" y="510" type="line"/>
      <point x="289" y="794"/>
      <point x="473" y="974"/>
      <point x="645" y="974" type="curve" smooth="yes"/>
      <point x="801" y="974"/>
      <point x="853" y="846"/>
      <point x="827" y="628" type="curve"/>
    </contour>
  </outline>
</glyph>
<glyph name="p" format="2">
  <advance width="1010"/>
  <unicode hex="0070"/>
  <guideline x="492" y="0" angle="82.9991"/>
  <anchor x="527" y="20" name="hook"/>
  <anchor x="85" y="-157" name="bar"/>
  <anchor x="602" y="44" name="tick"/>
  <anchor x="515" y="1120" name="top"/>
  <anchor x="295" y="-421" name="bottom"/>
  <outline>
    <contour>
      <point x="78" y="-360" type="line"/>
      <point x="188" y="538" type="line"/>
      <point x="188" y="542" type="line"/>
      <point x="236" y="970" type="line"/>
      <point x="236" y="976"/>
      <point x="234" y="984"/>
      <point x="224" y="984" type="curve" smooth="yes"/>
      <point x="220" y="984" type="line"/>
      <point x="56" y="-360" type="line"/>
    </contour>
    <contour>
      <point x="134" y="180" type="line"/>
      <point x="186" y="50"/>
      <point x="300" y="-12"/>
      <point x="420" y="-12" type="curve" smooth="yes"/>
      <point x="718" y="-12"/>
      <point x="898" y="372"/>
      <point x="898" y="658" type="curve" smooth="yes"/>
      <point x="898" y="850"/>
      <point x="818" y="994"/>
      <point x="644" y="994" type="curve" smooth="yes"/>
      <point x="452" y="994"/>
      <point x="264" y="780"/>
      <point x="164" y="484" type="curve"/>
      <point x="170" y="460" type="line"/>
      <point x="282" y="776"/>
      <point x="464" y="974"/>
      <point x="644" y="974" type="curve" smooth="yes"/>
      <point x="796" y="974"/>
      <point x="876" y="852"/>
      <point x="876" y="658" type="curve" smooth="yes"/>
      <point x="876" y="382"/>
      <point x="710" y="8"/>
      <point x="422" y="8" type="curve" smooth="yes"/>
      <point x="308" y="8"/>
      <point x="200" y="62"/>
      <point x="138" y="212" type="curve"/>
    </contour>
  </outline>
</glyph>
<glyph name="q" format="2">
  <advance width="977"/>
  <unicode hex="0071"/>
  <guideline x="477" y="0" angle="82.9991"/>
  <anchor x="651" y="1120" name="top"/>
  <anchor x="414" y="-421" name="bottom"/>
  <outline>
    <contour>
      <point x="691" y="-360" type="line"/>
      <point x="849" y="944" type="line"/>
      <point x="827" y="944" type="line"/>
      <point x="669" y="-326" type="line" smooth="yes"/>
      <point x="665" y="-354"/>
      <point x="671" y="-360"/>
      <point x="687" y="-360" type="curve" smooth="yes"/>
    </contour>
    <contour>
      <point x="849" y="944" type="line"/>
      <point x="793" y="980"/>
      <point x="735" y="992"/>
      <point x="663" y="992" type="curve" smooth="yes"/>
      <point x="359" y="992"/>
      <point x="83" y="662"/>
      <point x="83" y="326" type="curve" smooth="yes"/>
      <point x="83" y="130"/>
      <point x="151" y="-12"/>
      <point x="323" y="-12" type="curve" smooth="yes"/>
      <point x="517" y="-12"/>
      <point x="691" y="204"/>
      <point x="791" y="500" type="curve"/>
      <point x="785" y="524" type="line"/>
      <point x="673" y="208"/>
      <point x="503" y="8"/>
      <point x="323" y="8" type="curve" smooth="yes"/>
      <point x="171" y="8"/>
      <point x="107" y="132"/>
      <point x="107" y="326" type="curve" smooth="yes"/>
      <point x="107" y="656"/>
      <point x="375" y="972"/>
      <point x="663" y="972" type="curve" smooth="yes"/>
      <point x="731" y="972"/>
      <point x="789" y="958"/>
      <point x="843" y="924" type="curve"/>
    </contour>
  </outline>
</glyph>
<glyph name="r" format="2">
  <advance width="634"/>
  <unicode hex="0072"/>
  <guideline x="323" y="0" angle="82.9991"/>
  <anchor x="445" y="1120" name="top"/>
  <anchor x="95" y="-70" name="bottom"/>
  <anchor x="117" y="20" name="hook"/>
  <anchor x="169" y="532" name="bar"/>
  <outline>
    <contour>
      <point x="123" y="0" type="line"/>
      <point x="191" y="572" type="line"/>
      <point x="191" y="576" type="line"/>
      <point x="235" y="970" type="line"/>
      <point x="235" y="976"/>
      <point x="233" y="984"/>
      <point x="223" y="984" type="curve" smooth="yes"/>
      <point x="219" y="984" type="line"/>
      <point x="101" y="0" type="line"/>
    </contour>
    <contour>
      <point x="175" y="510" type="line"/>
      <point x="285" y="846"/>
      <point x="447" y="1030"/>
      <point x="641" y="958" type="curve"/>
      <point x="645" y="976" type="line"/>
      <point x="453" y="1048"/>
      <point x="279" y="880"/>
      <point x="169" y="534" type="curve"/>
    </contour>
  </outline>
</glyph>
<glyph name="t" format="2">
  <advance width="659"/>
  <unicode hex="0074"/>
  <anchor x="300" y="-70" name="bottom"/>
  <anchor x="329" y="700" name="Slash"/>
  <anchor x="216" y="532" name="bar"/>
  <anchor x="331" y="1400" name="top"/>
  <outline>
    <contour>
      <point x="257" y="928" type="line"/>
      <point x="181" y="302" type="line" smooth="yes"/>
      <point x="167" y="190"/>
      <point x="165" y="160"/>
      <point x="165" y="146" type="curve" smooth="yes"/>
      <point x="165" y="32"/>
      <point x="219" y="-16"/>
      <point x="311" y="-16" type="curve" smooth="yes"/>
      <point x="381" y="-16"/>
      <point x="457" y="24"/>
      <point x="501" y="78" type="curve"/>
      <point x="499" y="82" type="line" smooth="yes"/>
      <point x="498" y="84"/>
      <point x="495" y="86"/>
      <point x="491" y="86" type="curve" smooth="yes"/>
      <point x="477" y="86"/>
      <point x="417" y="4"/>
      <point x="313" y="4" type="curve" smooth="yes"/>
      <point x="241" y="4"/>
      <point x="187" y="44"/>
      <point x="187" y="146" type="curve" smooth="yes"/>
      <point x="187" y="158"/>
      <point x="189" y="192"/>
      <point x="203" y="300" type="curve"/>
      <point x="331" y="1346" type="line"/>
      <point x="325" y="1346" type="line" smooth="yes"/>
      <point x="319" y="1346"/>
      <point x="314" y="1338"/>
      <point x="313" y="1332" type="curve"/>
    </contour>
    <contour>
      <point x="277" y="938" type="line"/>
      <point x="263" y="938" type="line"/>
      <point x="97" y="934" type="line"/>
      <point x="95" y="928" type="line"/>
      <point x="95" y="922"/>
      <point x="99" y="918"/>
      <point x="107" y="918" type="curve" smooth="yes"/>
      <point x="585" y="918" type="line"/>
      <point x="587" y="938" type="line"/>
    </contour>
  </outline>
  <guideline angle="82.9991" x="317" y="0"/>
</glyph>
<glyph name="u" format="2">
  <advance width="1009"/>
  <unicode hex="0075"/>
  <anchor x="573" y="1120" name="top"/>
  <anchor x="768" y="20" name="hook"/>
  <anchor x="482" y="-70" name="bottom"/>
  <outline>
    <contour>
      <point x="860" y="980" type="line"/>
      <point x="792" y="412" type="line"/>
      <point x="792" y="394" type="line"/>
      <point x="746" y="14" type="line"/>
      <point x="746" y="8"/>
      <point x="748" y="0"/>
      <point x="758" y="0" type="curve" smooth="yes"/>
      <point x="764" y="0" type="line"/>
      <point x="882" y="980" type="line"/>
    </contour>
    <contour>
      <point x="208" y="980" type="line"/>
      <point x="134" y="356" type="line"/>
      <point x="156" y="356" type="line"/>
      <point x="230" y="980" type="line"/>
    </contour>
    <contour>
      <point x="134" y="356" type="line"/>
      <point x="106" y="124"/>
      <point x="166" y="-12"/>
      <point x="336" y="-12" type="curve" smooth="yes"/>
      <point x="518" y="-12"/>
      <point x="710" y="172"/>
      <point x="812" y="450" type="curve"/>
      <point x="808" y="474" type="line"/>
      <point x="694" y="190"/>
      <point x="510" y="8"/>
      <point x="338" y="8" type="curve" smooth="yes"/>
      <point x="182" y="8"/>
      <point x="130" y="138"/>
      <point x="156" y="356" type="curve"/>
    </contour>
  </outline>
  <guideline angle="82.9991" x="498" y="0"/>
</glyph>
<glyph name="v" format="2">
  <advance width="900"/>
  <unicode hex="0076"/>
  <guideline x="430" y="0" angle="82.9991"/>
  <anchor x="403" y="20" name="hook"/>
  <anchor x="509" y="1120" name="top"/>
  <anchor x="374" y="-70" name="bottom"/>
  <outline>
    <contour>
      <point x="370" y="0" type="line"/>
      <point x="382" y="0" type="line"/>
      <point x="382" y="24"/>
      <point x="380" y="46"/>
      <point x="374" y="68" type="curve" smooth="yes"/>
      <point x="126" y="966" type="line"/>
      <point x="124" y="972"/>
      <point x="120" y="980"/>
      <point x="110" y="980" type="curve" smooth="yes"/>
      <point x="98" y="980" type="line"/>
    </contour>
    <contour>
      <point x="898" y="980" type="line"/>
      <point x="886" y="980" type="line" smooth="yes"/>
      <point x="877" y="980"/>
      <point x="870" y="974"/>
      <point x="866" y="966" type="curve" smooth="yes"/>
      <point x="398" y="68" type="line" smooth="yes"/>
      <point x="386" y="44"/>
      <point x="378" y="24"/>
      <point x="374" y="0" type="curve"/>
      <point x="386" y="0" type="line"/>
    </contour>
  </outline>
</glyph>
<glyph name="w" format="2">
  <advance width="1379"/>
  <unicode hex="0077"/>
  <guideline x="657" y="0" angle="82.9991"/>
  <anchor x="774" y="1120" name="top"/>
  <anchor x="613" y="-70" name="bottom"/>
  <outline>
    <contour>
      <point x="298" y="0" type="line"/>
      <point x="308" y="0" type="line" smooth="yes"/>
      <point x="312" y="0"/>
      <point x="316" y="4"/>
      <point x="318" y="10" type="curve"/>
      <point x="722" y="922" type="line"/>
      <point x="730" y="938"/>
      <point x="734" y="952"/>
      <point x="738" y="968" type="curve"/>
      <point x="734" y="968" type="line"/>
      <point x="734" y="952"/>
      <point x="734" y="938"/>
      <point x="738" y="922" type="curve"/>
      <point x="916" y="10" type="line"/>
      <point x="916" y="4"/>
      <point x="920" y="0"/>
      <point x="926" y="0" type="curve" smooth="yes"/>
      <point x="936" y="0" type="line"/>
      <point x="1364" y="980" type="line"/>
      <point x="1352" y="980" type="line" smooth="yes"/>
      <point x="1344" y="980"/>
      <point x="1338" y="974"/>
      <point x="1334" y="966" type="curve"/>
      <point x="948" y="68" type="line" smooth="yes"/>
      <point x="938" y="44"/>
      <point x="926" y="28"/>
      <point x="922" y="4" type="curve"/>
      <point x="930" y="2" type="line"/>
      <point x="930" y="26"/>
      <point x="928" y="46"/>
      <point x="924" y="68" type="curve" smooth="yes"/>
      <point x="748" y="976" type="line"/>
      <point x="748" y="982"/>
      <point x="746" y="986"/>
      <point x="740" y="986" type="curve" smooth="yes"/>
      <point x="736" y="986" type="line" smooth="yes"/>
      <point x="730" y="986"/>
      <point x="726" y="982"/>
      <point x="724" y="976" type="curve"/>
      <point x="326" y="68" type="line" smooth="yes"/>
      <point x="316" y="46"/>
      <point x="308" y="28"/>
      <point x="304" y="4" type="curve"/>
      <point x="310" y="4" type="line"/>
      <point x="310" y="28"/>
      <point x="308" y="46"/>
      <point x="304" y="68" type="curve" smooth="yes"/>
      <point x="136" y="966" type="line" smooth="yes"/>
      <point x="134" y="976"/>
      <point x="130" y="980"/>
      <point x="120" y="980" type="curve" smooth="yes"/>
      <point x="110" y="980" type="line"/>
    </contour>
  </outline>
</glyph>
<glyph name="x" format="2">
  <advance width="824"/>
  <unicode hex="0078"/>
  <anchor x="680" y="20" name="hook"/>
  <anchor x="471" y="1120" name="top"/>
  <anchor x="336" y="-70" name="bottom"/>
  <outline>
    <contour>
      <point x="396" y="514" type="line"/>
      <point x="420" y="514" type="line"/>
      <point x="164" y="972" type="line"/>
      <point x="160" y="978"/>
      <point x="156" y="980"/>
      <point x="146" y="980" type="curve" smooth="yes"/>
      <point x="134" y="980" type="line"/>
    </contour>
    <contour>
      <point x="786" y="980" type="line"/>
      <point x="768" y="980" type="line" smooth="yes"/>
      <point x="762" y="980"/>
      <point x="758" y="978"/>
      <point x="754" y="972" type="curve"/>
      <point x="416" y="546" type="line" smooth="yes"/>
      <point x="406" y="534"/>
      <point x="402" y="526"/>
      <point x="400" y="514" type="curve"/>
      <point x="414" y="514" type="line"/>
    </contour>
    <contour>
      <point x="414" y="526" type="line"/>
      <point x="390" y="526" type="line"/>
      <point x="674" y="10" type="line"/>
      <point x="678" y="2"/>
      <point x="684" y="0"/>
      <point x="694" y="0" type="curve" smooth="yes"/>
      <point x="706" y="0" type="line"/>
    </contour>
    <contour>
      <point x="-26" y="0" type="line"/>
      <point x="-10" y="0" type="line" smooth="yes"/>
      <point x="-2" y="0"/>
      <point x="2" y="2"/>
      <point x="8" y="8" type="curve"/>
      <point x="392" y="494" type="line" smooth="yes"/>
      <point x="402" y="506"/>
      <point x="404" y="512"/>
      <point x="408" y="526" type="curve"/>
      <point x="396" y="526" type="line"/>
    </contour>
  </outline>
  <guideline angle="82.9991" x="391" y="0"/>
</glyph>
<glyph name="y" format="2">
  <advance width="903"/>
  <unicode hex="0079"/>
  <guideline x="430" y="0" angle="82.9991"/>
  <anchor x="542" y="1120" name="top"/>
  <anchor x="302" y="-421" name="bottom"/>
  <outline>
    <contour>
      <point x="375" y="8" type="line"/>
      <point x="387" y="8" type="line"/>
      <point x="387" y="32"/>
      <point x="385" y="54"/>
      <point x="379" y="76" type="curve" smooth="yes"/>
      <point x="129" y="966" type="line"/>
      <point x="127" y="976"/>
      <point x="123" y="980"/>
      <point x="113" y="980" type="curve" smooth="yes"/>
      <point x="101" y="980" type="line"/>
    </contour>
    <contour>
      <point x="903" y="980" type="line"/>
      <point x="889" y="980" type="line" smooth="yes"/>
      <point x="883" y="980"/>
      <point x="877" y="978"/>
      <point x="873" y="970" type="curve" smooth="yes"/>
      <point x="403" y="76" type="line" smooth="yes"/>
      <point x="393" y="56"/>
      <point x="383" y="34"/>
      <point x="379" y="14" type="curve"/>
      <point x="375" y="22" type="line"/>
      <point x="171" y="-360" type="line"/>
      <point x="183" y="-360" type="line" smooth="yes"/>
      <point x="193" y="-360"/>
      <point x="199" y="-356"/>
      <point x="205" y="-344" type="curve" smooth="yes"/>
    </contour>
  </outline>
</glyph>
<glyph name="z" format="2">
  <advance width="809"/>
  <unicode hex="007A"/>
  <guideline x="410" y="0" angle="82.9991"/>
  <anchor x="485" y="1120" name="top"/>
  <anchor x="326" y="-70" name="bottom"/>
  <anchor x="627" y="20" name="hook"/>
  <outline>
    <contour>
      <point x="785" y="980" type="line"/>
      <point x="149" y="980" type="line"/>
      <point x="145" y="960" type="line"/>
      <point x="763" y="960" type="line"/>
      <point x="757" y="966" type="line"/>
      <point x="5" y="20" type="line"/>
      <point x="1" y="16"/>
      <point x="-3" y="12"/>
      <point x="-3" y="6" type="curve" smooth="yes"/>
      <point x="-3" y="0" type="line"/>
      <point x="637" y="0" type="line"/>
      <point x="639" y="20" type="line"/>
      <point x="17" y="20" type="line"/>
      <point x="23" y="12" type="line"/>
      <point x="775" y="958" type="line"/>
      <point x="781" y="964"/>
      <point x="783" y="966"/>
      <point x="783" y="970" type="curve"/>
    </contour>
  </outline>
</glyph>
<glyph name="braceleft" format="2">
  <advance width="542"/>
  <unicode hex="007B"/>
  <outline>
    <contour>
      <point x="281" y="868" type="curve" smooth="yes"/>
      <point x="281" y="714"/>
      <point x="197" y="640"/>
      <point x="99" y="640" type="curve"/>
      <point x="97" y="620" type="line"/>
      <point x="121" y="628" type="line"/>
      <point x="187" y="628"/>
      <point x="303" y="690"/>
      <point x="303" y="866" type="curve" smooth="yes"/>
      <point x="303" y="958"/>
      <point x="285" y="1078"/>
      <point x="285" y="1174" type="curve" smooth="yes"/>
      <point x="285" y="1376"/>
      <point x="393" y="1484"/>
      <point x="519" y="1484" type="curve" smooth="yes"/>
      <point x="559" y="1484" type="line"/>
      <point x="567" y="1484"/>
      <point x="571" y="1488"/>
      <point x="573" y="1494" type="curve"/>
      <point x="573" y="1502" type="line"/>
      <point x="521" y="1502" type="line" smooth="yes"/>
      <point x="377" y="1502"/>
      <point x="263" y="1372"/>
      <point x="263" y="1174" type="curve" smooth="yes"/>
      <point x="263" y="1078"/>
      <point x="281" y="964"/>
    </contour>
    <contour>
      <point x="237" y="480" type="curve"/>
      <point x="237" y="308"/>
      <point x="115" y="168"/>
      <point x="115" y="-18" type="curve" smooth="yes"/>
      <point x="115" y="-142"/>
      <point x="189" y="-242"/>
      <point x="307" y="-242" type="curve" smooth="yes"/>
      <point x="359" y="-242" type="line"/>
      <point x="361" y="-234" type="line"/>
      <point x="361" y="-228"/>
      <point x="357" y="-224"/>
      <point x="351" y="-224" type="curve" smooth="yes"/>
      <point x="309" y="-224" type="line" smooth="yes"/>
      <point x="207" y="-224"/>
      <point x="137" y="-142"/>
      <point x="137" y="-20" type="curve" smooth="yes"/>
      <point x="137" y="160"/>
      <point x="257" y="316"/>
      <point x="257" y="482" type="curve" smooth="yes"/>
      <point x="257" y="582"/>
      <point x="179" y="632"/>
      <point x="121" y="632" type="curve"/>
      <point x="99" y="640" type="line"/>
      <point x="97" y="620" type="line"/>
      <point x="179" y="620"/>
      <point x="237" y="562"/>
    </contour>
  </outline>
  <guideline angle="0" x="0" y="630"/>
  <guideline angle="82.9991" x="276" y="0"/>
</glyph>
<glyph name="bar" format="2">
  <advance width="467"/>
  <unicode hex="007C"/>
  <guideline x="300" y="0" angle="82.9991"/>
  <outline>
    <contour>
      <point x="221" y="-360" type="line"/>
      <point x="241" y="-360" type="line"/>
      <point x="241" y="1502" type="line"/>
      <point x="221" y="1502" type="line"/>
    </contour>
  </outline>
</glyph>
<glyph name="braceright" format="2">
  <advance width="544"/>
  <unicode hex="007D"/>
  <guideline y="630"/>
  <guideline x="276" y="0" angle="82.9991"/>
  <outline>
    <contour>
      <point x="317" y="780" type="curve"/>
      <point x="317" y="952"/>
      <point x="437" y="1092"/>
      <point x="437" y="1278" type="curve" smooth="yes"/>
      <point x="437" y="1402"/>
      <point x="363" y="1502"/>
      <point x="245" y="1502" type="curve" smooth="yes"/>
      <point x="193" y="1502" type="line"/>
      <point x="193" y="1494" type="line"/>
      <point x="191" y="1488"/>
      <point x="195" y="1484"/>
      <point x="203" y="1484" type="curve" smooth="yes"/>
      <point x="243" y="1484" type="line" smooth="yes"/>
      <point x="345" y="1484"/>
      <point x="415" y="1402"/>
      <point x="415" y="1280" type="curve" smooth="yes"/>
      <point x="415" y="1100"/>
      <point x="295" y="944"/>
      <point x="295" y="778" type="curve" smooth="yes"/>
      <point x="295" y="678"/>
      <point x="373" y="628"/>
      <point x="433" y="628" type="curve"/>
      <point x="453" y="620" type="line"/>
      <point x="457" y="640" type="line"/>
      <point x="373" y="640"/>
      <point x="317" y="698"/>
    </contour>
    <contour>
      <point x="271" y="392" type="curve"/>
      <point x="271" y="546"/>
      <point x="357" y="620"/>
      <point x="453" y="620" type="curve"/>
      <point x="457" y="640" type="line"/>
      <point x="433" y="632" type="line"/>
      <point x="365" y="632"/>
      <point x="251" y="570"/>
      <point x="251" y="394" type="curve" smooth="yes"/>
      <point x="251" y="302"/>
      <point x="267" y="182"/>
      <point x="267" y="86" type="curve" smooth="yes"/>
      <point x="267" y="-116"/>
      <point x="159" y="-224"/>
      <point x="33" y="-224" type="curve" smooth="yes"/>
      <point x="-7" y="-224" type="line" smooth="yes"/>
      <point x="-15" y="-224"/>
      <point x="-19" y="-228"/>
      <point x="-19" y="-234" type="curve"/>
      <point x="-21" y="-242" type="line"/>
      <point x="31" y="-242" type="line" smooth="yes"/>
      <point x="175" y="-242"/>
      <point x="289" y="-112"/>
      <point x="289" y="86" type="curve" smooth="yes"/>
      <point x="289" y="182"/>
      <point x="271" y="296"/>
    </contour>
  </outline>
</glyph>
<glyph name="asciitilde" format="2">
  <advance width="1160"/>
  <unicode hex="007E"/>
  <outline>
    <contour>
      <point x="797" y="528" type="curve"/>
      <point x="669" y="528"/>
      <point x="501" y="672"/>
      <point x="365" y="672" type="curve"/>
      <point x="235" y="672"/>
      <point x="161" y="568"/>
      <point x="161" y="452" type="curve"/>
      <point x="181" y="452" type="line"/>
      <point x="183" y="564"/>
      <point x="253" y="652"/>
      <point x="365" y="652" type="curve" smooth="yes"/>
      <point x="493" y="652"/>
      <point x="661" y="508"/>
      <point x="797" y="508" type="curve"/>
      <point x="927" y="508"/>
      <point x="1001" y="612"/>
      <point x="1001" y="728" type="curve"/>
      <point x="981" y="728" type="line"/>
      <point x="979" y="616"/>
      <point x="909" y="528"/>
    </contour>
  </outline>
  <guideline angle="82.9991" x="580" y="0"/>
</glyph>
<glyph name="exclamdown" format="2">
  <advance width="398"/>
  <unicode hex="00A1"/>
  <outline>
    <contour>
      <point x="94" y="-360" type="line"/>
      <point x="162" y="198" type="line" smooth="yes"/>
      <point x="176" y="316"/>
      <point x="184" y="392"/>
      <point x="200" y="550" type="curve"/>
      <point x="186" y="550" type="line"/>
      <point x="164" y="392"/>
      <point x="152" y="316"/>
      <point x="138" y="198" type="curve" smooth="yes"/>
      <point x="70" y="-360" type="line"/>
    </contour>
    <contour>
      <point x="170" y="930" type="curve" smooth="yes"/>
      <point x="170" y="894"/>
      <point x="198" y="866"/>
      <point x="234" y="866" type="curve" smooth="yes"/>
      <point x="270" y="866"/>
      <point x="300" y="894"/>
      <point x="300" y="930" type="curve" smooth="yes"/>
      <point x="300" y="966"/>
      <point x="270" y="996"/>
      <point x="234" y="996" type="curve" smooth="yes"/>
      <point x="198" y="996"/>
      <point x="170" y="966"/>
    </contour>
  </outline>
  <guideline angle="90" x="281" y="0"/>
  <guideline angle="82.9991" x="100" y="0"/>
</glyph>
<glyph name="cent" format="2">
  <advance width="1160"/>
  <unicode hex="00A2"/>
  <outline>
    <contour>
      <point x="999" y="894" type="line"/>
      <point x="935" y="954"/>
      <point x="837" y="996"/>
      <point x="707" y="996" type="curve" smooth="yes"/>
      <point x="377" y="996"/>
      <point x="169" y="760"/>
      <point x="169" y="410" type="curve" smooth="yes"/>
      <point x="169" y="148"/>
      <point x="317" y="-12"/>
      <point x="565" y="-12" type="curve" smooth="yes"/>
      <point x="733" y="-12"/>
      <point x="873" y="58"/>
      <point x="921" y="116" type="curve"/>
      <point x="917" y="120" type="line" smooth="yes"/>
      <point x="915" y="122"/>
      <point x="915" y="124"/>
      <point x="911" y="124" type="curve" smooth="yes"/>
      <point x="895" y="124"/>
      <point x="797" y="8"/>
      <point x="567" y="8" type="curve" smooth="yes"/>
      <point x="337" y="8"/>
      <point x="193" y="158"/>
      <point x="193" y="412" type="curve" smooth="yes"/>
      <point x="193" y="756"/>
      <point x="393" y="976"/>
      <point x="705" y="976" type="curve" smooth="yes"/>
      <point x="903" y="976"/>
      <point x="967" y="884"/>
      <point x="983" y="884" type="curve" smooth="yes"/>
      <point x="987" y="884"/>
      <point x="989" y="886"/>
      <point x="993" y="888" type="curve"/>
    </contour>
    <contour>
      <point x="511" y="-268" type="line"/>
      <point x="521" y="-268" type="line" smooth="yes"/>
      <point x="529" y="-268"/>
      <point x="533" y="-262"/>
      <point x="535" y="-252" type="curve"/>
      <point x="767" y="1242" type="line"/>
      <point x="757" y="1242" type="line" smooth="yes"/>
      <point x="749" y="1242"/>
      <point x="745" y="1236"/>
      <point x="743" y="1226" type="curve"/>
    </contour>
  </outline>
  <guideline angle="82.9991" x="580" y="0"/>
</glyph>
<glyph name="sterling" format="2">
  <advance width="1160"/>
  <unicode hex="00A3"/>
  <outline>
    <contour>
      <point x="1024" y="22" type="line"/>
      <point x="142" y="22" type="line" smooth="yes"/>
      <point x="110" y="22"/>
      <point x="84" y="22"/>
      <point x="48" y="16" type="curve"/>
      <point x="34" y="22" type="line"/>
      <point x="32" y="0" type="line"/>
      <point x="1008" y="0" type="line" smooth="yes"/>
      <point x="1016" y="0"/>
      <point x="1024" y="6"/>
      <point x="1024" y="12" type="curve" smooth="yes"/>
    </contour>
    <contour>
      <point x="830" y="660" type="curve"/>
      <point x="830" y="668" type="line"/>
      <point x="102" y="668" type="line"/>
      <point x="92" y="668"/>
      <point x="88" y="664"/>
      <point x="87" y="656" type="curve" smooth="yes"/>
      <point x="86" y="648" type="line"/>
      <point x="814" y="648" type="line"/>
      <point x="824" y="648"/>
      <point x="828" y="652"/>
    </contour>
    <contour>
      <point x="50" y="10" type="line"/>
      <point x="170" y="60"/>
      <point x="232" y="124"/>
      <point x="250" y="270" type="curve" smooth="yes"/>
      <point x="338" y="992" type="line" smooth="yes"/>
      <point x="367" y="1228"/>
      <point x="524" y="1396"/>
      <point x="764" y="1396" type="curve" smooth="yes"/>
      <point x="968" y="1396"/>
      <point x="1026" y="1298"/>
      <point x="1066" y="1202" type="curve" smooth="yes"/>
      <point x="1070" y="1192"/>
      <point x="1074" y="1190"/>
      <point x="1082" y="1192" type="curve"/>
      <point x="1092" y="1194" type="line"/>
      <point x="1056" y="1314"/>
      <point x="974" y="1416"/>
      <point x="766" y="1416" type="curve" smooth="yes"/>
      <point x="510" y="1416"/>
      <point x="344" y="1238"/>
      <point x="314" y="992" type="curve" smooth="yes"/>
      <point x="226" y="270" type="line"/>
      <point x="206" y="116"/>
      <point x="134" y="64"/>
      <point x="34" y="22" type="curve"/>
    </contour>
  </outline>
  <guideline angle="82.9991" x="580" y="0"/>
</glyph>
<glyph name="yen" format="2">
  <advance width="1160"/>
  <unicode hex="00A5"/>
  <outline>
    <contour>
      <point x="1129" y="1400" type="line"/>
      <point x="1109" y="1400" type="line" smooth="yes"/>
      <point x="1103" y="1400"/>
      <point x="1099" y="1398"/>
      <point x="1093" y="1392" type="curve"/>
      <point x="595" y="642" type="line"/>
      <point x="585" y="626"/>
      <point x="577" y="616"/>
      <point x="567" y="592" type="curve"/>
      <point x="585" y="592" type="line"/>
    </contour>
    <contour>
      <point x="565" y="592" type="line"/>
      <point x="583" y="592" type="line"/>
      <point x="581" y="616"/>
      <point x="573" y="626"/>
      <point x="567" y="642" type="curve"/>
      <point x="253" y="1392" type="line"/>
      <point x="251" y="1398"/>
      <point x="247" y="1400"/>
      <point x="241" y="1400" type="curve" smooth="yes"/>
      <point x="221" y="1400" type="line"/>
    </contour>
    <contour>
      <point x="589" y="608" type="line"/>
      <point x="565" y="608" type="line"/>
      <point x="491" y="0" type="line"/>
      <point x="515" y="0" type="line"/>
    </contour>
    <contour>
      <point x="157" y="440" type="line"/>
      <point x="957" y="440" type="line"/>
      <point x="959" y="460" type="line"/>
      <point x="159" y="460" type="line"/>
    </contour>
    <contour>
      <point x="175" y="588" type="line"/>
      <point x="975" y="588" type="line"/>
      <point x="977" y="608" type="line"/>
      <point x="177" y="608" type="line"/>
    </contour>
  </outline>
  <guideline angle="82.9991" x="580" y="0"/>
</glyph>
<glyph name="brokenbar" format="2">
  <advance width="468"/>
  <unicode hex="00A6"/>
  <guideline x="300" y="0" angle="82.9991"/>
  <outline>
    <contour>
      <point x="221" y="740" type="line"/>
      <point x="241" y="740" type="line"/>
      <point x="241" y="1502" type="line"/>
      <point x="221" y="1502" type="line"/>
    </contour>
    <contour>
      <point x="221" y="-360" type="line"/>
      <point x="241" y="-360" type="line"/>
      <point x="241" y="402" type="line"/>
      <point x="221" y="402" type="line"/>
    </contour>
  </outline>
</glyph>
<glyph name="section" format="2">
  <advance width="886"/>
  <unicode hex="00A7"/>
  <outline>
    <contour>
      <point x="383" y="976" type="line"/>
      <point x="199" y="914"/>
      <point x="137" y="814"/>
      <point x="137" y="704" type="curve" smooth="yes"/>
      <point x="137" y="428"/>
      <point x="647" y="444"/>
      <point x="647" y="176" type="curve" smooth="yes"/>
      <point x="647" y="20"/>
      <point x="533" y="-116"/>
      <point x="339" y="-116" type="curve" smooth="yes"/>
      <point x="163" y="-116"/>
      <point x="117" y="-6"/>
      <point x="95" y="-6" type="curve" smooth="yes"/>
      <point x="89" y="-6"/>
      <point x="87" y="-8"/>
      <point x="83" y="-12" type="curve" smooth="yes"/>
      <point x="77" y="-18" type="line"/>
      <point x="141" y="-90"/>
      <point x="209" y="-136"/>
      <point x="337" y="-136" type="curve" smooth="yes"/>
      <point x="541" y="-136"/>
      <point x="669" y="12"/>
      <point x="669" y="180" type="curve" smooth="yes"/>
      <point x="669" y="462"/>
      <point x="159" y="456"/>
      <point x="159" y="708" type="curve" smooth="yes"/>
      <point x="159" y="812"/>
      <point x="217" y="894"/>
      <point x="389" y="962" type="curve"/>
    </contour>
    <contour>
      <point x="805" y="1320" type="line"/>
      <point x="741" y="1388"/>
      <point x="671" y="1416"/>
      <point x="571" y="1416" type="curve" smooth="yes"/>
      <point x="395" y="1416"/>
      <point x="259" y="1286"/>
      <point x="259" y="1142" type="curve" smooth="yes"/>
      <point x="259" y="872"/>
      <point x="739" y="904"/>
      <point x="739" y="622" type="curve" smooth="yes"/>
      <point x="739" y="510"/>
      <point x="687" y="424"/>
      <point x="553" y="364" type="curve"/>
      <point x="565" y="350" type="line"/>
      <point x="685" y="404"/>
      <point x="761" y="492"/>
      <point x="761" y="626" type="curve" smooth="yes"/>
      <point x="761" y="920"/>
      <point x="281" y="898"/>
      <point x="281" y="1146" type="curve" smooth="yes"/>
      <point x="281" y="1278"/>
      <point x="405" y="1396"/>
      <point x="567" y="1396" type="curve" smooth="yes"/>
      <point x="729" y="1396"/>
      <point x="771" y="1308"/>
      <point x="791" y="1308" type="curve" smooth="yes"/>
      <point x="795" y="1308"/>
      <point x="799" y="1310"/>
      <point x="801" y="1314" type="curve"/>
    </contour>
  </outline>
  <guideline angle="82.9991" x="459" y="0"/>
</glyph>
<glyph name="dieresis" format="2">
  <advance width="736"/>
  <unicode hex="00A8"/>
  <anchor x="400" y="1120" name="_top"/>
  <anchor x="400" y="1400" name="top"/>
  <outline>
    <contour>
      <point x="422" y="1280" type="curve" smooth="yes"/>
      <point x="422" y="1310"/>
      <point x="394" y="1336"/>
      <point x="366" y="1336" type="curve" smooth="yes"/>
      <point x="336" y="1336"/>
      <point x="310" y="1310"/>
      <point x="310" y="1280" type="curve" smooth="yes"/>
      <point x="310" y="1252"/>
      <point x="336" y="1226"/>
      <point x="366" y="1226" type="curve" smooth="yes"/>
      <point x="394" y="1226"/>
      <point x="422" y="1252"/>
    </contour>
    <contour>
      <point x="730" y="1280" type="curve" smooth="yes"/>
      <point x="730" y="1310"/>
      <point x="702" y="1336"/>
      <point x="674" y="1336" type="curve" smooth="yes"/>
      <point x="644" y="1336"/>
      <point x="618" y="1310"/>
      <point x="618" y="1280" type="curve" smooth="yes"/>
      <point x="618" y="1252"/>
      <point x="644" y="1226"/>
      <point x="674" y="1226" type="curve" smooth="yes"/>
      <point x="702" y="1226"/>
      <point x="730" y="1252"/>
    </contour>
  </outline>
  <guideline angle="82.9991" x="368" y="0"/>
</glyph>
<glyph name="copyright" format="2">
  <advance width="1690"/>
  <unicode hex="00A9"/>
  <guideline x="794" y="0" angle="82.9991"/>
  <outline>
    <contour>
      <point x="1180" y="384" type="curve"/>
      <point x="1098" y="314"/>
      <point x="1020" y="276"/>
      <point x="868" y="276" type="curve" smooth="yes"/>
      <point x="632" y="276"/>
      <point x="458" y="434"/>
      <point x="458" y="700" type="curve" smooth="yes"/>
      <point x="458" y="962"/>
      <point x="632" y="1126"/>
      <point x="882" y="1126" type="curve" smooth="yes"/>
      <point x="1084" y="1126"/>
      <point x="1152" y="1034"/>
      <point x="1168" y="1034" type="curve" smooth="yes"/>
      <point x="1172" y="1034"/>
      <point x="1176" y="1034"/>
      <point x="1178" y="1038" type="curve"/>
      <point x="1182" y="1044" type="line"/>
      <point x="1096" y="1112"/>
      <point x="1018" y="1146"/>
      <point x="882" y="1146" type="curve" smooth="yes"/>
      <point x="616" y="1146"/>
      <point x="434" y="966"/>
      <point x="434" y="700" type="curve" smooth="yes"/>
      <point x="434" y="426"/>
      <point x="616" y="256"/>
      <point x="868" y="256" type="curve" smooth="yes"/>
      <point x="1024" y="256"/>
      <point x="1120" y="306"/>
      <point x="1200" y="376" type="curve"/>
      <point x="1188" y="386" type="line"/>
      <point x="1186" y="386"/>
      <point x="1184" y="386"/>
    </contour>
    <contour>
      <point x="144" y="700" type="curve" smooth="yes"/>
      <point x="144" y="306"/>
      <point x="464" y="-14"/>
      <point x="858" y="-14" type="curve" smooth="yes"/>
      <point x="1252" y="-14"/>
      <point x="1572" y="306"/>
      <point x="1572" y="700" type="curve" smooth="yes"/>
      <point x="1572" y="1094"/>
      <point x="1252" y="1414"/>
      <point x="858" y="1414" type="curve" smooth="yes"/>
      <point x="464" y="1414"/>
      <point x="144" y="1094"/>
    </contour>
    <contour>
      <point x="168" y="700" type="curve" smooth="yes"/>
      <point x="168" y="1082"/>
      <point x="476" y="1392"/>
      <point x="858" y="1392" type="curve" smooth="yes"/>
      <point x="1240" y="1392"/>
      <point x="1550" y="1082"/>
      <point x="1550" y="700" type="curve" smooth="yes"/>
      <point x="1550" y="318"/>
      <point x="1240" y="10"/>
      <point x="858" y="10" type="curve" smooth="yes"/>
      <point x="476" y="10"/>
      <point x="168" y="318"/>
    </contour>
  </outline>
</glyph>
<glyph name="ordfeminine" format="2">
  <advance width="681"/>
  <unicode hex="00AA"/>
  <guideline x="304" y="0" angle="82.9991"/>
  <anchor x="330" y="-70" name="bottom"/>
  <outline>
    <contour>
      <point x="447" y="1412" type="curve" smooth="yes"/>
      <point x="371" y="1412"/>
      <point x="311" y="1382"/>
      <point x="251" y="1322" type="curve"/>
      <point x="253" y="1316" type="line"/>
      <point x="255" y="1314"/>
      <point x="257" y="1312"/>
      <point x="261" y="1312" type="curve" smooth="yes"/>
      <point x="277" y="1312"/>
      <point x="329" y="1392"/>
      <point x="443" y="1392" type="curve" smooth="yes"/>
      <point x="541" y="1392"/>
      <point x="587" y="1334"/>
      <point x="571" y="1210" type="curve"/>
      <point x="593" y="1210" type="line"/>
      <point x="609" y="1314"/>
      <point x="571" y="1412"/>
    </contour>
    <contour>
      <point x="547" y="838" type="line"/>
      <point x="593" y="1210" type="line"/>
      <point x="571" y="1210" type="line"/>
      <point x="539" y="942" type="line"/>
      <point x="531" y="848" type="line"/>
      <point x="533" y="840"/>
      <point x="533" y="838"/>
      <point x="539" y="838" type="curve" smooth="yes"/>
    </contour>
    <contour>
      <point x="547" y="944" type="curve"/>
      <point x="543" y="962" type="line"/>
      <point x="479" y="902"/>
      <point x="411" y="848"/>
      <point x="309" y="848" type="curve" smooth="yes"/>
      <point x="251" y="848"/>
      <point x="197" y="880"/>
      <point x="197" y="954" type="curve" smooth="yes"/>
      <point x="197" y="1060"/>
      <point x="315" y="1118"/>
      <point x="563" y="1126" type="curve"/>
      <point x="565" y="1146" type="line"/>
      <point x="295" y="1142"/>
      <point x="175" y="1066"/>
      <point x="175" y="950" type="curve" smooth="yes"/>
      <point x="175" y="864"/>
      <point x="239" y="828"/>
      <point x="305" y="828" type="curve" smooth="yes"/>
      <point x="403" y="828"/>
      <point x="471" y="872"/>
    </contour>
  </outline>
</glyph>
<glyph name="logicalnot" format="2">
  <advance width="1160"/>
  <unicode hex="00AC"/>
  <outline>
    <contour>
      <point x="190" y="660" type="line"/>
      <point x="992" y="660" type="line"/>
      <point x="994" y="680" type="line"/>
      <point x="192" y="680" type="line"/>
    </contour>
    <contour>
      <point x="932" y="360" type="line"/>
      <point x="954" y="360" type="line"/>
      <point x="994" y="680" type="line"/>
      <point x="972" y="680" type="line"/>
    </contour>
  </outline>
  <guideline angle="82.9991" x="580" y="0"/>
</glyph>
<glyph name="registered" format="2">
  <advance width="1690"/>
  <unicode hex="00AE"/>
  <outline>
    <contour>
      <point x="778" y="684" type="line" smooth="yes"/>
      <point x="816" y="684"/>
      <point x="828" y="674"/>
      <point x="838" y="662" type="curve" smooth="yes"/>
      <point x="1168" y="268" type="line"/>
      <point x="1174" y="260"/>
      <point x="1178" y="260"/>
      <point x="1184" y="260" type="curve" smooth="yes"/>
      <point x="1204" y="260" type="line"/>
      <point x="870" y="658" type="line" smooth="yes"/>
      <point x="848" y="684"/>
      <point x="830" y="692"/>
      <point x="788" y="692" type="curve"/>
      <point x="802" y="684" type="line"/>
      <point x="818" y="684" type="line" smooth="yes"/>
      <point x="994" y="684"/>
      <point x="1116" y="774"/>
      <point x="1116" y="920" type="curve" smooth="yes"/>
      <point x="1116" y="1070"/>
      <point x="1012" y="1140"/>
      <point x="830" y="1140" type="curve" smooth="yes"/>
      <point x="618" y="1140" type="line"/>
      <point x="618" y="260" type="line"/>
      <point x="642" y="260" type="line"/>
      <point x="642" y="1120" type="line"/>
      <point x="830" y="1120" type="line" smooth="yes"/>
      <point x="1004" y="1120"/>
      <point x="1092" y="1060"/>
      <point x="1092" y="920" type="curve" smooth="yes"/>
      <point x="1092" y="782"/>
      <point x="990" y="704"/>
      <point x="818" y="704" type="curve" smooth="yes"/>
      <point x="626" y="704" type="line"/>
      <point x="626" y="684" type="line"/>
    </contour>
    <contour>
      <point x="144" y="700" type="curve" smooth="yes"/>
      <point x="144" y="306"/>
      <point x="464" y="-14"/>
      <point x="858" y="-14" type="curve" smooth="yes"/>
      <point x="1252" y="-14"/>
      <point x="1572" y="306"/>
      <point x="1572" y="700" type="curve" smooth="yes"/>
      <point x="1572" y="1094"/>
      <point x="1252" y="1414"/>
      <point x="858" y="1414" type="curve" smooth="yes"/>
      <point x="464" y="1414"/>
      <point x="144" y="1094"/>
    </contour>
    <contour>
      <point x="168" y="700" type="curve" smooth="yes"/>
      <point x="168" y="1082"/>
      <point x="476" y="1392"/>
      <point x="858" y="1392" type="curve" smooth="yes"/>
      <point x="1240" y="1392"/>
      <point x="1550" y="1082"/>
      <point x="1550" y="700" type="curve" smooth="yes"/>
      <point x="1550" y="318"/>
      <point x="1240" y="10"/>
      <point x="858" y="10" type="curve" smooth="yes"/>
      <point x="476" y="10"/>
      <point x="168" y="318"/>
    </contour>
  </outline>
  <guideline angle="82.9991" x="794" y="0"/>
</glyph>
<glyph name="macron" format="2">
  <advance width="736"/>
  <unicode hex="00AF"/>
  <unicode hex="02C9"/>
  <anchor x="400" y="1120" name="_top"/>
  <outline>
    <contour>
      <point x="271" y="1270" type="line"/>
      <point x="750" y="1270" type="line"/>
      <point x="753" y="1290" type="line"/>
      <point x="274" y="1290" type="line"/>
    </contour>
  </outline>
  <guideline angle="82.9991" x="368" y="0"/>
</glyph>
<glyph name="degree" format="2">
  <advance width="809"/>
  <unicode hex="00B0"/>
  <guideline x="374" y="0" angle="82.9991"/>
  <outline>
    <contour>
      <point x="189" y="1140" type="curve" smooth="yes"/>
      <point x="189" y="986"/>
      <point x="317" y="862"/>
      <point x="467" y="862" type="curve" smooth="yes"/>
      <point x="623" y="862"/>
      <point x="747" y="986"/>
      <point x="747" y="1140" type="curve" smooth="yes"/>
      <point x="747" y="1294"/>
      <point x="623" y="1416"/>
      <point x="467" y="1416" type="curve" smooth="yes"/>
      <point x="317" y="1416"/>
      <point x="189" y="1294"/>
    </contour>
    <contour>
      <point x="209" y="1140" type="curve" smooth="yes"/>
      <point x="209" y="1282"/>
      <point x="325" y="1396"/>
      <point x="467" y="1396" type="curve" smooth="yes"/>
      <point x="609" y="1396"/>
      <point x="723" y="1282"/>
      <point x="723" y="1140" type="curve" smooth="yes"/>
      <point x="723" y="998"/>
      <point x="609" y="884"/>
      <point x="467" y="884" type="curve" smooth="yes"/>
      <point x="325" y="884"/>
      <point x="209" y="998"/>
    </contour>
  </outline>
</glyph>
<glyph name="plusminus" format="2">
  <advance width="1160"/>
  <unicode hex="00B1"/>
  <guideline x="580" y="0" angle="82.9991"/>
  <outline>
    <contour>
      <point x="133" y="660" type="line"/>
      <point x="1055" y="660" type="line"/>
      <point x="1057" y="680" type="line"/>
      <point x="135" y="680" type="line"/>
    </contour>
    <contour>
      <point x="637" y="1110" type="line"/>
      <point x="529" y="228" type="line"/>
      <point x="549" y="228" type="line"/>
      <point x="657" y="1110" type="line"/>
    </contour>
    <contour>
      <point x="61" y="80" type="line"/>
      <point x="983" y="80" type="line"/>
      <point x="985" y="100" type="line"/>
      <point x="63" y="100" type="line"/>
    </contour>
  </outline>
</glyph>
<glyph name="acute" format="2">
  <advance width="736"/>
  <unicode hex="00B4"/>
  <anchor x="400" y="1120" name="_top"/>
  <outline>
    <contour>
      <point x="658" y="1416" type="line" smooth="yes"/>
      <point x="638" y="1416"/>
      <point x="630" y="1412"/>
      <point x="617" y="1394" type="curve" smooth="yes"/>
      <point x="440" y="1158" type="line"/>
      <point x="453" y="1158" type="line" smooth="yes"/>
      <point x="458" y="1158"/>
      <point x="464" y="1160"/>
      <point x="468" y="1166" type="curve"/>
      <point x="682" y="1416" type="line"/>
    </contour>
  </outline>
  <guideline angle="82.9991" x="368" y="0"/>
</glyph>
<glyph name="micro" format="2">
  <advance width="1164"/>
  <unicode hex="00B5"/>
  <anchor x="612" y="1120" name="top"/>
  <anchor x="518" y="-421" name="bottom"/>
  <outline>
    <contour>
      <point x="264" y="980" type="line"/>
      <point x="100" y="-348" type="line"/>
      <point x="100" y="-354"/>
      <point x="103" y="-360"/>
      <point x="111" y="-360" type="curve" smooth="yes"/>
      <point x="123" y="-360" type="line"/>
      <point x="168" y="10" type="line" smooth="yes"/>
      <point x="177" y="80"/>
      <point x="188" y="182"/>
      <point x="194" y="252" type="curve"/>
      <point x="201" y="274" type="line"/>
      <point x="288" y="980" type="line"/>
    </contour>
    <contour>
      <point x="195" y="352" type="line"/>
      <point x="166" y="120"/>
      <point x="240" y="-16"/>
      <point x="440" y="-16" type="curve" smooth="yes"/>
      <point x="587" y="-16"/>
      <point x="729" y="75"/>
      <point x="831" y="219" type="curve"/>
      <point x="829" y="243" type="line"/>
      <point x="721" y="93"/>
      <point x="586" y="4"/>
      <point x="443" y="4" type="curve" smooth="yes"/>
      <point x="256" y="4"/>
      <point x="184" y="134"/>
      <point x="210" y="352" type="curve"/>
    </contour>
    <contour>
      <point x="819" y="219" type="line"/>
      <point x="820" y="207" type="line"/>
      <point x="801" y="54"/>
      <point x="884" y="-8"/>
      <point x="986" y="-8" type="curve" smooth="yes"/>
      <point x="1015" y="-8"/>
      <point x="1028" y="-3"/>
      <point x="1029" y="2" type="curve"/>
      <point x="1030" y="12" type="line"/>
      <point x="1004" y="12" type="line" smooth="yes"/>
      <point x="895" y="12"/>
      <point x="825" y="71"/>
      <point x="842" y="207" type="curve" smooth="yes"/>
      <point x="937" y="980" type="line"/>
      <point x="913" y="980" type="line"/>
    </contour>
  </outline>
  <guideline angle="82.9991" x="536" y="0"/>
</glyph>
<glyph name="paragraph" format="2">
  <advance width="1223"/>
  <unicode hex="00B6"/>
  <outline>
    <contour>
      <point x="628" y="1400" type="line"/>
      <point x="604" y="1400" type="line"/>
      <point x="410" y="-180" type="line"/>
      <point x="434" y="-180" type="line"/>
    </contour>
    <contour>
      <point x="604" y="1400" type="line"/>
      <point x="314" y="1400"/>
      <point x="128" y="1256"/>
      <point x="128" y="1036" type="curve" smooth="yes"/>
      <point x="128" y="842"/>
      <point x="282" y="732"/>
      <point x="522" y="732" type="curve"/>
      <point x="618" y="1378" type="line"/>
      <point x="1252" y="1378" type="line"/>
      <point x="1254" y="1400" type="line"/>
    </contour>
    <contour>
      <point x="1024" y="1400" type="line"/>
      <point x="1000" y="1400" type="line"/>
      <point x="806" y="-180" type="line"/>
      <point x="830" y="-180" type="line"/>
    </contour>
  </outline>
  <guideline angle="82.9991" x="600" y="0"/>
</glyph>
<glyph name="periodcentered" format="2">
  <advance width="435"/>
  <unicode hex="00B7"/>
  <unicode hex="2219"/>
  <outline>
    <contour>
      <point x="156" y="590" type="curve" smooth="yes"/>
      <point x="156" y="560"/>
      <point x="184" y="532"/>
      <point x="214" y="532" type="curve" smooth="yes"/>
      <point x="248" y="532"/>
      <point x="276" y="560"/>
      <point x="276" y="590" type="curve" smooth="yes"/>
      <point x="276" y="624"/>
      <point x="248" y="652"/>
      <point x="214" y="652" type="curve" smooth="yes"/>
      <point x="184" y="652"/>
      <point x="156" y="624"/>
    </contour>
  </outline>
  <guideline angle="82.9991" x="260" y="0"/>
</glyph>
<glyph name="cedilla" format="2">
  <advance width="736"/>
  <unicode hex="00B8"/>
  <anchor x="400" y="-70" name="_bottom"/>
  <outline>
    <contour>
      <point x="227" y="-296" type="curve" smooth="yes"/>
      <point x="223" y="-296"/>
      <point x="221" y="-298"/>
      <point x="217" y="-302" type="curve"/>
      <point x="212" y="-306" type="line"/>
      <point x="236" y="-336"/>
      <point x="289" y="-358"/>
      <point x="338" y="-358" type="curve" smooth="yes"/>
      <point x="428" y="-358"/>
      <point x="498" y="-309"/>
      <point x="498" y="-224" type="curve" smooth="yes"/>
      <point x="498" y="-150"/>
      <point x="429" y="-125"/>
      <point x="327" y="-108" type="curve"/>
      <point x="336" y="-114" type="line"/>
      <point x="383" y="0" type="line"/>
      <point x="366" y="0" type="line"/>
      <point x="313" y="-126" type="line"/>
      <point x="403" y="-137"/>
      <point x="476" y="-156"/>
      <point x="476" y="-228" type="curve" smooth="yes"/>
      <point x="476" y="-297"/>
      <point x="426" y="-340"/>
      <point x="346" y="-340" type="curve" smooth="yes"/>
      <point x="262" y="-340"/>
      <point x="238" y="-296"/>
    </contour>
  </outline>
  <guideline angle="82.9991" x="368" y="0"/>
</glyph>
<glyph name="ordmasculine" format="2">
  <advance width="754"/>
  <unicode hex="00BA"/>
  <guideline x="338" y="0" angle="82.9991"/>
  <anchor x="367" y="-70" name="bottom"/>
  <outline>
    <contour>
      <point x="477" y="1412" type="curve" smooth="yes"/>
      <point x="297" y="1412"/>
      <point x="191" y="1274"/>
      <point x="191" y="1068" type="curve" smooth="yes"/>
      <point x="191" y="922"/>
      <point x="265" y="826"/>
      <point x="405" y="826" type="curve" smooth="yes"/>
      <point x="583" y="826"/>
      <point x="689" y="962"/>
      <point x="689" y="1168" type="curve" smooth="yes"/>
      <point x="689" y="1314"/>
      <point x="615" y="1412"/>
    </contour>
    <contour>
      <point x="407" y="842" type="curve" smooth="yes"/>
      <point x="275" y="842"/>
      <point x="211" y="934"/>
      <point x="211" y="1068" type="curve" smooth="yes"/>
      <point x="211" y="1260"/>
      <point x="303" y="1396"/>
      <point x="475" y="1396" type="curve" smooth="yes"/>
      <point x="605" y="1396"/>
      <point x="671" y="1302"/>
      <point x="671" y="1168" type="curve" smooth="yes"/>
      <point x="671" y="976"/>
      <point x="577" y="842"/>
    </contour>
  </outline>
</glyph>
<glyph name="questiondown" format="2">
  <advance width="758"/>
  <unicode hex="00BF"/>
  <guideline x="320" y="0" angle="82.9991"/>
  <outline>
    <contour>
      <point x="563" y="-226" type="line"/>
      <point x="561" y="-224"/>
      <point x="561" y="-222"/>
      <point x="557" y="-222" type="curve"/>
      <point x="547" y="-222"/>
      <point x="449" y="-350"/>
      <point x="275" y="-350" type="curve" smooth="yes"/>
      <point x="147" y="-350"/>
      <point x="35" y="-262"/>
      <point x="35" y="-116" type="curve" smooth="yes"/>
      <point x="35" y="208"/>
      <point x="381" y="210"/>
      <point x="401" y="376" type="curve" smooth="yes"/>
      <point x="421" y="550" type="line"/>
      <point x="407" y="550" type="line"/>
      <point x="379" y="378" type="line"/>
      <point x="357" y="224"/>
      <point x="11" y="214"/>
      <point x="11" y="-118" type="curve" smooth="yes"/>
      <point x="11" y="-274"/>
      <point x="133" y="-370"/>
      <point x="273" y="-370" type="curve" smooth="yes"/>
      <point x="403" y="-370"/>
      <point x="501" y="-302"/>
      <point x="569" y="-234" type="curve"/>
    </contour>
    <component base="period" xOffset="309" yOffset="882"/>
  </outline>
</glyph>
<glyph name="Eth" format="2">
  <advance width="1416"/>
  <unicode hex="00D0"/>
  <anchor x="680" y="1496" name="Top"/>
  <anchor x="680" y="1496" name="top"/>
  <anchor x="478" y="-70" name="bottom"/>
  <outline>
    <contour>
      <point x="1304" y="812" type="curve" smooth="yes"/>
      <point x="1304" y="1178"/>
      <point x="1102" y="1400"/>
      <point x="786" y="1400" type="curve"/>
      <point x="326" y="1400" type="line"/>
      <point x="154" y="0" type="line"/>
      <point x="614" y="0" type="line" smooth="yes"/>
      <point x="1010" y="0"/>
      <point x="1304" y="304"/>
    </contour>
    <contour>
      <point x="1278" y="812" type="curve" smooth="yes"/>
      <point x="1278" y="310"/>
      <point x="996" y="20"/>
      <point x="616" y="20" type="curve" smooth="yes"/>
      <point x="180" y="20" type="line"/>
      <point x="346" y="1380" type="line"/>
      <point x="784" y="1380" type="line" smooth="yes"/>
      <point x="1084" y="1380"/>
      <point x="1278" y="1168"/>
    </contour>
    <contour>
      <point x="26" y="702" type="line"/>
      <point x="654" y="702" type="line"/>
      <point x="656" y="722" type="line"/>
      <point x="28" y="722" type="line"/>
    </contour>
  </outline>
  <guideline angle="82.9991" x="723" y="0"/>
</glyph>
<glyph name="multiply" format="2">
  <advance width="1160"/>
  <unicode hex="00D7"/>
  <outline>
    <contour>
      <point x="234" y="1058" type="line"/>
      <point x="930" y="268" type="line"/>
      <point x="944" y="282" type="line"/>
      <point x="252" y="1074" type="line"/>
    </contour>
    <contour>
      <point x="1026" y="1072" type="line"/>
      <point x="138" y="280" type="line"/>
      <point x="150" y="266" type="line"/>
      <point x="1040" y="1056" type="line"/>
    </contour>
  </outline>
  <guideline angle="82.9991" x="580" y="0"/>
</glyph>
<glyph name="Oslash" format="2">
  <advance width="1458"/>
  <unicode hex="00D8"/>
  <guideline x="732" y="0" angle="82.9991"/>
  <anchor x="842" y="1496" name="Top"/>
  <anchor x="842" y="1496" name="top"/>
  <anchor x="533" y="-70" name="bottom"/>
  <outline>
    <contour>
      <point x="1383" y="1464" type="line"/>
      <point x="1369" y="1464" type="line" smooth="yes"/>
      <point x="1359" y="1464"/>
      <point x="1355" y="1460"/>
      <point x="1347" y="1452" type="curve"/>
      <point x="85" y="-102" type="line"/>
      <point x="97" y="-102" type="line" smooth="yes"/>
      <point x="105" y="-102"/>
      <point x="113" y="-98"/>
      <point x="121" y="-90" type="curve"/>
    </contour>
    <contour>
      <point x="1347" y="814" type="curve" smooth="yes"/>
      <point x="1347" y="1180"/>
      <point x="1145" y="1416"/>
      <point x="829" y="1416" type="curve" smooth="yes"/>
      <point x="439" y="1416"/>
      <point x="137" y="1092"/>
      <point x="137" y="586" type="curve" smooth="yes"/>
      <point x="137" y="220"/>
      <point x="339" y="-14"/>
      <point x="653" y="-14" type="curve" smooth="yes"/>
      <point x="1049" y="-14"/>
      <point x="1347" y="306"/>
    </contour>
    <contour>
      <point x="1321" y="814" type="curve" smooth="yes"/>
      <point x="1321" y="312"/>
      <point x="1035" y="6"/>
      <point x="655" y="6" type="curve" smooth="yes"/>
      <point x="359" y="6"/>
      <point x="161" y="230"/>
      <point x="161" y="588" type="curve"/>
      <point x="161" y="1088"/>
      <point x="455" y="1396"/>
      <point x="827" y="1396" type="curve" smooth="yes"/>
      <point x="1127" y="1396"/>
      <point x="1321" y="1172"/>
    </contour>
  </outline>
</glyph>
<glyph name="Thorn" format="2">
  <advance width="1039"/>
  <unicode hex="00DE"/>
  <anchor x="415" y="1496" name="Top"/>
  <anchor x="415" y="1496" name="top"/>
  <anchor x="154" y="-70" name="bottom"/>
  <outline>
    <contour>
      <point x="342" y="1400" type="line"/>
      <point x="318" y="1400" type="line"/>
      <point x="146" y="0" type="line"/>
      <point x="170" y="0" type="line"/>
    </contour>
    <contour>
      <point x="294" y="1078" type="line"/>
      <point x="570" y="1078" type="line" smooth="yes"/>
      <point x="818" y="1078"/>
      <point x="942" y="964"/>
      <point x="942" y="758" type="curve" smooth="yes"/>
      <point x="942" y="506"/>
      <point x="750" y="318"/>
      <point x="478" y="318" type="curve" smooth="yes"/>
      <point x="202" y="318" type="line"/>
      <point x="198" y="298" type="line"/>
      <point x="476" y="298" type="line" smooth="yes"/>
      <point x="754" y="298"/>
      <point x="966" y="486"/>
      <point x="966" y="762" type="curve" smooth="yes"/>
      <point x="966" y="984"/>
      <point x="828" y="1098"/>
      <point x="574" y="1098" type="curve" smooth="yes"/>
      <point x="296" y="1098" type="line"/>
    </contour>
  </outline>
  <guideline angle="82.9991" x="533" y="0"/>
</glyph>
<glyph name="germandbls" format="2">
  <advance width="1030"/>
  <unicode hex="00DF"/>
  <anchor x="675" y="1496" name="Top"/>
  <anchor x="675" y="1496" name="top"/>
  <anchor x="398" y="-421" name="bottom"/>
  <outline>
    <contour>
      <point x="694" y="1414" type="curve" smooth="yes"/>
      <point x="484" y="1414"/>
      <point x="294" y="1202"/>
      <point x="260" y="938" type="curve"/>
      <point x="114" y="-252" type="line"/>
      <point x="118" y="-252" type="line" smooth="yes"/>
      <point x="122" y="-252"/>
      <point x="128" y="-250"/>
      <point x="130" y="-240" type="curve"/>
      <point x="168" y="10" type="line"/>
      <point x="284" y="938" type="line" smooth="yes"/>
      <point x="318" y="1212"/>
      <point x="510" y="1394"/>
      <point x="690" y="1394" type="curve" smooth="yes"/>
      <point x="876" y="1394"/>
      <point x="934" y="1258"/>
      <point x="934" y="1178" type="curve" smooth="yes"/>
      <point x="934" y="904"/>
      <point x="556" y="882"/>
      <point x="556" y="676" type="curve" smooth="yes"/>
      <point x="556" y="472"/>
      <point x="886" y="562"/>
      <point x="886" y="306" type="curve" smooth="yes"/>
      <point x="886" y="140"/>
      <point x="770" y="4"/>
      <point x="578" y="4" type="curve" smooth="yes"/>
      <point x="402" y="4"/>
      <point x="354" y="114"/>
      <point x="334" y="114" type="curve" smooth="yes"/>
      <point x="328" y="114"/>
      <point x="326" y="112"/>
      <point x="322" y="108" type="curve" smooth="yes"/>
      <point x="316" y="102" type="line"/>
      <point x="380" y="30"/>
      <point x="446" y="-16"/>
      <point x="576" y="-16" type="curve" smooth="yes"/>
      <point x="778" y="-16"/>
      <point x="908" y="132"/>
      <point x="908" y="310" type="curve" smooth="yes"/>
      <point x="908" y="576"/>
      <point x="578" y="492"/>
      <point x="578" y="678" type="curve" smooth="yes"/>
      <point x="578" y="870"/>
      <point x="954" y="896"/>
      <point x="954" y="1184" type="curve" smooth="yes"/>
      <point x="954" y="1304"/>
      <point x="854" y="1414"/>
    </contour>
    <contour>
      <point x="278" y="918" type="line"/>
      <point x="280" y="938" type="line"/>
      <point x="98" y="938" type="line"/>
      <point x="98" y="930" type="line"/>
      <point x="96" y="926"/>
      <point x="100" y="922"/>
      <point x="108" y="922" type="curve"/>
      <point x="264" y="918" type="line"/>
      <point x="276" y="918" type="line"/>
    </contour>
  </outline>
  <guideline angle="82.9991" x="480" y="0"/>
</glyph>
<glyph name="eth" format="2">
  <advance width="1031"/>
  <unicode hex="00F0"/>
  <anchor x="844" y="1496" name="Top"/>
  <anchor x="844" y="1496" name="top"/>
  <anchor x="429" y="-70" name="bottom"/>
  <outline>
    <contour>
      <point x="394" y="1372" type="curve"/>
      <point x="392" y="1365" type="line"/>
      <point x="390" y="1356"/>
      <point x="395" y="1353"/>
      <point x="403" y="1352" type="curve"/>
      <point x="696" y="1303"/>
      <point x="924" y="1070"/>
      <point x="878" y="600" type="curve"/>
      <point x="876" y="594" type="line"/>
      <point x="836" y="218"/>
      <point x="686" y="10"/>
      <point x="426" y="10" type="curve" smooth="yes"/>
      <point x="254" y="10"/>
      <point x="118" y="152"/>
      <point x="118" y="382" type="curve" smooth="yes"/>
      <point x="118" y="662"/>
      <point x="270" y="896"/>
      <point x="544" y="896" type="curve" smooth="yes"/>
      <point x="760" y="896"/>
      <point x="858" y="712"/>
      <point x="874" y="558" type="curve"/>
      <point x="888" y="562" type="line"/>
      <point x="868" y="820"/>
      <point x="690" y="916"/>
      <point x="546" y="916" type="curve" smooth="yes"/>
      <point x="264" y="916"/>
      <point x="94" y="672"/>
      <point x="94" y="380" type="curve" smooth="yes"/>
      <point x="94" y="144"/>
      <point x="236" y="-10"/>
      <point x="424" y="-10" type="curve" smooth="yes"/>
      <point x="750" y="-10"/>
      <point x="906" y="312"/>
      <point x="906" y="720" type="curve" smooth="yes"/>
      <point x="906" y="1156"/>
      <point x="648" y="1328"/>
    </contour>
    <contour>
      <point x="534" y="1070" type="line"/>
      <point x="692" y="1230" type="line"/>
      <point x="696" y="1234" type="line"/>
      <point x="835" y="1377" type="line" smooth="yes"/>
      <point x="840" y="1382"/>
      <point x="839" y="1390"/>
      <point x="836" y="1393" type="curve"/>
      <point x="832" y="1398" type="line"/>
      <point x="684" y="1246" type="line"/>
      <point x="680" y="1242" type="line"/>
      <point x="529" y="1089" type="line" smooth="yes"/>
      <point x="524" y="1084"/>
      <point x="527" y="1077"/>
      <point x="529" y="1075" type="curve" smooth="yes"/>
    </contour>
  </outline>
  <guideline angle="0" x="0" y="1406"/>
  <guideline angle="82.9991" x="482" y="0"/>
</glyph>
<glyph name="divide" format="2">
  <advance width="1160"/>
  <unicode hex="00F7"/>
  <guideline x="580" y="0" angle="82.9991"/>
  <outline>
    <contour>
      <point x="126" y="660" type="line"/>
      <point x="1048" y="660" type="line"/>
      <point x="1050" y="680" type="line"/>
      <point x="128" y="680" type="line"/>
    </contour>
    <contour>
      <point x="566" y="1016" type="curve" smooth="yes"/>
      <point x="566" y="986"/>
      <point x="588" y="960"/>
      <point x="622" y="960" type="curve" smooth="yes"/>
      <point x="660" y="960"/>
      <point x="696" y="990"/>
      <point x="696" y="1030" type="curve" smooth="yes"/>
      <point x="696" y="1062"/>
      <point x="672" y="1090"/>
      <point x="638" y="1090" type="curve" smooth="yes"/>
      <point x="600" y="1090"/>
      <point x="566" y="1056"/>
    </contour>
    <contour>
      <point x="478" y="304" type="curve" smooth="yes"/>
      <point x="478" y="274"/>
      <point x="502" y="248"/>
      <point x="534" y="248" type="curve" smooth="yes"/>
      <point x="574" y="248"/>
      <point x="608" y="278"/>
      <point x="608" y="318" type="curve" smooth="yes"/>
      <point x="608" y="350"/>
      <point x="584" y="378"/>
      <point x="550" y="378" type="curve" smooth="yes"/>
      <point x="512" y="378"/>
      <point x="478" y="344"/>
    </contour>
  </outline>
</glyph>
<glyph name="oslash" format="2">
  <advance width="1017"/>
  <unicode hex="00F8"/>
  <guideline x="486" y="0" angle="82.9991"/>
  <anchor x="573" y="1120" name="top"/>
  <anchor x="356" y="-70" name="bottom"/>
  <outline>
    <contour>
      <point x="806" y="882" type="line"/>
      <point x="806" y="882" type="line"/>
      <point x="918" y="1032" type="line"/>
      <point x="902" y="1032" type="line" smooth="yes"/>
      <point x="892" y="1032"/>
      <point x="888" y="1028"/>
      <point x="882" y="1020" type="curve" smooth="yes"/>
      <point x="784" y="888" type="line"/>
      <point x="784" y="888" type="line"/>
      <point x="190" y="94" type="line"/>
      <point x="190" y="94" type="line"/>
      <point x="64" y="-74" type="line"/>
      <point x="78" y="-74" type="line" smooth="yes"/>
      <point x="86" y="-74"/>
      <point x="94" y="-70"/>
      <point x="100" y="-62" type="curve" smooth="yes"/>
      <point x="214" y="92" type="line"/>
      <point x="214" y="92" type="line"/>
    </contour>
    <contour>
      <point x="432" y="8" type="curve" smooth="yes"/>
      <point x="238" y="8"/>
      <point x="118" y="152"/>
      <point x="118" y="386" type="curve" smooth="yes"/>
      <point x="118" y="686"/>
      <point x="296" y="976"/>
      <point x="560" y="976" type="curve" smooth="yes"/>
      <point x="752" y="976"/>
      <point x="874" y="832"/>
      <point x="874" y="598" type="curve" smooth="yes"/>
      <point x="874" y="302"/>
      <point x="696" y="8"/>
    </contour>
    <contour>
      <point x="430" y="-12" type="curve" smooth="yes"/>
      <point x="714" y="-12"/>
      <point x="898" y="292"/>
      <point x="898" y="598" type="curve" smooth="yes"/>
      <point x="898" y="840"/>
      <point x="770" y="996"/>
      <point x="562" y="996" type="curve" smooth="yes"/>
      <point x="278" y="996"/>
      <point x="94" y="694"/>
      <point x="94" y="386" type="curve" smooth="yes"/>
      <point x="94" y="142"/>
      <point x="222" y="-12"/>
    </contour>
  </outline>
</glyph>
<glyph name="thorn" format="2">
  <advance width="1009"/>
  <unicode hex="00FE"/>
  <guideline x="496" y="0" angle="82.9991"/>
  <anchor x="279" y="1496" name="Top"/>
  <anchor x="279" y="1496" name="top"/>
  <anchor x="295" y="-421" name="bottom"/>
  <outline>
    <contour>
      <point x="64" y="-360" type="line" smooth="yes"/>
      <point x="72" y="-360"/>
      <point x="78" y="-354"/>
      <point x="80" y="-342" type="curve"/>
      <point x="298" y="1440" type="line"/>
      <point x="276" y="1440" type="line"/>
      <point x="56" y="-360" type="line"/>
    </contour>
    <contour>
      <point x="134" y="180" type="line"/>
      <point x="186" y="50"/>
      <point x="300" y="-12"/>
      <point x="420" y="-12" type="curve" smooth="yes"/>
      <point x="718" y="-12"/>
      <point x="898" y="372"/>
      <point x="898" y="658" type="curve" smooth="yes"/>
      <point x="898" y="850"/>
      <point x="818" y="994"/>
      <point x="644" y="994" type="curve" smooth="yes"/>
      <point x="452" y="994"/>
      <point x="264" y="780"/>
      <point x="164" y="484" type="curve"/>
      <point x="170" y="460" type="line"/>
      <point x="282" y="776"/>
      <point x="464" y="974"/>
      <point x="644" y="974" type="curve" smooth="yes"/>
      <point x="796" y="974"/>
      <point x="876" y="852"/>
      <point x="876" y="658" type="curve" smooth="yes"/>
      <point x="876" y="382"/>
      <point x="710" y="8"/>
      <point x="422" y="8" type="curve" smooth="yes"/>
      <point x="308" y="8"/>
      <point x="200" y="62"/>
      <point x="138" y="212" type="curve"/>
    </contour>
  </outline>
</glyph>
<glyph name="Dcroat" format="2">
  <advance width="1416"/>
  <unicode hex="0110"/>
  <guideline x="723" y="0" angle="82.9991"/>
  <anchor x="680" y="1496" name="Top"/>
  <anchor x="680" y="1496" name="top"/>
  <anchor x="478" y="-70" name="bottom"/>
  <outline>
    <contour>
      <point x="1304" y="812" type="curve" smooth="yes"/>
      <point x="1304" y="1178"/>
      <point x="1102" y="1400"/>
      <point x="786" y="1400" type="curve"/>
      <point x="326" y="1400" type="line"/>
      <point x="154" y="0" type="line"/>
      <point x="614" y="0" type="line" smooth="yes"/>
      <point x="1010" y="0"/>
      <point x="1304" y="304"/>
    </contour>
    <contour>
      <point x="1278" y="812" type="curve" smooth="yes"/>
      <point x="1278" y="310"/>
      <point x="996" y="20"/>
      <point x="616" y="20" type="curve" smooth="yes"/>
      <point x="180" y="20" type="line"/>
      <point x="346" y="1380" type="line"/>
      <point x="784" y="1380" type="line" smooth="yes"/>
      <point x="1084" y="1380"/>
      <point x="1278" y="1168"/>
    </contour>
    <contour>
      <point x="26" y="702" type="line"/>
      <point x="654" y="702" type="line"/>
      <point x="656" y="722" type="line"/>
      <point x="28" y="722" type="line"/>
    </contour>
  </outline>
</glyph>
<glyph name="hcircumflex" format="2">
  <advance width="1007"/>
  <unicode hex="0125"/>
  <guideline x="502" y="0" angle="82.9991"/>
  <anchor x="279" y="1496" name="Top"/>
  <anchor x="279" y="1496" name="top"/>
  <anchor x="433" y="-70" name="bottom"/>
  <anchor x="538" y="700" name="Slash"/>
  <outline>
    <contour>
      <point x="71" y="1538" type="line"/>
      <point x="91" y="1538" type="line" smooth="yes"/>
      <point x="97" y="1538"/>
      <point x="105" y="1540"/>
      <point x="111" y="1546" type="curve"/>
      <point x="311" y="1706" type="line"/>
      <point x="319" y="1714"/>
      <point x="321" y="1718"/>
      <point x="321" y="1728" type="curve"/>
      <point x="309" y="1728" type="line"/>
    </contour>
    <contour>
      <point x="325" y="1728" type="line"/>
      <point x="313" y="1728" type="line"/>
      <point x="311" y="1718"/>
      <point x="311" y="1714"/>
      <point x="319" y="1706" type="curve" smooth="yes"/>
      <point x="479" y="1546" type="line"/>
      <point x="483" y="1540"/>
      <point x="491" y="1538"/>
      <point x="495" y="1538" type="curve" smooth="yes"/>
      <point x="515" y="1538" type="line"/>
    </contour>
    <component base="h"/>
  </outline>
</glyph>
<glyph name="Hbar" format="2">
  <advance width="1406"/>
  <unicode hex="0126"/>
  <anchor x="790" y="1496" name="Top"/>
  <anchor x="790" y="1496" name="top"/>
  <anchor x="640" y="-70" name="bottom"/>
  <anchor x="34" y="1120" name="onRight"/>
  <outline>
    <component base="H" xOffset="17"/>
    <contour>
      <point x="123" y="1042" type="line"/>
      <point x="1423" y="1042" type="line"/>
      <point x="1425" y="1060" type="line"/>
      <point x="125" y="1060" type="line"/>
    </contour>
  </outline>
  <guideline angle="82.9991" x="714" y="0"/>
</glyph>
<glyph name="hbar" format="2">
  <advance width="1007"/>
  <unicode hex="0127"/>
  <guideline x="502" y="0" angle="82.9991"/>
  <anchor x="279" y="1496" name="Top"/>
  <anchor x="279" y="1496" name="top"/>
  <anchor x="433" y="-70" name="bottom"/>
  <outline>
    <contour>
      <point x="65" y="1170" type="line"/>
      <point x="485" y="1170" type="line" smooth="yes"/>
      <point x="497" y="1170"/>
      <point x="503" y="1174"/>
      <point x="505" y="1182" type="curve" smooth="yes"/>
      <point x="507" y="1190" type="line"/>
      <point x="67" y="1190" type="line"/>
    </contour>
    <contour>
      <point x="123" y="0" type="line"/>
      <point x="297" y="1440" type="line"/>
      <point x="275" y="1440" type="line"/>
      <point x="101" y="0" type="line"/>
    </contour>
    <contour>
      <point x="773" y="0" type="line"/>
      <point x="847" y="628" type="line"/>
      <point x="825" y="628" type="line"/>
      <point x="751" y="0" type="line"/>
    </contour>
    <contour>
      <point x="847" y="628" type="line"/>
      <point x="875" y="860"/>
      <point x="817" y="994"/>
      <point x="645" y="994" type="curve" smooth="yes"/>
      <point x="463" y="994"/>
      <point x="271" y="812"/>
      <point x="169" y="534" type="curve"/>
      <point x="173" y="510" type="line"/>
      <point x="289" y="794"/>
      <point x="473" y="974"/>
      <point x="643" y="974" type="curve" smooth="yes"/>
      <point x="799" y="974"/>
      <point x="851" y="846"/>
      <point x="825" y="628" type="curve"/>
    </contour>
  </outline>
</glyph>
<glyph name="idotless" format="2">
  <advance width="391"/>
  <unicode hex="0131"/>
  <anchor x="260" y="1120" name="top"/>
  <anchor x="119" y="-70" name="bottom"/>
  <outline>
    <contour>
      <point x="232" y="980" type="line"/>
      <point x="112" y="0" type="line"/>
      <point x="134" y="0" type="line"/>
      <point x="254" y="980" type="line"/>
    </contour>
  </outline>
  <guideline angle="82.9991" x="213" y="0"/>
</glyph>
<glyph name="kgreenlandic" format="2">
  <advance width="828"/>
  <unicode hex="0138"/>
  <anchor x="494" y="1120" name="top"/>
  <anchor x="381" y="-70" name="bottom"/>
  <outline>
    <contour>
      <point x="221" y="980" type="line"/>
      <point x="99" y="0" type="line"/>
      <point x="121" y="0" type="line"/>
      <point x="243" y="980" type="line"/>
    </contour>
    <contour>
      <point x="177" y="536" type="line"/>
      <point x="175" y="518" type="line"/>
      <point x="221" y="518" type="line" smooth="yes"/>
      <point x="257" y="518"/>
      <point x="271" y="512"/>
      <point x="289" y="490" type="curve" smooth="yes"/>
      <point x="681" y="12" type="line"/>
      <point x="691" y="2"/>
      <point x="697" y="0"/>
      <point x="707" y="0" type="curve" smooth="yes"/>
      <point x="723" y="0" type="line"/>
      <point x="307" y="504" type="line"/>
      <point x="293" y="520"/>
      <point x="277" y="534"/>
      <point x="241" y="534" type="curve"/>
      <point x="237" y="524" type="line"/>
      <point x="265" y="524"/>
      <point x="277" y="530"/>
      <point x="297" y="546" type="curve"/>
      <point x="807" y="980" type="line"/>
      <point x="791" y="980" type="line" smooth="yes"/>
      <point x="775" y="980"/>
      <point x="765" y="974"/>
      <point x="755" y="964" type="curve"/>
      <point x="277" y="554" type="line"/>
      <point x="255" y="534"/>
      <point x="239" y="536"/>
      <point x="229" y="536" type="curve" smooth="yes"/>
    </contour>
  </outline>
  <guideline angle="82.9991" x="413" y="0"/>
</glyph>
<glyph name="Lcaron" format="2">
  <advance width="918"/>
  <unicode hex="013D"/>
  <anchor x="341" y="1496" name="Top"/>
  <anchor x="341" y="1496" name="top"/>
  <anchor x="458" y="-70" name="bottom"/>
  <anchor x="245" y="700" name="Bar"/>
  <outline>
    <component base="L"/>
    <contour>
      <point x="629" y="1442" type="line"/>
      <point x="551" y="1162" type="line"/>
      <point x="557" y="1162" type="line" smooth="yes"/>
      <point x="567" y="1162"/>
      <point x="569" y="1168"/>
      <point x="573" y="1176" type="curve"/>
      <point x="627" y="1334"/>
      <point x="651" y="1398"/>
      <point x="651" y="1426" type="curve" smooth="yes"/>
      <point x="651" y="1438"/>
      <point x="647" y="1442"/>
      <point x="639" y="1442" type="curve" smooth="yes"/>
    </contour>
  </outline>
  <guideline angle="82.9991" x="468" y="0"/>
</glyph>
<glyph name="Lslash" format="2">
  <advance width="937"/>
  <unicode hex="0141"/>
  <guideline x="483" y="0" angle="82.9991"/>
  <anchor x="360" y="1496" name="Top"/>
  <anchor x="360" y="1496" name="top"/>
  <anchor x="477" y="-70" name="bottom"/>
  <anchor x="264" y="700" name="Bar"/>
  <outline>
    <contour>
      <point x="42" y="510" type="line"/>
      <point x="254" y="624" type="line"/>
      <point x="258" y="624" type="line"/>
      <point x="692" y="860" type="line"/>
      <point x="704" y="866"/>
      <point x="704" y="872"/>
      <point x="706" y="880" type="curve"/>
      <point x="706" y="886" type="line"/>
      <point x="262" y="646" type="line"/>
      <point x="258" y="646" type="line"/>
      <point x="58" y="538" type="line"/>
      <point x="48" y="532"/>
      <point x="44" y="528"/>
      <point x="44" y="518" type="curve"/>
    </contour>
    <component base="L" xOffset="19"/>
  </outline>
</glyph>
<glyph name="lslash" format="2">
  <advance width="505"/>
  <unicode hex="0142"/>
  <anchor x="375" y="1496" name="Top"/>
  <anchor x="375" y="1496" name="top"/>
  <anchor x="186" y="-70" name="bottom"/>
  <anchor x="207" y="20" name="hook"/>
  <anchor x="280" y="700" name="bar"/>
  <outline>
    <component base="l" xOffset="69"/>
    <contour>
      <point x="64" y="694" type="line"/>
      <point x="284" y="802" type="line"/>
      <point x="288" y="802" type="line"/>
      <point x="496" y="904" type="line" smooth="yes"/>
      <point x="508" y="910"/>
      <point x="508" y="916"/>
      <point x="508" y="924" type="curve" smooth="yes"/>
      <point x="508" y="930" type="line"/>
      <point x="288" y="824" type="line"/>
      <point x="284" y="824" type="line"/>
      <point x="76" y="720" type="line"/>
      <point x="66" y="714"/>
      <point x="64" y="710"/>
      <point x="64" y="700" type="curve" smooth="yes"/>
    </contour>
  </outline>
  <guideline angle="82.9991" x="264" y="0"/>
</glyph>
<glyph name="Eng" format="2">
  <advance width="1389"/>
  <unicode hex="014A"/>
  <anchor x="816" y="1494" name="Top"/>
  <anchor x="816" y="1494" name="top"/>
  <anchor x="575" y="-421" name="bottom"/>
  <outline>
    <contour>
      <point x="1096" y="20" type="line"/>
      <point x="339" y="1392" type="line"/>
      <point x="336" y="1398"/>
      <point x="332" y="1400"/>
      <point x="326" y="1400" type="curve" smooth="yes"/>
      <point x="318" y="1400" type="line"/>
      <point x="146" y="0" type="line"/>
      <point x="166" y="0" type="line"/>
      <point x="331" y="1338" type="line" smooth="yes"/>
      <point x="333" y="1354"/>
      <point x="333" y="1372"/>
      <point x="333" y="1388" type="curve"/>
      <point x="323" y="1380" type="line"/>
      <point x="1080" y="7" type="line"/>
      <point x="1083" y="3"/>
      <point x="1085" y="0"/>
      <point x="1090" y="0" type="curve"/>
      <point x="1097" y="0" type="line"/>
      <point x="1269" y="1400" type="line"/>
      <point x="1249" y="1400" type="line"/>
      <point x="1085" y="64" type="line" smooth="yes"/>
      <point x="1083" y="50"/>
      <point x="1083" y="34"/>
      <point x="1083" y="20" type="curve"/>
    </contour>
    <contour>
      <point x="1102" y="37" type="line"/>
      <point x="1081" y="37" type="line"/>
      <point x="1068" y="-70" type="line" smooth="yes"/>
      <point x="1046" y="-249"/>
      <point x="961" y="-340"/>
      <point x="833" y="-340" type="curve" smooth="yes"/>
      <point x="772" y="-340"/>
      <point x="737" y="-319"/>
      <point x="728" y="-319" type="curve"/>
      <point x="726" y="-319"/>
      <point x="721" y="-319"/>
      <point x="718" y="-327" type="curve"/>
      <point x="715" y="-334" type="line"/>
      <point x="753" y="-351"/>
      <point x="789" y="-360"/>
      <point x="832" y="-360" type="curve" smooth="yes"/>
      <point x="976" y="-360"/>
      <point x="1066" y="-256"/>
      <point x="1088" y="-70" type="curve"/>
    </contour>
  </outline>
  <guideline angle="82.9991" x="665" y="0"/>
</glyph>
<glyph name="eng" format="2">
  <advance width="1009"/>
  <unicode hex="014B"/>
  <guideline x="503" y="0" angle="82.9991"/>
  <anchor x="561" y="1120" name="top"/>
  <anchor x="391" y="-421" name="bottom"/>
  <outline>
    <contour>
      <point x="753" y="0" type="line"/>
      <point x="743" y="-86" type="line" smooth="yes"/>
      <point x="722" y="-265"/>
      <point x="633" y="-356"/>
      <point x="506" y="-356" type="curve" smooth="yes"/>
      <point x="444" y="-356"/>
      <point x="409" y="-335"/>
      <point x="401" y="-335" type="curve" smooth="yes"/>
      <point x="398" y="-335"/>
      <point x="393" y="-335"/>
      <point x="390" y="-343" type="curve"/>
      <point x="387" y="-350" type="line"/>
      <point x="425" y="-367"/>
      <point x="462" y="-376"/>
      <point x="504" y="-376" type="curve" smooth="yes"/>
      <point x="649" y="-376"/>
      <point x="742" y="-272"/>
      <point x="765" y="-86" type="curve" smooth="yes"/>
      <point x="775" y="0" type="line"/>
    </contour>
    <contour>
      <point x="123" y="0" type="line"/>
      <point x="191" y="572" type="line"/>
      <point x="191" y="576" type="line"/>
      <point x="235" y="970" type="line"/>
      <point x="236" y="976"/>
      <point x="233" y="984"/>
      <point x="223" y="984" type="curve" smooth="yes"/>
      <point x="219" y="984" type="line"/>
      <point x="101" y="0" type="line"/>
    </contour>
    <contour>
      <point x="775" y="0" type="line"/>
      <point x="849" y="628" type="line"/>
      <point x="827" y="628" type="line"/>
      <point x="753" y="0" type="line"/>
    </contour>
    <contour>
      <point x="849" y="628" type="line"/>
      <point x="877" y="860"/>
      <point x="817" y="994"/>
      <point x="647" y="994" type="curve" smooth="yes"/>
      <point x="465" y="994"/>
      <point x="273" y="812"/>
      <point x="171" y="534" type="curve"/>
      <point x="175" y="510" type="line"/>
      <point x="289" y="794"/>
      <point x="473" y="974"/>
      <point x="645" y="974" type="curve" smooth="yes"/>
      <point x="801" y="974"/>
      <point x="853" y="846"/>
      <point x="827" y="628" type="curve"/>
    </contour>
  </outline>
</glyph>
<glyph name="OE" format="2">
  <advance width="2052"/>
  <unicode hex="0152"/>
  <anchor x="1147" y="1496" name="Top"/>
  <anchor x="1147" y="1496" name="top"/>
  <anchor x="1059" y="-70" name="bottom"/>
  <outline>
    <contour>
      <point x="1233" y="828" type="curve" smooth="yes"/>
      <point x="1233" y="1184"/>
      <point x="1059" y="1416"/>
      <point x="771" y="1416" type="curve" smooth="yes"/>
      <point x="417" y="1416"/>
      <point x="139" y="1088"/>
      <point x="139" y="576" type="curve" smooth="yes"/>
      <point x="139" y="216"/>
      <point x="317" y="-12"/>
      <point x="597" y="-12" type="curve" smooth="yes"/>
      <point x="967" y="-12"/>
      <point x="1233" y="312"/>
    </contour>
    <contour>
      <point x="1321" y="1400" type="line"/>
      <point x="1297" y="1400" type="line"/>
      <point x="1125" y="0" type="line"/>
      <point x="1149" y="0" type="line"/>
    </contour>
    <contour>
      <point x="1223" y="722" type="line"/>
      <point x="1221" y="700" type="line"/>
      <point x="1847" y="700" type="line"/>
      <point x="1849" y="722" type="line"/>
    </contour>
    <contour>
      <point x="1307" y="1400" type="line"/>
      <point x="1303" y="1378" type="line"/>
      <point x="2041" y="1378" type="line"/>
      <point x="2043" y="1400" type="line"/>
    </contour>
    <contour>
      <point x="1137" y="22" type="line"/>
      <point x="1135" y="0" type="line"/>
      <point x="1871" y="0" type="line"/>
      <point x="1875" y="22" type="line"/>
    </contour>
    <contour>
      <point x="1213" y="824" type="curve" smooth="yes"/>
      <point x="1213" y="318"/>
      <point x="949" y="8"/>
      <point x="603" y="8" type="curve" smooth="yes"/>
      <point x="337" y="8"/>
      <point x="163" y="226"/>
      <point x="163" y="578" type="curve" smooth="yes"/>
      <point x="163" y="1082"/>
      <point x="433" y="1396"/>
      <point x="773" y="1396" type="curve" smooth="yes"/>
      <point x="1043" y="1396"/>
      <point x="1213" y="1174"/>
    </contour>
  </outline>
  <guideline angle="82.9991" x="1040" y="0"/>
</glyph>
<glyph name="oe" format="2">
  <advance width="1619"/>
  <unicode hex="0153"/>
  <anchor x="907" y="1120" name="top"/>
  <anchor x="695" y="-70" name="bottom"/>
  <outline>
    <contour>
      <point x="567" y="996" type="curve" smooth="yes"/>
      <point x="293" y="996"/>
      <point x="93" y="749"/>
      <point x="93" y="328" type="curve" smooth="yes"/>
      <point x="93" y="152"/>
      <point x="177" y="-12"/>
      <point x="383" y="-12" type="curve" smooth="yes"/>
      <point x="657" y="-12"/>
      <point x="827" y="234"/>
      <point x="848" y="590" type="curve" smooth="yes"/>
      <point x="862" y="830"/>
      <point x="771" y="996"/>
    </contour>
    <contour>
      <point x="389" y="8" type="curve" smooth="yes"/>
      <point x="191" y="8"/>
      <point x="117" y="168"/>
      <point x="117" y="330" type="curve" smooth="yes"/>
      <point x="117" y="727"/>
      <point x="295" y="976"/>
      <point x="563" y="976" type="curve" smooth="yes"/>
      <point x="759" y="976"/>
      <point x="844" y="814"/>
      <point x="831" y="588" type="curve" smooth="yes"/>
      <point x="811" y="252"/>
      <point x="655" y="8"/>
    </contour>
    <contour>
      <point x="1256" y="996" type="curve" smooth="yes"/>
      <point x="998" y="996"/>
      <point x="820" y="754"/>
      <point x="820" y="402" type="curve" smooth="yes"/>
      <point x="820" y="148"/>
      <point x="928" y="-12"/>
      <point x="1122" y="-12" type="curve" smooth="yes"/>
      <point x="1262" y="-12"/>
      <point x="1373" y="48"/>
      <point x="1494" y="182" type="curve"/>
      <point x="1492" y="184" type="line" smooth="yes"/>
      <point x="1488" y="188"/>
      <point x="1486" y="188"/>
      <point x="1482" y="188" type="curve" smooth="yes"/>
      <point x="1453" y="188"/>
      <point x="1352" y="8"/>
      <point x="1124" y="8" type="curve" smooth="yes"/>
      <point x="948" y="8"/>
      <point x="838" y="156"/>
      <point x="838" y="406" type="curve" smooth="yes"/>
      <point x="838" y="744"/>
      <point x="1008" y="976"/>
      <point x="1254" y="976" type="curve" smooth="yes"/>
      <point x="1412" y="976"/>
      <point x="1480" y="893"/>
      <point x="1480" y="801" type="curve" smooth="yes"/>
      <point x="1480" y="679"/>
      <point x="1373" y="559"/>
      <point x="832" y="502" type="curve"/>
      <point x="828" y="482" type="line"/>
      <point x="1382" y="541"/>
      <point x="1498" y="664"/>
      <point x="1498" y="801" type="curve" smooth="yes"/>
      <point x="1498" y="916"/>
      <point x="1411" y="996"/>
    </contour>
  </outline>
  <guideline angle="82.9991" x="758" y="0"/>
</glyph>
<glyph name="Tbar" format="2">
  <advance width="1090"/>
  <unicode hex="0166"/>
  <anchor x="654" y="1496" name="Top"/>
  <anchor x="654" y="1496" name="top"/>
  <anchor x="463" y="-70" name="bottom"/>
  <anchor x="555" y="700" name="Slash"/>
  <outline>
    <component base="T" xOffset="24"/>
    <contour>
      <point x="230" y="828" type="line"/>
      <point x="912" y="828" type="line"/>
      <point x="914" y="848" type="line"/>
      <point x="232" y="848" type="line"/>
    </contour>
  </outline>
  <guideline angle="82.9991" x="534" y="0"/>
</glyph>
<glyph name="tbar" format="2">
  <advance width="672"/>
  <unicode hex="0167"/>
  <anchor x="343" y="1400" name="top"/>
  <anchor x="312" y="-70" name="bottom"/>
  <anchor x="341" y="700" name="Slash"/>
  <anchor x="228" y="532" name="bar"/>
  <outline>
    <component base="t" xOffset="12"/>
    <contour>
      <point x="62" y="680" type="line"/>
      <point x="60" y="670"/>
      <point x="66" y="668"/>
      <point x="76" y="668" type="curve" smooth="yes"/>
      <point x="540" y="668" type="line"/>
      <point x="544" y="688" type="line"/>
      <point x="64" y="688" type="line"/>
    </contour>
  </outline>
  <guideline angle="82.9991" x="317" y="0"/>
</glyph>
<glyph name="longs" format="2">
  <advance width="450"/>
  <unicode hex="017F"/>
  <guideline x="225" y="0" angle="82.9991"/>
  <anchor x="481" y="1496" name="Top"/>
  <anchor x="481" y="1496" name="top"/>
  <anchor x="109" y="-421" name="bottom"/>
  <outline>
    <contour>
      <point x="302" y="1088" type="line" smooth="yes"/>
      <point x="330" y="1310"/>
      <point x="438" y="1394"/>
      <point x="564" y="1394" type="curve" smooth="yes"/>
      <point x="628" y="1394"/>
      <point x="658" y="1366"/>
      <point x="664" y="1384" type="curve"/>
      <point x="666" y="1392" type="line"/>
      <point x="642" y="1406"/>
      <point x="602" y="1414"/>
      <point x="566" y="1414" type="curve" smooth="yes"/>
      <point x="422" y="1414"/>
      <point x="306" y="1312"/>
      <point x="278" y="1088" type="curve" smooth="yes"/>
      <point x="114" y="-252" type="line"/>
      <point x="118" y="-252" type="line" smooth="yes"/>
      <point x="122" y="-252"/>
      <point x="128" y="-250"/>
      <point x="130" y="-240" type="curve"/>
      <point x="168" y="10" type="line"/>
    </contour>
    <contour>
      <point x="278" y="918" type="line"/>
      <point x="280" y="938" type="line"/>
      <point x="98" y="938" type="line"/>
      <point x="98" y="930" type="line"/>
      <point x="96" y="926"/>
      <point x="100" y="922"/>
      <point x="108" y="922" type="curve"/>
      <point x="264" y="918" type="line"/>
      <point x="276" y="918" type="line"/>
    </contour>
  </outline>
</glyph>
<glyph name="Bhook" format="2">
  <advance width="1365"/>
  <unicode hex="0181"/>
  <guideline x="690" y="0" angle="82.9991"/>
  <anchor x="694" y="1496" name="Top"/>
  <anchor x="694" y="1496" name="top"/>
  <anchor x="639" y="-70" name="bottom"/>
  <outline>
    <contour>
      <point x="745" y="0" type="line" smooth="yes"/>
      <point x="1036" y="0"/>
      <point x="1212" y="149"/>
      <point x="1212" y="411" type="curve" smooth="yes"/>
      <point x="1212" y="600"/>
      <point x="1071" y="716"/>
      <point x="840" y="716" type="curve"/>
      <point x="858" y="712" type="line"/>
      <point x="1061" y="712"/>
      <point x="1236" y="894"/>
      <point x="1236" y="1103" type="curve" smooth="yes"/>
      <point x="1236" y="1291"/>
      <point x="1115" y="1400"/>
      <point x="868" y="1400" type="curve" smooth="yes"/>
      <point x="532" y="1400" type="line"/>
      <point x="360" y="0" type="line"/>
      <point x="384" y="0" type="line"/>
      <point x="553" y="1380" type="line"/>
      <point x="865" y="1380" type="line" smooth="yes"/>
      <point x="1101" y="1380"/>
      <point x="1213" y="1275"/>
      <point x="1213" y="1100" type="curve" smooth="yes"/>
      <point x="1213" y="927"/>
      <point x="1090" y="720"/>
      <point x="793" y="720" type="curve"/>
      <point x="465" y="720" type="line"/>
      <point x="462" y="700" type="line"/>
      <point x="833" y="700" type="line" smooth="yes"/>
      <point x="1053" y="700"/>
      <point x="1188" y="585"/>
      <point x="1188" y="407" type="curve" smooth="yes"/>
      <point x="1188" y="156"/>
      <point x="1021" y="20"/>
      <point x="748" y="20" type="curve" smooth="yes"/>
      <point x="375" y="20" type="line"/>
      <point x="370" y="0" type="line"/>
    </contour>
    <contour>
      <point x="538" y="1380" type="line"/>
      <point x="541" y="1400" type="line"/>
      <point x="480" y="1400" type="line" smooth="yes"/>
      <point x="258" y="1400"/>
      <point x="132" y="1284"/>
      <point x="132" y="1099" type="curve" smooth="yes"/>
      <point x="132" y="1072"/>
      <point x="135" y="1033"/>
      <point x="142" y="1001" type="curve"/>
      <point x="152" y="1003" type="line" smooth="yes"/>
      <point x="161" y="1005"/>
      <point x="161" y="1014"/>
      <point x="159" y="1024" type="curve" smooth="yes"/>
      <point x="155" y="1047"/>
      <point x="153" y="1081"/>
      <point x="153" y="1101" type="curve" smooth="yes"/>
      <point x="153" y="1272"/>
      <point x="265" y="1380"/>
      <point x="478" y="1380" type="curve" smooth="yes"/>
    </contour>
  </outline>
</glyph>
<glyph name="btopbar" format="2">
  <advance width="1010"/>
  <unicode hex="0183"/>
  <anchor x="281" y="1496" name="Top"/>
  <anchor x="281" y="1496" name="top"/>
  <anchor x="349" y="-70" name="bottom"/>
  <outline>
    <contour>
      <point x="109" y="0" type="line" smooth="yes"/>
      <point x="118" y="0"/>
      <point x="121" y="8"/>
      <point x="122" y="14" type="curve" smooth="yes"/>
      <point x="146" y="179" type="line"/>
      <point x="147" y="187" type="line"/>
      <point x="301" y="1440" type="line"/>
      <point x="277" y="1440" type="line"/>
      <point x="100" y="0" type="line"/>
    </contour>
    <contour>
      <point x="137" y="180" type="line"/>
      <point x="189" y="50"/>
      <point x="284" y="-12"/>
      <point x="422" y="-12" type="curve" smooth="yes"/>
      <point x="719" y="-12"/>
      <point x="889" y="257"/>
      <point x="889" y="610" type="curve" smooth="yes"/>
      <point x="889" y="865"/>
      <point x="782" y="996"/>
      <point x="581" y="996" type="curve" smooth="yes"/>
      <point x="439" y="996"/>
      <point x="305" y="904"/>
      <point x="206" y="760" type="curve"/>
      <point x="207" y="734" type="line"/>
      <point x="308" y="884"/>
      <point x="442" y="976"/>
      <point x="578" y="976" type="curve" smooth="yes"/>
      <point x="766" y="976"/>
      <point x="865" y="849"/>
      <point x="865" y="607" type="curve" smooth="yes"/>
      <point x="865" y="269"/>
      <point x="712" y="8"/>
      <point x="424" y="8" type="curve" smooth="yes"/>
      <point x="292" y="8"/>
      <point x="203" y="62"/>
      <point x="141" y="212" type="curve"/>
    </contour>
    <contour>
      <point x="275" y="1420" type="line"/>
      <point x="932" y="1420" type="line"/>
      <point x="934" y="1440" type="line"/>
      <point x="277" y="1440" type="line"/>
    </contour>
  </outline>
  <guideline angle="82.9991" x="496" y="0"/>
</glyph>
<glyph name="Tonesix" format="2">
  <advance width="1134"/>
  <unicode hex="0184"/>
  <guideline x="562" y="0" angle="82.9991"/>
  <anchor x="346" y="1496" name="Top"/>
  <anchor x="346" y="1496" name="top"/>
  <anchor x="435" y="-70" name="bottom"/>
  <outline>
    <contour>
      <point x="282" y="820" type="line"/>
      <point x="280" y="800" type="line"/>
      <point x="632" y="800" type="line" smooth="yes"/>
      <point x="884" y="800"/>
      <point x="1009" y="642"/>
      <point x="1009" y="461" type="curve" smooth="yes"/>
      <point x="1009" y="215"/>
      <point x="850" y="20"/>
      <point x="535" y="20" type="curve" smooth="yes"/>
      <point x="192" y="20" type="line"/>
      <point x="210" y="170" type="line"/>
      <point x="361" y="1400" type="line"/>
      <point x="343" y="1400" type="line"/>
      <point x="333" y="1369" type="line"/>
      <point x="165" y="0" type="line"/>
      <point x="532" y="0" type="line" smooth="yes"/>
      <point x="864" y="0"/>
      <point x="1033" y="208"/>
      <point x="1033" y="464" type="curve" smooth="yes"/>
      <point x="1033" y="657"/>
      <point x="898" y="820"/>
      <point x="635" y="820" type="curve"/>
    </contour>
    <contour>
      <point x="309" y="1098" type="line"/>
      <point x="347" y="1400" type="line"/>
      <point x="343" y="1400" type="line"/>
      <point x="183" y="1164" type="line"/>
      <point x="300" y="1098" type="line"/>
    </contour>
  </outline>
</glyph>
<glyph name="tonesix" format="2">
  <advance width="1008"/>
  <unicode hex="0185"/>
  <anchor x="271" y="1496" name="Top"/>
  <anchor x="271" y="1496" name="top"/>
  <anchor x="337" y="-70" name="bottom"/>
  <outline>
    <contour>
      <point x="248" y="1138" type="line"/>
      <point x="248" y="1138"/>
      <point x="286" y="1440"/>
      <point x="286" y="1440" type="curve"/>
      <point x="282" y="1440" type="line"/>
      <point x="122" y="1204" type="line"/>
      <point x="239" y="1138" type="line"/>
    </contour>
    <contour>
      <point x="106" y="0" type="line" smooth="yes"/>
      <point x="116" y="0"/>
      <point x="114" y="6"/>
      <point x="116" y="14" type="curve"/>
      <point x="141" y="175" type="line"/>
      <point x="143" y="185" type="line"/>
      <point x="296" y="1440" type="line"/>
      <point x="282" y="1440" type="line"/>
      <point x="261" y="1319" type="line"/>
      <point x="100" y="0" type="line"/>
    </contour>
    <contour>
      <point x="132" y="180" type="line"/>
      <point x="184" y="50"/>
      <point x="298" y="-12"/>
      <point x="418" y="-12" type="curve" smooth="yes"/>
      <point x="716" y="-12"/>
      <point x="896" y="372"/>
      <point x="896" y="658" type="curve" smooth="yes"/>
      <point x="896" y="850"/>
      <point x="816" y="994"/>
      <point x="642" y="994" type="curve" smooth="yes"/>
      <point x="450" y="994"/>
      <point x="262" y="780"/>
      <point x="162" y="484" type="curve"/>
      <point x="168" y="460" type="line"/>
      <point x="280" y="776"/>
      <point x="462" y="974"/>
      <point x="642" y="974" type="curve" smooth="yes"/>
      <point x="794" y="974"/>
      <point x="874" y="852"/>
      <point x="874" y="658" type="curve" smooth="yes"/>
      <point x="874" y="382"/>
      <point x="708" y="8"/>
      <point x="420" y="8" type="curve" smooth="yes"/>
      <point x="306" y="8"/>
      <point x="198" y="62"/>
      <point x="136" y="212" type="curve"/>
    </contour>
  </outline>
  <guideline angle="82.9991" x="496" y="0"/>
</glyph>
<glyph name="Oopen" format="2">
  <advance width="1282"/>
  <unicode hex="0186"/>
  <anchor x="644" y="1496" name="Top"/>
  <anchor x="644" y="1496" name="top"/>
  <anchor x="566" y="-70" name="bottom"/>
  <outline>
    <contour>
      <point x="61" y="189" type="curve" smooth="yes"/>
      <point x="58" y="189"/>
      <point x="56" y="188"/>
      <point x="54" y="186" type="curve"/>
      <point x="44" y="178" type="line"/>
      <point x="139" y="64"/>
      <point x="263" y="-16"/>
      <point x="477" y="-16" type="curve" smooth="yes"/>
      <point x="862" y="-16"/>
      <point x="1171" y="304"/>
      <point x="1171" y="806" type="curve" smooth="yes"/>
      <point x="1171" y="1166"/>
      <point x="964" y="1416"/>
      <point x="634" y="1416" type="curve" smooth="yes"/>
      <point x="464" y="1416"/>
      <point x="332" y="1359"/>
      <point x="202" y="1252" type="curve"/>
      <point x="205" y="1246" type="line" smooth="yes"/>
      <point x="207" y="1242"/>
      <point x="211" y="1242"/>
      <point x="214" y="1242" type="curve" smooth="yes"/>
      <point x="232" y="1242"/>
      <point x="369" y="1396"/>
      <point x="632" y="1396" type="curve" smooth="yes"/>
      <point x="943" y="1396"/>
      <point x="1147" y="1164"/>
      <point x="1147" y="807" type="curve" smooth="yes"/>
      <point x="1147" y="310"/>
      <point x="845" y="4"/>
      <point x="479" y="4" type="curve" smooth="yes"/>
      <point x="270" y="4"/>
      <point x="168" y="70"/>
      <point x="68" y="184" type="curve"/>
      <point x="66" y="187"/>
      <point x="64" y="189"/>
    </contour>
  </outline>
  <guideline angle="82.9991" x="661" y="0"/>
</glyph>
<glyph name="Chook" format="2">
  <advance width="1268"/>
  <unicode hex="0187"/>
  <anchor x="866" y="1496" name="Top"/>
  <anchor x="866" y="1496" name="top"/>
  <anchor x="571" y="-70" name="bottom"/>
  <outline>
    <contour>
      <point x="1257" y="1374" type="line" smooth="yes"/>
      <point x="1278" y="1547"/>
      <point x="1350" y="1654"/>
      <point x="1469" y="1654" type="curve" smooth="yes"/>
      <point x="1500" y="1654"/>
      <point x="1536" y="1648"/>
      <point x="1570" y="1635" type="curve"/>
      <point x="1579" y="1632"/>
      <point x="1587" y="1630"/>
      <point x="1590" y="1640" type="curve"/>
      <point x="1593" y="1648" type="line"/>
      <point x="1551" y="1665"/>
      <point x="1510" y="1674"/>
      <point x="1469" y="1674" type="curve" smooth="yes"/>
      <point x="1342" y="1674"/>
      <point x="1260" y="1563"/>
      <point x="1237" y="1374" type="curve" smooth="yes"/>
      <point x="1232" y="1335"/>
      <point x="1228" y="1299"/>
      <point x="1226" y="1252" type="curve"/>
      <point x="1226" y="1252"/>
      <point x="1242" y="1252"/>
      <point x="1242" y="1252" type="curve"/>
    </contour>
    <contour>
      <point x="658" y="4" type="curve" smooth="yes"/>
      <point x="364" y="4"/>
      <point x="160" y="230"/>
      <point x="160" y="590" type="curve" smooth="yes"/>
      <point x="160" y="1084"/>
      <point x="462" y="1396"/>
      <point x="848" y="1396" type="curve" smooth="yes"/>
      <point x="1128" y="1396"/>
      <point x="1204" y="1242"/>
      <point x="1226" y="1242" type="curve" smooth="yes"/>
      <point x="1230" y="1242"/>
      <point x="1234" y="1242"/>
      <point x="1238" y="1246" type="curve"/>
      <point x="1242" y="1252" type="line"/>
      <point x="1136" y="1362"/>
      <point x="1036" y="1416"/>
      <point x="850" y="1416" type="curve" smooth="yes"/>
      <point x="444" y="1416"/>
      <point x="136" y="1082"/>
      <point x="136" y="590" type="curve" smooth="yes"/>
      <point x="136" y="220"/>
      <point x="344" y="-16"/>
      <point x="656" y="-16" type="curve" smooth="yes"/>
      <point x="868" y="-16"/>
      <point x="1014" y="64"/>
      <point x="1136" y="178" type="curve"/>
      <point x="1127" y="187" type="line"/>
      <point x="1126" y="188"/>
      <point x="1124" y="189"/>
      <point x="1123" y="189" type="curve"/>
      <point x="1102" y="189"/>
      <point x="976" y="4"/>
    </contour>
  </outline>
  <guideline angle="82.9991" x="823" y="0"/>
</glyph>
<glyph name="chook" format="2">
  <advance width="914"/>
  <unicode hex="0188"/>
  <anchor x="564" y="1120" name="top"/>
  <anchor x="349" y="-70" name="bottom"/>
  <outline>
    <contour>
      <point x="847" y="1032" type="line"/>
      <point x="865" y="1175"/>
      <point x="915" y="1273"/>
      <point x="1032" y="1273" type="curve" smooth="yes"/>
      <point x="1086" y="1273"/>
      <point x="1123" y="1252"/>
      <point x="1132" y="1252" type="curve" smooth="yes"/>
      <point x="1135" y="1252"/>
      <point x="1139" y="1251"/>
      <point x="1142" y="1259" type="curve"/>
      <point x="1145" y="1266" type="line"/>
      <point x="1108" y="1283"/>
      <point x="1072" y="1292"/>
      <point x="1034" y="1292" type="curve" smooth="yes"/>
      <point x="904" y="1292"/>
      <point x="846" y="1188"/>
      <point x="827" y="1032" type="curve"/>
      <point x="802" y="865" type="line"/>
      <point x="802" y="865"/>
      <point x="822" y="866"/>
      <point x="822" y="866" type="curve"/>
    </contour>
    <contour>
      <point x="786" y="182" type="curve"/>
      <point x="784" y="184" type="line" smooth="yes"/>
      <point x="780" y="188"/>
      <point x="778" y="188"/>
      <point x="774" y="188" type="curve" smooth="yes"/>
      <point x="740" y="188"/>
      <point x="652" y="8"/>
      <point x="410" y="8" type="curve" smooth="yes"/>
      <point x="200" y="8"/>
      <point x="114" y="168"/>
      <point x="114" y="370" type="curve" smooth="yes"/>
      <point x="114" y="674"/>
      <point x="304" y="976"/>
      <point x="562" y="976" type="curve" smooth="yes"/>
      <point x="740" y="976"/>
      <point x="790" y="858"/>
      <point x="808" y="858" type="curve" smooth="yes"/>
      <point x="812" y="858"/>
      <point x="816" y="860"/>
      <point x="818" y="862" type="curve" smooth="yes"/>
      <point x="822" y="866" type="line"/>
      <point x="766" y="942"/>
      <point x="692" y="996"/>
      <point x="564" y="996" type="curve" smooth="yes"/>
      <point x="286" y="996"/>
      <point x="90" y="680"/>
      <point x="90" y="370" type="curve" smooth="yes"/>
      <point x="90" y="154"/>
      <point x="186" y="-12"/>
      <point x="410" y="-12" type="curve" smooth="yes"/>
      <point x="538" y="-12"/>
      <point x="640" y="20"/>
    </contour>
  </outline>
  <guideline angle="0" x="0" y="1406"/>
  <guideline angle="82.9991" x="415" y="0"/>
</glyph>
<glyph name="Dhook" format="2">
  <advance width="1624"/>
  <unicode hex="018A"/>
  <guideline x="809" y="0" angle="82.9991"/>
  <anchor x="775" y="1496" name="Top"/>
  <anchor x="775" y="1496" name="top"/>
  <anchor x="684" y="-70" name="bottom"/>
  <outline>
    <contour>
      <point x="1511" y="813" type="curve" smooth="yes"/>
      <point x="1511" y="1178"/>
      <point x="1309" y="1400"/>
      <point x="992" y="1400" type="curve" smooth="yes"/>
      <point x="532" y="1400" type="line"/>
      <point x="360" y="0" type="line"/>
      <point x="820" y="0" type="line" smooth="yes"/>
      <point x="1216" y="0"/>
      <point x="1511" y="303"/>
    </contour>
    <contour>
      <point x="1485" y="813" type="curve" smooth="yes"/>
      <point x="1485" y="311"/>
      <point x="1202" y="20"/>
      <point x="823" y="20" type="curve"/>
      <point x="386" y="20" type="line"/>
      <point x="553" y="1380" type="line"/>
      <point x="989" y="1380" type="line"/>
      <point x="1291" y="1380"/>
      <point x="1485" y="1169"/>
    </contour>
    <contour>
      <point x="538" y="1380" type="line"/>
      <point x="541" y="1400" type="line"/>
      <point x="480" y="1400" type="line" smooth="yes"/>
      <point x="258" y="1400"/>
      <point x="132" y="1284"/>
      <point x="132" y="1099" type="curve" smooth="yes"/>
      <point x="132" y="1072"/>
      <point x="135" y="1033"/>
      <point x="142" y="1001" type="curve"/>
      <point x="152" y="1003" type="line" smooth="yes"/>
      <point x="161" y="1005"/>
      <point x="161" y="1014"/>
      <point x="159" y="1024" type="curve" smooth="yes"/>
      <point x="155" y="1047"/>
      <point x="153" y="1081"/>
      <point x="153" y="1101" type="curve" smooth="yes"/>
      <point x="153" y="1272"/>
      <point x="265" y="1380"/>
      <point x="478" y="1380" type="curve" smooth="yes"/>
    </contour>
  </outline>
</glyph>
<glyph name="Dtopbar" format="2">
  <advance width="1105"/>
  <unicode hex="018B"/>
  <guideline x="585" y="0" angle="82.9991"/>
  <anchor x="732" y="1496" name="Top"/>
  <anchor x="732" y="1496" name="top"/>
  <anchor x="544" y="-70" name="bottom"/>
  <outline>
    <contour>
      <point x="244" y="1380" type="line"/>
      <point x="959" y="1380" type="line"/>
      <point x="789" y="0" type="line"/>
      <point x="814" y="0" type="line"/>
      <point x="985" y="1400" type="line"/>
      <point x="246" y="1400" type="line"/>
    </contour>
    <contour>
      <point x="535" y="740" type="line" smooth="yes"/>
      <point x="242" y="740"/>
      <point x="80" y="596"/>
      <point x="80" y="324" type="curve" smooth="yes"/>
      <point x="80" y="123"/>
      <point x="207" y="0"/>
      <point x="446" y="0" type="curve" smooth="yes"/>
      <point x="803" y="0" type="line"/>
      <point x="803" y="20" type="line"/>
      <point x="449" y="20" type="line" smooth="yes"/>
      <point x="225" y="20"/>
      <point x="104" y="132"/>
      <point x="104" y="325" type="curve" smooth="yes"/>
      <point x="104" y="589"/>
      <point x="257" y="720"/>
      <point x="533" y="720" type="curve" smooth="yes"/>
      <point x="887" y="720" type="line"/>
      <point x="889" y="740" type="line"/>
    </contour>
  </outline>
</glyph>
<glyph name="deltaturned" format="2">
  <advance width="913"/>
  <unicode hex="018D"/>
  <anchor x="543" y="1496" name="Top"/>
  <anchor x="543" y="1496" name="top"/>
  <anchor x="375" y="-70" name="bottom"/>
  <outline>
    <contour>
      <point x="117" y="15" type="line"/>
      <point x="197" y="-3"/>
      <point x="298" y="-12"/>
      <point x="362" y="-12" type="curve" smooth="yes"/>
      <point x="584" y="-12"/>
      <point x="644" y="91"/>
      <point x="644" y="185" type="curve" smooth="yes"/>
      <point x="644" y="437"/>
      <point x="134" y="477"/>
      <point x="134" y="918" type="curve" smooth="yes"/>
      <point x="134" y="1210"/>
      <point x="313" y="1390"/>
      <point x="545" y="1390" type="curve" smooth="yes"/>
      <point x="760" y="1390"/>
      <point x="860" y="1214"/>
      <point x="860" y="1021" type="curve" smooth="yes"/>
      <point x="860" y="708"/>
      <point x="653" y="540"/>
      <point x="395" y="467" type="curve"/>
      <point x="411" y="456" type="line"/>
      <point x="706" y="540"/>
      <point x="884" y="728"/>
      <point x="884" y="1022" type="curve" smooth="yes"/>
      <point x="884" y="1228"/>
      <point x="776" y="1410"/>
      <point x="548" y="1410" type="curve" smooth="yes"/>
      <point x="311" y="1410"/>
      <point x="110" y="1223"/>
      <point x="110" y="911" type="curve" smooth="yes"/>
      <point x="110" y="469"/>
      <point x="620" y="417"/>
      <point x="620" y="180" type="curve" smooth="yes"/>
      <point x="620" y="87"/>
      <point x="556" y="8"/>
      <point x="361" y="8" type="curve" smooth="yes"/>
      <point x="254" y="8"/>
      <point x="143" y="33"/>
      <point x="135" y="33" type="curve" smooth="yes"/>
      <point x="125" y="33"/>
      <point x="119" y="33"/>
      <point x="118" y="22" type="curve"/>
    </contour>
  </outline>
  <guideline angle="82.9991" x="475" y="0"/>
</glyph>
<glyph name="Ereversed" format="2">
  <advance width="1079"/>
  <unicode hex="018E"/>
  <guideline x="551" y="0" angle="82.9991"/>
  <anchor x="660" y="1496" name="Top"/>
  <anchor x="660" y="1496" name="top"/>
  <anchor x="480" y="-70" name="bottom"/>
  <outline>
    <contour>
      <point x="763" y="0" type="line"/>
      <point x="788" y="0" type="line"/>
      <point x="959" y="1400" type="line"/>
      <point x="935" y="1400" type="line"/>
    </contour>
    <contour>
      <point x="233" y="722" type="line"/>
      <point x="231" y="700" type="line"/>
      <point x="857" y="700" type="line"/>
      <point x="860" y="722" type="line"/>
    </contour>
    <contour>
      <point x="206" y="1400" type="line"/>
      <point x="203" y="1378" type="line"/>
      <point x="940" y="1378" type="line"/>
      <point x="943" y="1400" type="line"/>
    </contour>
    <contour>
      <point x="35" y="22" type="line"/>
      <point x="34" y="0" type="line"/>
      <point x="771" y="0" type="line"/>
      <point x="774" y="22" type="line"/>
    </contour>
  </outline>
</glyph>
<glyph name="Schwa" format="2">
  <advance width="1291"/>
  <unicode hex="018F"/>
  <guideline x="657" y="0" angle="82.9991"/>
  <anchor x="672" y="1496" name="Top"/>
  <anchor x="672" y="1496" name="top"/>
  <anchor x="538" y="-70" name="bottom"/>
  <outline>
    <contour>
      <point x="526" y="-10" type="curve" smooth="yes"/>
      <point x="924" y="-10"/>
      <point x="1177" y="323"/>
      <point x="1177" y="814" type="curve" smooth="yes"/>
      <point x="1177" y="1185"/>
      <point x="998" y="1418"/>
      <point x="691" y="1418" type="curve" smooth="yes"/>
      <point x="479" y="1418"/>
      <point x="330" y="1333"/>
      <point x="228" y="1237" type="curve"/>
      <point x="232" y="1232" type="line"/>
      <point x="234" y="1229"/>
      <point x="237" y="1228"/>
      <point x="241" y="1228" type="curve" smooth="yes"/>
      <point x="267" y="1228"/>
      <point x="387" y="1398"/>
      <point x="691" y="1398" type="curve" smooth="yes"/>
      <point x="973" y="1398"/>
      <point x="1152" y="1181"/>
      <point x="1152" y="813" type="curve" smooth="yes"/>
      <point x="1152" y="335"/>
      <point x="908" y="10"/>
      <point x="526" y="10" type="curve" smooth="yes"/>
      <point x="279" y="10"/>
      <point x="88" y="220"/>
      <point x="133" y="580" type="curve"/>
      <point x="1137" y="580" type="line"/>
      <point x="1142" y="602" type="line"/>
      <point x="138" y="602" type="line" smooth="yes"/>
      <point x="116" y="602"/>
      <point x="104" y="595"/>
      <point x="104" y="492" type="curve" smooth="yes"/>
      <point x="104" y="174"/>
      <point x="277" y="-10"/>
    </contour>
  </outline>
</glyph>
